<ttFont>
    <TTGlyph name=".notdef" xMin="79" yMin="-220" xMax="737" yMax="1030">
      <contour>
        <pt x="79" y="1030" on="1"/>
        <pt x="737" y="1030" on="1"/>
        <pt x="737" y="-220" on="1"/>
        <pt x="79" y="-220" on="1"/>
      </contour>
      <contour>
        <pt x="601" y="-94" on="1"/>
        <pt x="601" y="904" on="1"/>
        <pt x="215" y="904" on="1"/>
        <pt x="215" y="-94" on="1"/>
      </contour>
    </TTGlyph>
    <TTGlyph name="A" xMin="0" yMin="0" xMax="740" yMax="740">
      <contour>
        <pt x="0" y="9" on="1"/>
        <pt x="243" y="740" on="1"/>
        <pt x="497" y="740" on="1"/>
        <pt x="740" y="9" on="1"/>
        <pt x="740" y="0" on="1"/>
        <pt x="575" y="0" on="1"/>
        <pt x="516" y="178" on="1"/>
        <pt x="223" y="178" on="1"/>
        <pt x="165" y="0" on="1"/>
        <pt x="0" y="0" on="1"/>
      </contour>
      <contour>
        <pt x="477" y="311" on="1"/>
        <pt x="422" y="477" on="1"/>
        <pt x="377" y="622" on="1"/>
        <pt x="362" y="622" on="1"/>
        <pt x="318" y="476" on="1"/>
        <pt x="263" y="311" on="1"/>
      </contour>
    </TTGlyph>
    <TTGlyph name="A.sc" xMin="3" yMin="0" xMax="676" yMax="577">
      <contour>
        <pt x="3" y="8" on="1"/>
        <pt x="220" y="577" on="1"/>
        <pt x="460" y="577" on="1"/>
        <pt x="676" y="8" on="1"/>
        <pt x="676" y="0" on="1"/>
        <pt x="519" y="0" on="1"/>
        <pt x="470" y="121" on="1"/>
        <pt x="208" y="121" on="1"/>
        <pt x="160" y="0" on="1"/>
        <pt x="3" y="0" on="1"/>
      </contour>
      <contour>
        <pt x="438" y="230" on="1"/>
        <pt x="386" y="364" on="1"/>
        <pt x="346" y="467" on="1"/>
        <pt x="332" y="467" on="1"/>
        <pt x="292" y="363" on="1"/>
        <pt x="240" y="230" on="1"/>
      </contour>
    </TTGlyph>
    <TTGlyph name="AE" xMin="-4" yMin="0" xMax="945" yMax="740">
      <contour>
        <pt x="-4" y="9" on="1"/>
        <pt x="294" y="740" on="1"/>
        <pt x="931" y="740" on="1"/>
        <pt x="931" y="607" on="1"/>
        <pt x="614" y="607" on="1"/>
        <pt x="624" y="438" on="1"/>
        <pt x="914" y="438" on="1"/>
        <pt x="914" y="305" on="1"/>
        <pt x="633" y="305" on="1"/>
        <pt x="644" y="133" on="1"/>
        <pt x="945" y="133" on="1"/>
        <pt x="945" y="0" on="1"/>
        <pt x="474" y="0" on="1"/>
        <pt x="467" y="175" on="1"/>
        <pt x="234" y="175" on="1"/>
        <pt x="163" y="0" on="1"/>
        <pt x="-4" y="0" on="1"/>
      </contour>
      <contour>
        <pt x="290" y="314" on="1"/>
        <pt x="461" y="314" on="1"/>
        <pt x="449" y="619" on="1"/>
        <pt x="414" y="619" on="1"/>
      </contour>
    </TTGlyph>
    <TTGlyph name="AE.sc" xMin="0" yMin="0" xMax="867" yMax="577">
      <contour>
        <pt x="0" y="8" on="1"/>
        <pt x="269" y="577" on="1"/>
        <pt x="853" y="577" on="1"/>
        <pt x="853" y="457" on="1"/>
        <pt x="569" y="457" on="1"/>
        <pt x="576" y="343" on="1"/>
        <pt x="839" y="343" on="1"/>
        <pt x="839" y="237" on="1"/>
        <pt x="587" y="237" on="1"/>
        <pt x="596" y="121" on="1"/>
        <pt x="867" y="121" on="1"/>
        <pt x="867" y="0" on="1"/>
        <pt x="435" y="0" on="1"/>
        <pt x="429" y="121" on="1"/>
        <pt x="216" y="121" on="1"/>
        <pt x="158" y="0" on="1"/>
        <pt x="0" y="0" on="1"/>
      </contour>
      <contour>
        <pt x="269" y="228" on="1"/>
        <pt x="423" y="228" on="1"/>
        <pt x="413" y="466" on="1"/>
        <pt x="383" y="466" on="1"/>
      </contour>
    </TTGlyph>
    <TTGlyph name="AEacute" xMin="-4" yMin="0" xMax="945" yMax="981">
      <contour>
        <pt x="478" y="810" on="1"/>
        <pt x="546" y="981" on="1"/>
        <pt x="717" y="981" on="1"/>
        <pt x="600" y="802" on="1"/>
      </contour>
      <contour>
        <pt x="-4" y="9" on="1"/>
        <pt x="294" y="740" on="1"/>
        <pt x="931" y="740" on="1"/>
        <pt x="931" y="607" on="1"/>
        <pt x="614" y="607" on="1"/>
        <pt x="624" y="438" on="1"/>
        <pt x="914" y="438" on="1"/>
        <pt x="914" y="305" on="1"/>
        <pt x="633" y="305" on="1"/>
        <pt x="644" y="133" on="1"/>
        <pt x="945" y="133" on="1"/>
        <pt x="945" y="0" on="1"/>
        <pt x="474" y="0" on="1"/>
        <pt x="467" y="175" on="1"/>
        <pt x="234" y="175" on="1"/>
        <pt x="163" y="0" on="1"/>
        <pt x="-4" y="0" on="1"/>
      </contour>
      <contour>
        <pt x="290" y="314" on="1"/>
        <pt x="461" y="314" on="1"/>
        <pt x="449" y="619" on="1"/>
        <pt x="414" y="619" on="1"/>
      </contour>
    </TTGlyph>
    <TTGlyph name="AEacute.sc" xMin="0" yMin="0" xMax="867" yMax="777">
      <contour>
        <pt x="0" y="8" on="1"/>
        <pt x="269" y="577" on="1"/>
        <pt x="853" y="577" on="1"/>
        <pt x="853" y="457" on="1"/>
        <pt x="569" y="457" on="1"/>
        <pt x="576" y="343" on="1"/>
        <pt x="839" y="343" on="1"/>
        <pt x="839" y="237" on="1"/>
        <pt x="587" y="237" on="1"/>
        <pt x="596" y="121" on="1"/>
        <pt x="867" y="121" on="1"/>
        <pt x="867" y="0" on="1"/>
        <pt x="435" y="0" on="1"/>
        <pt x="429" y="121" on="1"/>
        <pt x="216" y="121" on="1"/>
        <pt x="158" y="0" on="1"/>
        <pt x="0" y="0" on="1"/>
      </contour>
      <contour>
        <pt x="423" y="228" on="1"/>
        <pt x="413" y="466" on="1"/>
        <pt x="383" y="466" on="1"/>
        <pt x="269" y="228" on="1"/>
      </contour>
      <contour>
        <pt x="432" y="634" on="1"/>
        <pt x="491" y="777" on="1"/>
        <pt x="654" y="777" on="1"/>
        <pt x="548" y="627" on="1"/>
      </contour>
    </TTGlyph>
    <TTGlyph name="Aacute" xMin="0" yMin="0" xMax="740" yMax="981">
      <contour>
        <pt x="0" y="9" on="1"/>
        <pt x="243" y="740" on="1"/>
        <pt x="497" y="740" on="1"/>
        <pt x="740" y="9" on="1"/>
        <pt x="740" y="0" on="1"/>
        <pt x="575" y="0" on="1"/>
        <pt x="516" y="178" on="1"/>
        <pt x="223" y="178" on="1"/>
        <pt x="165" y="0" on="1"/>
        <pt x="0" y="0" on="1"/>
      </contour>
      <contour>
        <pt x="477" y="311" on="1"/>
        <pt x="422" y="477" on="1"/>
        <pt x="377" y="622" on="1"/>
        <pt x="362" y="622" on="1"/>
        <pt x="318" y="476" on="1"/>
        <pt x="263" y="311" on="1"/>
      </contour>
      <contour>
        <pt x="303" y="810" on="1"/>
        <pt x="371" y="981" on="1"/>
        <pt x="542" y="981" on="1"/>
        <pt x="425" y="802" on="1"/>
      </contour>
    </TTGlyph>
    <TTGlyph name="Aacute.sc" xMin="3" yMin="0" xMax="676" yMax="777">
      <contour>
        <pt x="3" y="8" on="1"/>
        <pt x="220" y="577" on="1"/>
        <pt x="460" y="577" on="1"/>
        <pt x="676" y="8" on="1"/>
        <pt x="676" y="0" on="1"/>
        <pt x="519" y="0" on="1"/>
        <pt x="470" y="121" on="1"/>
        <pt x="208" y="121" on="1"/>
        <pt x="160" y="0" on="1"/>
        <pt x="3" y="0" on="1"/>
      </contour>
      <contour>
        <pt x="437" y="235" on="1"/>
        <pt x="386" y="364" on="1"/>
        <pt x="346" y="467" on="1"/>
        <pt x="332" y="467" on="1"/>
        <pt x="292" y="363" on="1"/>
        <pt x="241" y="235" on="1"/>
      </contour>
      <contour>
        <pt x="278" y="634" on="1"/>
        <pt x="337" y="777" on="1"/>
        <pt x="499" y="777" on="1"/>
        <pt x="393" y="627" on="1"/>
      </contour>
    </TTGlyph>
    <TTGlyph name="Abreve" xMin="0" yMin="0" xMax="740" yMax="984">
      <contour>
        <pt x="0" y="9" on="1"/>
        <pt x="243" y="740" on="1"/>
        <pt x="497" y="740" on="1"/>
        <pt x="740" y="9" on="1"/>
        <pt x="740" y="0" on="1"/>
        <pt x="575" y="0" on="1"/>
        <pt x="516" y="178" on="1"/>
        <pt x="223" y="178" on="1"/>
        <pt x="165" y="0" on="1"/>
        <pt x="0" y="0" on="1"/>
      </contour>
      <contour>
        <pt x="477" y="311" on="1"/>
        <pt x="422" y="477" on="1"/>
        <pt x="377" y="622" on="1"/>
        <pt x="362" y="622" on="1"/>
        <pt x="318" y="476" on="1"/>
        <pt x="263" y="311" on="1"/>
      </contour>
      <contour>
        <pt x="370" y="809" on="1"/>
        <pt x="311" y="809" on="0"/>
        <pt x="230" y="835" on="0"/>
        <pt x="178" y="882" on="0"/>
        <pt x="155" y="946" on="0"/>
        <pt x="155" y="984" on="1"/>
        <pt x="267" y="984" on="1"/>
        <pt x="267" y="938" on="0"/>
        <pt x="313" y="890" on="0"/>
        <pt x="370" y="890" on="1"/>
        <pt x="429" y="890" on="0"/>
        <pt x="474" y="938" on="0"/>
        <pt x="474" y="984" on="1"/>
        <pt x="587" y="984" on="1"/>
        <pt x="587" y="945" on="0"/>
        <pt x="563" y="881" on="0"/>
        <pt x="511" y="835" on="0"/>
        <pt x="428" y="809" on="0"/>
      </contour>
    </TTGlyph>
    <TTGlyph name="Abreve.sc" xMin="3" yMin="0" xMax="676" yMax="776">
      <contour>
        <pt x="340" y="630" on="1"/>
        <pt x="285" y="630" on="0"/>
        <pt x="209" y="653" on="0"/>
        <pt x="162" y="692" on="0"/>
        <pt x="141" y="745" on="0"/>
        <pt x="141" y="776" on="1"/>
        <pt x="247" y="776" on="1"/>
        <pt x="247" y="741" on="0"/>
        <pt x="287" y="704" on="0"/>
        <pt x="340" y="704" on="1"/>
        <pt x="393" y="704" on="0"/>
        <pt x="433" y="741" on="0"/>
        <pt x="433" y="776" on="1"/>
        <pt x="538" y="776" on="1"/>
        <pt x="538" y="744" on="0"/>
        <pt x="517" y="691" on="0"/>
        <pt x="470" y="652" on="0"/>
        <pt x="394" y="630" on="0"/>
      </contour>
      <contour>
        <pt x="3" y="8" on="1"/>
        <pt x="220" y="577" on="1"/>
        <pt x="460" y="577" on="1"/>
        <pt x="676" y="8" on="1"/>
        <pt x="676" y="0" on="1"/>
        <pt x="519" y="0" on="1"/>
        <pt x="470" y="121" on="1"/>
        <pt x="208" y="121" on="1"/>
        <pt x="160" y="0" on="1"/>
        <pt x="3" y="0" on="1"/>
      </contour>
      <contour>
        <pt x="437" y="235" on="1"/>
        <pt x="386" y="364" on="1"/>
        <pt x="346" y="467" on="1"/>
        <pt x="332" y="467" on="1"/>
        <pt x="292" y="363" on="1"/>
        <pt x="241" y="235" on="1"/>
      </contour>
    </TTGlyph>
    <TTGlyph name="Acircumflex" xMin="0" yMin="0" xMax="740" yMax="992">
      <contour>
        <pt x="0" y="9" on="1"/>
        <pt x="243" y="740" on="1"/>
        <pt x="497" y="740" on="1"/>
        <pt x="740" y="9" on="1"/>
        <pt x="740" y="0" on="1"/>
        <pt x="575" y="0" on="1"/>
        <pt x="516" y="178" on="1"/>
        <pt x="223" y="178" on="1"/>
        <pt x="165" y="0" on="1"/>
        <pt x="0" y="0" on="1"/>
      </contour>
      <contour>
        <pt x="477" y="311" on="1"/>
        <pt x="422" y="477" on="1"/>
        <pt x="377" y="622" on="1"/>
        <pt x="362" y="622" on="1"/>
        <pt x="318" y="476" on="1"/>
        <pt x="263" y="311" on="1"/>
      </contour>
      <contour>
        <pt x="174" y="915" on="1"/>
        <pt x="370" y="992" on="1"/>
        <pt x="569" y="915" on="1"/>
        <pt x="569" y="801" on="1"/>
        <pt x="371" y="878" on="1"/>
        <pt x="174" y="801" on="1"/>
      </contour>
    </TTGlyph>
    <TTGlyph name="Acircumflex.sc" xMin="3" yMin="0" xMax="676" yMax="788">
      <contour>
        <pt x="3" y="8" on="1"/>
        <pt x="220" y="577" on="1"/>
        <pt x="460" y="577" on="1"/>
        <pt x="676" y="8" on="1"/>
        <pt x="676" y="0" on="1"/>
        <pt x="519" y="0" on="1"/>
        <pt x="470" y="121" on="1"/>
        <pt x="208" y="121" on="1"/>
        <pt x="160" y="0" on="1"/>
        <pt x="3" y="0" on="1"/>
      </contour>
      <contour>
        <pt x="437" y="235" on="1"/>
        <pt x="386" y="364" on="1"/>
        <pt x="346" y="467" on="1"/>
        <pt x="332" y="467" on="1"/>
        <pt x="292" y="363" on="1"/>
        <pt x="241" y="235" on="1"/>
      </contour>
      <contour>
        <pt x="159" y="726" on="1"/>
        <pt x="340" y="788" on="1"/>
        <pt x="523" y="726" on="1"/>
        <pt x="523" y="622" on="1"/>
        <pt x="341" y="683" on="1"/>
        <pt x="159" y="622" on="1"/>
      </contour>
    </TTGlyph>
    <TTGlyph name="Adblgrave" xMin="0" yMin="0" xMax="740" yMax="978">
      <contour>
        <pt x="0" y="9" on="1"/>
        <pt x="243" y="740" on="1"/>
        <pt x="497" y="740" on="1"/>
        <pt x="740" y="9" on="1"/>
        <pt x="740" y="0" on="1"/>
        <pt x="575" y="0" on="1"/>
        <pt x="516" y="178" on="1"/>
        <pt x="223" y="178" on="1"/>
        <pt x="165" y="0" on="1"/>
        <pt x="0" y="0" on="1"/>
      </contour>
      <contour>
        <pt x="477" y="311" on="1"/>
        <pt x="422" y="477" on="1"/>
        <pt x="377" y="622" on="1"/>
        <pt x="362" y="622" on="1"/>
        <pt x="318" y="476" on="1"/>
        <pt x="263" y="311" on="1"/>
      </contour>
      <contour>
        <pt x="204" y="800" on="1"/>
        <pt x="86" y="978" on="1"/>
        <pt x="249" y="978" on="1"/>
        <pt x="316" y="811" on="1"/>
      </contour>
      <contour>
        <pt x="411" y="800" on="1"/>
        <pt x="293" y="978" on="1"/>
        <pt x="456" y="978" on="1"/>
        <pt x="523" y="811" on="1"/>
      </contour>
    </TTGlyph>
    <TTGlyph name="Adblgrave.sc" xMin="3" yMin="0" xMax="676" yMax="777">
      <contour>
        <pt x="3" y="8" on="1"/>
        <pt x="220" y="577" on="1"/>
        <pt x="460" y="577" on="1"/>
        <pt x="676" y="8" on="1"/>
        <pt x="676" y="0" on="1"/>
        <pt x="519" y="0" on="1"/>
        <pt x="470" y="121" on="1"/>
        <pt x="208" y="121" on="1"/>
        <pt x="160" y="0" on="1"/>
        <pt x="3" y="0" on="1"/>
      </contour>
      <contour>
        <pt x="437" y="235" on="1"/>
        <pt x="386" y="364" on="1"/>
        <pt x="346" y="467" on="1"/>
        <pt x="332" y="467" on="1"/>
        <pt x="292" y="363" on="1"/>
        <pt x="241" y="235" on="1"/>
      </contour>
      <contour>
        <pt x="76" y="777" on="1"/>
        <pt x="232" y="777" on="1"/>
        <pt x="290" y="634" on="1"/>
        <pt x="182" y="626" on="1"/>
      </contour>
      <contour>
        <pt x="266" y="777" on="1"/>
        <pt x="422" y="777" on="1"/>
        <pt x="480" y="634" on="1"/>
        <pt x="373" y="626" on="1"/>
      </contour>
    </TTGlyph>
    <TTGlyph name="Adieresis" xMin="0" yMin="0" xMax="740" yMax="985">
      <contour>
        <pt x="0" y="9" on="1"/>
        <pt x="243" y="740" on="1"/>
        <pt x="497" y="740" on="1"/>
        <pt x="740" y="9" on="1"/>
        <pt x="740" y="0" on="1"/>
        <pt x="575" y="0" on="1"/>
        <pt x="516" y="178" on="1"/>
        <pt x="223" y="178" on="1"/>
        <pt x="165" y="0" on="1"/>
        <pt x="0" y="0" on="1"/>
      </contour>
      <contour>
        <pt x="477" y="311" on="1"/>
        <pt x="422" y="477" on="1"/>
        <pt x="377" y="622" on="1"/>
        <pt x="362" y="622" on="1"/>
        <pt x="318" y="476" on="1"/>
        <pt x="263" y="311" on="1"/>
      </contour>
      <contour>
        <pt x="226" y="805" on="1"/>
        <pt x="177" y="805" on="0"/>
        <pt x="133" y="847" on="0"/>
        <pt x="133" y="895" on="1"/>
        <pt x="133" y="943" on="0"/>
        <pt x="177" y="985" on="0"/>
        <pt x="226" y="985" on="1"/>
        <pt x="276" y="985" on="0"/>
        <pt x="318" y="941" on="0"/>
        <pt x="318" y="895" on="1"/>
        <pt x="318" y="848" on="0"/>
        <pt x="276" y="805" on="0"/>
      </contour>
      <contour>
        <pt x="514" y="805" on="1"/>
        <pt x="464" y="805" on="0"/>
        <pt x="422" y="847" on="0"/>
        <pt x="422" y="895" on="1"/>
        <pt x="422" y="943" on="0"/>
        <pt x="464" y="985" on="0"/>
        <pt x="514" y="985" on="1"/>
        <pt x="564" y="985" on="0"/>
        <pt x="607" y="941" on="0"/>
        <pt x="607" y="895" on="1"/>
        <pt x="607" y="848" on="0"/>
        <pt x="564" y="805" on="0"/>
      </contour>
    </TTGlyph>
    <TTGlyph name="Adieresis.sc" xMin="3" yMin="0" xMax="676" yMax="789">
      <contour>
        <pt x="208" y="623" on="1"/>
        <pt x="162" y="623" on="0"/>
        <pt x="122" y="662" on="0"/>
        <pt x="122" y="706" on="1"/>
        <pt x="122" y="749" on="0"/>
        <pt x="162" y="789" on="0"/>
        <pt x="208" y="789" on="1"/>
        <pt x="256" y="789" on="0"/>
        <pt x="296" y="748" on="0"/>
        <pt x="296" y="706" on="1"/>
        <pt x="296" y="663" on="0"/>
        <pt x="256" y="623" on="0"/>
      </contour>
      <contour>
        <pt x="471" y="623" on="1"/>
        <pt x="423" y="623" on="0"/>
        <pt x="384" y="662" on="0"/>
        <pt x="384" y="706" on="1"/>
        <pt x="384" y="749" on="0"/>
        <pt x="423" y="789" on="0"/>
        <pt x="471" y="789" on="1"/>
        <pt x="518" y="789" on="0"/>
        <pt x="557" y="748" on="0"/>
        <pt x="557" y="706" on="1"/>
        <pt x="557" y="663" on="0"/>
        <pt x="518" y="623" on="0"/>
      </contour>
      <contour>
        <pt x="3" y="8" on="1"/>
        <pt x="220" y="577" on="1"/>
        <pt x="460" y="577" on="1"/>
        <pt x="676" y="8" on="1"/>
        <pt x="676" y="0" on="1"/>
        <pt x="519" y="0" on="1"/>
        <pt x="470" y="121" on="1"/>
        <pt x="208" y="121" on="1"/>
        <pt x="160" y="0" on="1"/>
        <pt x="3" y="0" on="1"/>
      </contour>
      <contour>
        <pt x="437" y="235" on="1"/>
        <pt x="386" y="364" on="1"/>
        <pt x="346" y="467" on="1"/>
        <pt x="332" y="467" on="1"/>
        <pt x="292" y="363" on="1"/>
        <pt x="241" y="235" on="1"/>
      </contour>
    </TTGlyph>
    <TTGlyph name="Agrave" xMin="0" yMin="0" xMax="740" yMax="981">
      <contour>
        <pt x="0" y="9" on="1"/>
        <pt x="243" y="740" on="1"/>
        <pt x="497" y="740" on="1"/>
        <pt x="740" y="9" on="1"/>
        <pt x="740" y="0" on="1"/>
        <pt x="575" y="0" on="1"/>
        <pt x="516" y="178" on="1"/>
        <pt x="223" y="178" on="1"/>
        <pt x="165" y="0" on="1"/>
        <pt x="0" y="0" on="1"/>
      </contour>
      <contour>
        <pt x="477" y="311" on="1"/>
        <pt x="422" y="477" on="1"/>
        <pt x="377" y="622" on="1"/>
        <pt x="362" y="622" on="1"/>
        <pt x="318" y="476" on="1"/>
        <pt x="263" y="311" on="1"/>
      </contour>
      <contour>
        <pt x="298" y="802" on="1"/>
        <pt x="180" y="981" on="1"/>
        <pt x="352" y="981" on="1"/>
        <pt x="419" y="813" on="1"/>
      </contour>
    </TTGlyph>
    <TTGlyph name="Agrave.sc" xMin="3" yMin="0" xMax="676" yMax="777">
      <contour>
        <pt x="3" y="8" on="1"/>
        <pt x="220" y="577" on="1"/>
        <pt x="460" y="577" on="1"/>
        <pt x="676" y="8" on="1"/>
        <pt x="676" y="0" on="1"/>
        <pt x="519" y="0" on="1"/>
        <pt x="470" y="121" on="1"/>
        <pt x="208" y="121" on="1"/>
        <pt x="160" y="0" on="1"/>
        <pt x="3" y="0" on="1"/>
      </contour>
      <contour>
        <pt x="437" y="235" on="1"/>
        <pt x="386" y="364" on="1"/>
        <pt x="346" y="467" on="1"/>
        <pt x="332" y="467" on="1"/>
        <pt x="292" y="363" on="1"/>
        <pt x="241" y="235" on="1"/>
      </contour>
      <contour>
        <pt x="270" y="627" on="1"/>
        <pt x="163" y="777" on="1"/>
        <pt x="326" y="777" on="1"/>
        <pt x="384" y="635" on="1"/>
      </contour>
    </TTGlyph>
    <TTGlyph name="Ainvertedbreve" xMin="0" yMin="0" xMax="740" yMax="992">
      <contour>
        <pt x="0" y="9" on="1"/>
        <pt x="243" y="740" on="1"/>
        <pt x="497" y="740" on="1"/>
        <pt x="740" y="9" on="1"/>
        <pt x="740" y="0" on="1"/>
        <pt x="575" y="0" on="1"/>
        <pt x="516" y="178" on="1"/>
        <pt x="223" y="178" on="1"/>
        <pt x="165" y="0" on="1"/>
        <pt x="0" y="0" on="1"/>
      </contour>
      <contour>
        <pt x="477" y="311" on="1"/>
        <pt x="422" y="477" on="1"/>
        <pt x="377" y="622" on="1"/>
        <pt x="362" y="622" on="1"/>
        <pt x="318" y="476" on="1"/>
        <pt x="263" y="311" on="1"/>
      </contour>
      <contour>
        <pt x="474" y="817" on="1"/>
        <pt x="474" y="863" on="0"/>
        <pt x="428" y="910" on="0"/>
        <pt x="370" y="910" on="1"/>
        <pt x="313" y="910" on="0"/>
        <pt x="267" y="863" on="0"/>
        <pt x="267" y="817" on="1"/>
        <pt x="154" y="817" on="1"/>
        <pt x="154" y="855" on="0"/>
        <pt x="178" y="919" on="0"/>
        <pt x="229" y="966" on="0"/>
        <pt x="311" y="992" on="0"/>
        <pt x="370" y="992" on="1"/>
        <pt x="428" y="992" on="0"/>
        <pt x="511" y="966" on="0"/>
        <pt x="563" y="920" on="0"/>
        <pt x="587" y="856" on="0"/>
        <pt x="587" y="817" on="1"/>
      </contour>
    </TTGlyph>
    <TTGlyph name="Ainvertedbreve.sc" xMin="3" yMin="0" xMax="676" yMax="783">
      <contour>
        <pt x="141" y="638" on="1"/>
        <pt x="141" y="668" on="0"/>
        <pt x="162" y="721" on="0"/>
        <pt x="209" y="760" on="0"/>
        <pt x="285" y="783" on="0"/>
        <pt x="340" y="783" on="1"/>
        <pt x="395" y="783" on="0"/>
        <pt x="470" y="761" on="0"/>
        <pt x="517" y="723" on="0"/>
        <pt x="538" y="669" on="0"/>
        <pt x="538" y="638" on="1"/>
        <pt x="433" y="638" on="1"/>
        <pt x="433" y="673" on="0"/>
        <pt x="393" y="709" on="0"/>
        <pt x="340" y="709" on="1"/>
        <pt x="287" y="709" on="0"/>
        <pt x="247" y="673" on="0"/>
        <pt x="247" y="638" on="1"/>
      </contour>
      <contour>
        <pt x="3" y="8" on="1"/>
        <pt x="220" y="577" on="1"/>
        <pt x="460" y="577" on="1"/>
        <pt x="676" y="8" on="1"/>
        <pt x="676" y="0" on="1"/>
        <pt x="519" y="0" on="1"/>
        <pt x="470" y="121" on="1"/>
        <pt x="208" y="121" on="1"/>
        <pt x="160" y="0" on="1"/>
        <pt x="3" y="0" on="1"/>
      </contour>
      <contour>
        <pt x="437" y="235" on="1"/>
        <pt x="386" y="364" on="1"/>
        <pt x="346" y="467" on="1"/>
        <pt x="332" y="467" on="1"/>
        <pt x="292" y="363" on="1"/>
        <pt x="241" y="235" on="1"/>
      </contour>
    </TTGlyph>
    <TTGlyph name="Amacron" xMin="0" yMin="0" xMax="740" yMax="953">
      <contour>
        <pt x="0" y="9" on="1"/>
        <pt x="243" y="740" on="1"/>
        <pt x="497" y="740" on="1"/>
        <pt x="740" y="9" on="1"/>
        <pt x="740" y="0" on="1"/>
        <pt x="575" y="0" on="1"/>
        <pt x="516" y="178" on="1"/>
        <pt x="223" y="178" on="1"/>
        <pt x="165" y="0" on="1"/>
        <pt x="0" y="0" on="1"/>
      </contour>
      <contour>
        <pt x="477" y="311" on="1"/>
        <pt x="422" y="477" on="1"/>
        <pt x="377" y="622" on="1"/>
        <pt x="362" y="622" on="1"/>
        <pt x="318" y="476" on="1"/>
        <pt x="263" y="311" on="1"/>
      </contour>
      <contour>
        <pt x="175" y="953" on="1"/>
        <pt x="564" y="953" on="1"/>
        <pt x="564" y="841" on="1"/>
        <pt x="175" y="841" on="1"/>
      </contour>
    </TTGlyph>
    <TTGlyph name="Amacron.sc" xMin="3" yMin="0" xMax="676" yMax="760">
      <contour>
        <pt x="3" y="8" on="1"/>
        <pt x="220" y="577" on="1"/>
        <pt x="460" y="577" on="1"/>
        <pt x="676" y="8" on="1"/>
        <pt x="676" y="0" on="1"/>
        <pt x="519" y="0" on="1"/>
        <pt x="470" y="121" on="1"/>
        <pt x="208" y="121" on="1"/>
        <pt x="160" y="0" on="1"/>
        <pt x="3" y="0" on="1"/>
      </contour>
      <contour>
        <pt x="437" y="235" on="1"/>
        <pt x="386" y="364" on="1"/>
        <pt x="346" y="467" on="1"/>
        <pt x="332" y="467" on="1"/>
        <pt x="292" y="363" on="1"/>
        <pt x="241" y="235" on="1"/>
      </contour>
      <contour>
        <pt x="160" y="760" on="1"/>
        <pt x="519" y="760" on="1"/>
        <pt x="519" y="656" on="1"/>
        <pt x="160" y="656" on="1"/>
      </contour>
    </TTGlyph>
    <TTGlyph name="Aogonek" xMin="0" yMin="-220" xMax="741" yMax="740">
      <contour>
        <pt x="653" y="-220" on="1"/>
        <pt x="584" y="-220" on="0"/>
        <pt x="512" y="-173" on="0"/>
        <pt x="512" y="-128" on="1"/>
        <pt x="512" y="-93" on="0"/>
        <pt x="558" y="-28" on="0"/>
        <pt x="603" y="0" on="1"/>
        <pt x="575" y="0" on="1"/>
        <pt x="516" y="178" on="1"/>
        <pt x="223" y="178" on="1"/>
        <pt x="165" y="0" on="1"/>
        <pt x="0" y="0" on="1"/>
        <pt x="0" y="9" on="1"/>
        <pt x="243" y="740" on="1"/>
        <pt x="497" y="740" on="1"/>
        <pt x="740" y="9" on="1"/>
        <pt x="740" y="-10" on="1"/>
        <pt x="674" y="-38" on="0"/>
        <pt x="620" y="-83" on="0"/>
        <pt x="620" y="-105" on="1"/>
        <pt x="620" y="-130" on="0"/>
        <pt x="655" y="-130" on="1"/>
        <pt x="669" y="-130" on="0"/>
        <pt x="719" y="-122" on="0"/>
        <pt x="741" y="-116" on="1"/>
        <pt x="741" y="-208" on="1"/>
        <pt x="702" y="-220" on="0"/>
      </contour>
      <contour>
        <pt x="477" y="311" on="1"/>
        <pt x="422" y="477" on="1"/>
        <pt x="377" y="622" on="1"/>
        <pt x="362" y="622" on="1"/>
        <pt x="318" y="476" on="1"/>
        <pt x="263" y="311" on="1"/>
      </contour>
    </TTGlyph>
    <TTGlyph name="Aogonek.sc" xMin="2" yMin="-170" xMax="677" yMax="577">
      <contour>
        <pt x="596" y="-170" on="1"/>
        <pt x="533" y="-170" on="0"/>
        <pt x="466" y="-130" on="0"/>
        <pt x="466" y="-95" on="1"/>
        <pt x="466" y="-69" on="0"/>
        <pt x="504" y="-17" on="0"/>
        <pt x="538" y="0" on="1"/>
        <pt x="518" y="0" on="1"/>
        <pt x="470" y="121" on="1"/>
        <pt x="208" y="121" on="1"/>
        <pt x="159" y="0" on="1"/>
        <pt x="2" y="0" on="1"/>
        <pt x="2" y="8" on="1"/>
        <pt x="219" y="577" on="1"/>
        <pt x="459" y="577" on="1"/>
        <pt x="676" y="8" on="1"/>
        <pt x="676" y="-5" on="1"/>
        <pt x="642" y="-17" on="0"/>
        <pt x="600" y="-36" on="0"/>
        <pt x="576" y="-52" on="0"/>
        <pt x="568" y="-64" on="0"/>
        <pt x="568" y="-70" on="1"/>
        <pt x="568" y="-80" on="0"/>
        <pt x="583" y="-86" on="0"/>
        <pt x="597" y="-86" on="1"/>
        <pt x="604" y="-86" on="0"/>
        <pt x="625" y="-85" on="0"/>
        <pt x="647" y="-82" on="0"/>
        <pt x="669" y="-78" on="0"/>
        <pt x="677" y="-76" on="1"/>
        <pt x="677" y="-161" on="1"/>
        <pt x="636" y="-170" on="0"/>
      </contour>
      <contour>
        <pt x="436" y="235" on="1"/>
        <pt x="386" y="366" on="1"/>
        <pt x="345" y="467" on="1"/>
        <pt x="331" y="467" on="1"/>
        <pt x="292" y="364" on="1"/>
        <pt x="240" y="235" on="1"/>
      </contour>
    </TTGlyph>
    <TTGlyph name="Aring" xMin="0" yMin="0" xMax="740" yMax="1006">
      <contour>
        <pt x="0" y="9" on="1"/>
        <pt x="243" y="740" on="1"/>
        <pt x="497" y="740" on="1"/>
        <pt x="740" y="9" on="1"/>
        <pt x="740" y="0" on="1"/>
        <pt x="575" y="0" on="1"/>
        <pt x="516" y="178" on="1"/>
        <pt x="223" y="178" on="1"/>
        <pt x="165" y="0" on="1"/>
        <pt x="0" y="0" on="1"/>
      </contour>
      <contour>
        <pt x="477" y="311" on="1"/>
        <pt x="422" y="477" on="1"/>
        <pt x="377" y="622" on="1"/>
        <pt x="362" y="622" on="1"/>
        <pt x="318" y="476" on="1"/>
        <pt x="263" y="311" on="1"/>
      </contour>
      <contour>
        <pt x="371" y="778" on="1"/>
        <pt x="313" y="778" on="0"/>
        <pt x="238" y="840" on="0"/>
        <pt x="238" y="891" on="1"/>
        <pt x="238" y="916" on="0"/>
        <pt x="258" y="958" on="0"/>
        <pt x="293" y="989" on="0"/>
        <pt x="342" y="1006" on="0"/>
        <pt x="371" y="1006" on="1"/>
        <pt x="400" y="1006" on="0"/>
        <pt x="449" y="989" on="0"/>
        <pt x="484" y="958" on="0"/>
        <pt x="504" y="916" on="0"/>
        <pt x="504" y="891" on="1"/>
        <pt x="504" y="840" on="0"/>
        <pt x="429" y="778" on="0"/>
      </contour>
      <contour>
        <pt x="371" y="836" on="1"/>
        <pt x="406" y="836" on="0"/>
        <pt x="436" y="863" on="0"/>
        <pt x="436" y="891" on="1"/>
        <pt x="436" y="920" on="0"/>
        <pt x="406" y="947" on="0"/>
        <pt x="371" y="947" on="1"/>
        <pt x="336" y="947" on="0"/>
        <pt x="306" y="920" on="0"/>
        <pt x="306" y="891" on="1"/>
        <pt x="306" y="863" on="0"/>
        <pt x="336" y="836" on="0"/>
      </contour>
    </TTGlyph>
    <TTGlyph name="Aring.sc" xMin="3" yMin="0" xMax="676" yMax="794">
      <contour>
        <pt x="3" y="8" on="1"/>
        <pt x="220" y="577" on="1"/>
        <pt x="460" y="577" on="1"/>
        <pt x="676" y="8" on="1"/>
        <pt x="676" y="0" on="1"/>
        <pt x="519" y="0" on="1"/>
        <pt x="470" y="121" on="1"/>
        <pt x="208" y="121" on="1"/>
        <pt x="160" y="0" on="1"/>
        <pt x="3" y="0" on="1"/>
      </contour>
      <contour>
        <pt x="437" y="235" on="1"/>
        <pt x="386" y="364" on="1"/>
        <pt x="346" y="467" on="1"/>
        <pt x="332" y="467" on="1"/>
        <pt x="292" y="363" on="1"/>
        <pt x="241" y="235" on="1"/>
      </contour>
      <contour>
        <pt x="340" y="612" on="1"/>
        <pt x="288" y="612" on="0"/>
        <pt x="219" y="661" on="0"/>
        <pt x="219" y="702" on="1"/>
        <pt x="219" y="743" on="0"/>
        <pt x="288" y="794" on="0"/>
        <pt x="340" y="794" on="1"/>
        <pt x="393" y="794" on="0"/>
        <pt x="461" y="743" on="0"/>
        <pt x="461" y="702" on="1"/>
        <pt x="461" y="661" on="0"/>
        <pt x="393" y="612" on="0"/>
      </contour>
      <contour>
        <pt x="340" y="663" on="1"/>
        <pt x="372" y="663" on="0"/>
        <pt x="397" y="682" on="0"/>
        <pt x="397" y="702" on="1"/>
        <pt x="397" y="723" on="0"/>
        <pt x="372" y="743" on="0"/>
        <pt x="340" y="743" on="1"/>
        <pt x="308" y="743" on="0"/>
        <pt x="283" y="723" on="0"/>
        <pt x="283" y="702" on="1"/>
        <pt x="283" y="682" on="0"/>
        <pt x="308" y="663" on="0"/>
      </contour>
    </TTGlyph>
    <TTGlyph name="Aringacute" xMin="0" yMin="0" xMax="740" yMax="1006">
      <contour>
        <pt x="0" y="9" on="1"/>
        <pt x="223" y="674" on="1"/>
        <pt x="190" y="707" on="0"/>
        <pt x="190" y="756" on="1"/>
        <pt x="190" y="809" on="0"/>
        <pt x="261" y="881" on="0"/>
        <pt x="322" y="892" on="1"/>
        <pt x="370" y="1006" on="1"/>
        <pt x="541" y="1006" on="1"/>
        <pt x="459" y="881" on="1"/>
        <pt x="502" y="864" on="0"/>
        <pt x="553" y="799" on="0"/>
        <pt x="553" y="756" on="1"/>
        <pt x="553" y="730" on="0"/>
        <pt x="534" y="688" on="0"/>
        <pt x="517" y="671" on="1"/>
        <pt x="740" y="9" on="1"/>
        <pt x="740" y="0" on="1"/>
        <pt x="575" y="0" on="1"/>
        <pt x="517" y="175" on="1"/>
        <pt x="222" y="175" on="1"/>
        <pt x="165" y="0" on="1"/>
        <pt x="0" y="0" on="1"/>
      </contour>
      <contour>
        <pt x="370" y="694" on="1"/>
        <pt x="408" y="694" on="0"/>
        <pt x="453" y="728" on="0"/>
        <pt x="453" y="756" on="1"/>
        <pt x="453" y="785" on="0"/>
        <pt x="408" y="818" on="0"/>
        <pt x="370" y="818" on="1"/>
        <pt x="333" y="818" on="0"/>
        <pt x="291" y="785" on="0"/>
        <pt x="291" y="756" on="1"/>
        <pt x="291" y="727" on="0"/>
        <pt x="334" y="694" on="0"/>
      </contour>
      <contour>
        <pt x="475" y="314" on="1"/>
        <pt x="422" y="477" on="1"/>
        <pt x="384" y="603" on="1"/>
        <pt x="355" y="603" on="1"/>
        <pt x="317" y="476" on="1"/>
        <pt x="264" y="314" on="1"/>
      </contour>
    </TTGlyph>
    <TTGlyph name="Aringacute.sc" xMin="3" yMin="0" xMax="677" yMax="797">
      <contour>
        <pt x="3" y="8" on="1"/>
        <pt x="202" y="530" on="1"/>
        <pt x="174" y="555" on="0"/>
        <pt x="174" y="592" on="1"/>
        <pt x="174" y="636" on="0"/>
        <pt x="238" y="695" on="0"/>
        <pt x="294" y="705" on="1"/>
        <pt x="336" y="797" on="1"/>
        <pt x="498" y="797" on="1"/>
        <pt x="424" y="694" on="1"/>
        <pt x="463" y="680" on="0"/>
        <pt x="509" y="627" on="0"/>
        <pt x="509" y="592" on="1"/>
        <pt x="509" y="554" on="0"/>
        <pt x="478" y="526" on="1"/>
        <pt x="677" y="8" on="1"/>
        <pt x="677" y="0" on="1"/>
        <pt x="519" y="0" on="1"/>
        <pt x="470" y="121" on="1"/>
        <pt x="208" y="121" on="1"/>
        <pt x="160" y="0" on="1"/>
        <pt x="3" y="0" on="1"/>
      </contour>
      <contour>
        <pt x="340" y="546" on="1"/>
        <pt x="374" y="546" on="0"/>
        <pt x="414" y="572" on="0"/>
        <pt x="414" y="592" on="1"/>
        <pt x="414" y="613" on="0"/>
        <pt x="374" y="638" on="0"/>
        <pt x="340" y="638" on="1"/>
        <pt x="307" y="638" on="0"/>
        <pt x="269" y="613" on="0"/>
        <pt x="269" y="592" on="1"/>
        <pt x="269" y="571" on="0"/>
        <pt x="308" y="546" on="0"/>
      </contour>
      <contour>
        <pt x="438" y="235" on="1"/>
        <pt x="386" y="364" on="1"/>
        <pt x="351" y="462" on="1"/>
        <pt x="327" y="462" on="1"/>
        <pt x="293" y="363" on="1"/>
        <pt x="242" y="235" on="1"/>
      </contour>
    </TTGlyph>
    <TTGlyph name="Atilde" xMin="0" yMin="0" xMax="740" yMax="974">
      <contour>
        <pt x="0" y="9" on="1"/>
        <pt x="243" y="740" on="1"/>
        <pt x="497" y="740" on="1"/>
        <pt x="740" y="9" on="1"/>
        <pt x="740" y="0" on="1"/>
        <pt x="575" y="0" on="1"/>
        <pt x="516" y="178" on="1"/>
        <pt x="223" y="178" on="1"/>
        <pt x="165" y="0" on="1"/>
        <pt x="0" y="0" on="1"/>
      </contour>
      <contour>
        <pt x="477" y="311" on="1"/>
        <pt x="422" y="477" on="1"/>
        <pt x="377" y="622" on="1"/>
        <pt x="362" y="622" on="1"/>
        <pt x="318" y="476" on="1"/>
        <pt x="263" y="311" on="1"/>
      </contour>
      <contour>
        <pt x="142" y="857" on="1"/>
        <pt x="175" y="916" on="0"/>
        <pt x="259" y="974" on="0"/>
        <pt x="298" y="974" on="1"/>
        <pt x="323" y="974" on="0"/>
        <pt x="372" y="962" on="0"/>
        <pt x="420" y="948" on="0"/>
        <pt x="468" y="936" on="0"/>
        <pt x="493" y="936" on="1"/>
        <pt x="516" y="936" on="0"/>
        <pt x="560" y="951" on="0"/>
        <pt x="588" y="973" on="1"/>
        <pt x="611" y="942" on="1"/>
        <pt x="578" y="883" on="0"/>
        <pt x="493" y="824" on="0"/>
        <pt x="453" y="824" on="1"/>
        <pt x="428" y="824" on="0"/>
        <pt x="380" y="836" on="0"/>
        <pt x="332" y="850" on="0"/>
        <pt x="283" y="862" on="0"/>
        <pt x="259" y="862" on="1"/>
        <pt x="236" y="862" on="0"/>
        <pt x="191" y="847" on="0"/>
        <pt x="165" y="826" on="1"/>
      </contour>
    </TTGlyph>
    <TTGlyph name="Atilde.sc" xMin="3" yMin="0" xMax="676" yMax="775">
      <contour>
        <pt x="3" y="8" on="1"/>
        <pt x="220" y="577" on="1"/>
        <pt x="460" y="577" on="1"/>
        <pt x="676" y="8" on="1"/>
        <pt x="676" y="0" on="1"/>
        <pt x="519" y="0" on="1"/>
        <pt x="470" y="121" on="1"/>
        <pt x="208" y="121" on="1"/>
        <pt x="160" y="0" on="1"/>
        <pt x="3" y="0" on="1"/>
      </contour>
      <contour>
        <pt x="437" y="235" on="1"/>
        <pt x="386" y="364" on="1"/>
        <pt x="346" y="467" on="1"/>
        <pt x="332" y="467" on="1"/>
        <pt x="292" y="363" on="1"/>
        <pt x="241" y="235" on="1"/>
      </contour>
      <contour>
        <pt x="130" y="668" on="1"/>
        <pt x="160" y="722" on="0"/>
        <pt x="238" y="775" on="0"/>
        <pt x="274" y="775" on="1"/>
        <pt x="297" y="775" on="0"/>
        <pt x="342" y="766" on="0"/>
        <pt x="386" y="755" on="0"/>
        <pt x="429" y="746" on="0"/>
        <pt x="452" y="746" on="1"/>
        <pt x="473" y="746" on="0"/>
        <pt x="513" y="757" on="0"/>
        <pt x="539" y="774" on="1"/>
        <pt x="560" y="748" on="1"/>
        <pt x="529" y="694" on="0"/>
        <pt x="450" y="642" on="0"/>
        <pt x="415" y="642" on="1"/>
        <pt x="392" y="642" on="0"/>
        <pt x="347" y="651" on="0"/>
        <pt x="303" y="662" on="0"/>
        <pt x="258" y="671" on="0"/>
        <pt x="236" y="671" on="1"/>
        <pt x="215" y="671" on="0"/>
        <pt x="175" y="659" on="0"/>
        <pt x="151" y="642" on="1"/>
      </contour>
    </TTGlyph>
    <TTGlyph name="B" xMin="72" yMin="-10" xMax="679" yMax="750">
      <contour>
        <pt x="362" y="-10" on="1"/>
        <pt x="291" y="-10" on="0"/>
        <pt x="150" y="-3" on="0"/>
        <pt x="72" y="5" on="1"/>
        <pt x="72" y="735" on="1"/>
        <pt x="149" y="743" on="0"/>
        <pt x="277" y="750" on="0"/>
        <pt x="339" y="750" on="1"/>
        <pt x="505" y="750" on="0"/>
        <pt x="655" y="650" on="0"/>
        <pt x="655" y="542" on="1"/>
        <pt x="655" y="479" on="0"/>
        <pt x="591" y="397" on="0"/>
        <pt x="528" y="382" on="1"/>
        <pt x="528" y="378" on="1"/>
        <pt x="602" y="364" on="0"/>
        <pt x="679" y="273" on="0"/>
        <pt x="679" y="201" on="1"/>
        <pt x="679" y="93" on="0"/>
        <pt x="524" y="-10" on="0"/>
      </contour>
      <contour>
        <pt x="360" y="111" on="1"/>
        <pt x="509" y="111" on="0"/>
        <pt x="509" y="216" on="1"/>
        <pt x="509" y="270" on="0"/>
        <pt x="442" y="318" on="0"/>
        <pt x="364" y="318" on="1"/>
        <pt x="234" y="318" on="1"/>
        <pt x="234" y="117" on="1"/>
        <pt x="243" y="115" on="0"/>
        <pt x="263" y="113" on="0"/>
        <pt x="291" y="111" on="0"/>
        <pt x="331" y="111" on="0"/>
      </contour>
      <contour>
        <pt x="353" y="430" on="1"/>
        <pt x="426" y="430" on="0"/>
        <pt x="486" y="475" on="0"/>
        <pt x="486" y="530" on="1"/>
        <pt x="486" y="584" on="0"/>
        <pt x="423" y="629" on="0"/>
        <pt x="348" y="629" on="1"/>
        <pt x="314" y="629" on="0"/>
        <pt x="258" y="626" on="0"/>
        <pt x="234" y="622" on="1"/>
        <pt x="234" y="430" on="1"/>
      </contour>
    </TTGlyph>
    <TTGlyph name="B.sc" xMin="68" yMin="-8" xMax="623" yMax="585">
      <contour>
        <pt x="339" y="-8" on="1"/>
        <pt x="272" y="-8" on="0"/>
        <pt x="141" y="-2" on="0"/>
        <pt x="68" y="4" on="1"/>
        <pt x="68" y="573" on="1"/>
        <pt x="137" y="579" on="0"/>
        <pt x="257" y="585" on="0"/>
        <pt x="314" y="585" on="1"/>
        <pt x="465" y="585" on="0"/>
        <pt x="602" y="505" on="0"/>
        <pt x="602" y="420" on="1"/>
        <pt x="602" y="326" on="0"/>
        <pt x="487" y="298" on="1"/>
        <pt x="487" y="295" on="1"/>
        <pt x="553" y="284" on="0"/>
        <pt x="623" y="215" on="0"/>
        <pt x="623" y="159" on="1"/>
        <pt x="623" y="73" on="0"/>
        <pt x="485" y="-8" on="0"/>
      </contour>
      <contour>
        <pt x="335" y="101" on="1"/>
        <pt x="401" y="101" on="0"/>
        <pt x="464" y="137" on="0"/>
        <pt x="464" y="175" on="1"/>
        <pt x="464" y="213" on="0"/>
        <pt x="405" y="244" on="0"/>
        <pt x="339" y="244" on="1"/>
        <pt x="223" y="244" on="1"/>
        <pt x="223" y="105" on="1"/>
        <pt x="237" y="103" on="0"/>
        <pt x="282" y="101" on="0"/>
      </contour>
      <contour>
        <pt x="327" y="340" on="1"/>
        <pt x="390" y="340" on="0"/>
        <pt x="443" y="371" on="0"/>
        <pt x="443" y="409" on="1"/>
        <pt x="443" y="446" on="0"/>
        <pt x="389" y="476" on="0"/>
        <pt x="323" y="476" on="1"/>
        <pt x="294" y="476" on="0"/>
        <pt x="243" y="474" on="0"/>
        <pt x="223" y="471" on="1"/>
        <pt x="223" y="340" on="1"/>
      </contour>
    </TTGlyph>
    <TTGlyph name="C" xMin="39" yMin="-12" xMax="571" yMax="752">
      <contour>
        <pt x="410" y="-12" on="1"/>
        <pt x="221" y="-12" on="0"/>
        <pt x="39" y="175" on="0"/>
        <pt x="39" y="369" on="1"/>
        <pt x="39" y="564" on="0"/>
        <pt x="217" y="752" on="0"/>
        <pt x="398" y="752" on="1"/>
        <pt x="433" y="752" on="0"/>
        <pt x="517" y="745" on="0"/>
        <pt x="571" y="737" on="1"/>
        <pt x="571" y="600" on="1"/>
        <pt x="542" y="603" on="0"/>
        <pt x="498" y="608" on="0"/>
        <pt x="462" y="611" on="0"/>
        <pt x="433" y="613" on="0"/>
        <pt x="419" y="613" on="1"/>
        <pt x="361" y="613" on="0"/>
        <pt x="282" y="589" on="0"/>
        <pt x="234" y="533" on="0"/>
        <pt x="214" y="439" on="0"/>
        <pt x="214" y="369" on="1"/>
        <pt x="214" y="300" on="0"/>
        <pt x="235" y="208" on="0"/>
        <pt x="282" y="152" on="0"/>
        <pt x="359" y="128" on="0"/>
        <pt x="415" y="128" on="1"/>
        <pt x="431" y="128" on="0"/>
        <pt x="474" y="130" on="0"/>
        <pt x="517" y="135" on="0"/>
        <pt x="557" y="140" on="0"/>
        <pt x="571" y="143" on="1"/>
        <pt x="571" y="7" on="1"/>
        <pt x="535" y="-1" on="0"/>
        <pt x="449" y="-12" on="0"/>
      </contour>
    </TTGlyph>
    <TTGlyph name="C.sc" xMin="39" yMin="-11" xMax="521" yMax="587">
      <contour>
        <pt x="376" y="-11" on="1"/>
        <pt x="204" y="-10" on="0"/>
        <pt x="39" y="136" on="0"/>
        <pt x="39" y="288" on="1"/>
        <pt x="39" y="440" on="0"/>
        <pt x="199" y="587" on="0"/>
        <pt x="364" y="587" on="1"/>
        <pt x="399" y="587" on="0"/>
        <pt x="476" y="581" on="0"/>
        <pt x="521" y="576" on="1"/>
        <pt x="521" y="447" on="1"/>
        <pt x="477" y="452" on="0"/>
        <pt x="417" y="456" on="0"/>
        <pt x="384" y="456" on="1"/>
        <pt x="331" y="456" on="0"/>
        <pt x="262" y="441" on="0"/>
        <pt x="222" y="403" on="0"/>
        <pt x="206" y="338" on="0"/>
        <pt x="206" y="288" on="1"/>
        <pt x="206" y="239" on="0"/>
        <pt x="222" y="175" on="0"/>
        <pt x="262" y="137" on="0"/>
        <pt x="329" y="122" on="0"/>
        <pt x="381" y="122" on="1"/>
        <pt x="396" y="122" on="0"/>
        <pt x="434" y="124" on="0"/>
        <pt x="473" y="127" on="0"/>
        <pt x="509" y="130" on="0"/>
        <pt x="521" y="132" on="1"/>
        <pt x="521" y="4" on="1"/>
        <pt x="490" y="-3" on="0"/>
        <pt x="414" y="-11" on="0"/>
      </contour>
    </TTGlyph>
    <TTGlyph name="Cacute" xMin="39" yMin="-12" xMax="571" yMax="981">
      <contour>
        <pt x="410" y="-12" on="1"/>
        <pt x="221" y="-12" on="0"/>
        <pt x="39" y="175" on="0"/>
        <pt x="39" y="369" on="1"/>
        <pt x="39" y="564" on="0"/>
        <pt x="217" y="752" on="0"/>
        <pt x="398" y="752" on="1"/>
        <pt x="433" y="752" on="0"/>
        <pt x="517" y="745" on="0"/>
        <pt x="571" y="737" on="1"/>
        <pt x="571" y="600" on="1"/>
        <pt x="542" y="603" on="0"/>
        <pt x="498" y="608" on="0"/>
        <pt x="462" y="611" on="0"/>
        <pt x="433" y="613" on="0"/>
        <pt x="419" y="613" on="1"/>
        <pt x="361" y="613" on="0"/>
        <pt x="282" y="589" on="0"/>
        <pt x="234" y="533" on="0"/>
        <pt x="214" y="439" on="0"/>
        <pt x="214" y="369" on="1"/>
        <pt x="214" y="300" on="0"/>
        <pt x="235" y="208" on="0"/>
        <pt x="282" y="152" on="0"/>
        <pt x="359" y="128" on="0"/>
        <pt x="415" y="128" on="1"/>
        <pt x="431" y="128" on="0"/>
        <pt x="474" y="130" on="0"/>
        <pt x="517" y="135" on="0"/>
        <pt x="557" y="140" on="0"/>
        <pt x="571" y="143" on="1"/>
        <pt x="571" y="7" on="1"/>
        <pt x="535" y="-1" on="0"/>
        <pt x="449" y="-12" on="0"/>
      </contour>
      <contour>
        <pt x="277" y="810" on="1"/>
        <pt x="345" y="981" on="1"/>
        <pt x="516" y="981" on="1"/>
        <pt x="399" y="802" on="1"/>
      </contour>
    </TTGlyph>
    <TTGlyph name="Cacute.sc" xMin="39" yMin="-11" xMax="520" yMax="777">
      <contour>
        <pt x="376" y="-11" on="1"/>
        <pt x="204" y="-10" on="0"/>
        <pt x="39" y="136" on="0"/>
        <pt x="39" y="288" on="1"/>
        <pt x="39" y="440" on="0"/>
        <pt x="199" y="587" on="0"/>
        <pt x="364" y="587" on="1"/>
        <pt x="394" y="587" on="0"/>
        <pt x="469" y="582" on="0"/>
        <pt x="520" y="576" on="1"/>
        <pt x="520" y="447" on="1"/>
        <pt x="492" y="450" on="0"/>
        <pt x="452" y="454" on="0"/>
        <pt x="421" y="455" on="0"/>
        <pt x="396" y="456" on="0"/>
        <pt x="383" y="456" on="1"/>
        <pt x="332" y="456" on="0"/>
        <pt x="263" y="442" on="0"/>
        <pt x="222" y="405" on="0"/>
        <pt x="205" y="339" on="0"/>
        <pt x="205" y="288" on="1"/>
        <pt x="205" y="238" on="0"/>
        <pt x="222" y="174" on="0"/>
        <pt x="262" y="136" on="0"/>
        <pt x="330" y="122" on="0"/>
        <pt x="380" y="122" on="1"/>
        <pt x="395" y="122" on="0"/>
        <pt x="433" y="124" on="0"/>
        <pt x="472" y="127" on="0"/>
        <pt x="508" y="130" on="0"/>
        <pt x="520" y="132" on="1"/>
        <pt x="520" y="4" on="1"/>
        <pt x="487" y="-3" on="0"/>
        <pt x="411" y="-11" on="0"/>
      </contour>
      <contour>
        <pt x="251" y="634" on="1"/>
        <pt x="309" y="777" on="1"/>
        <pt x="472" y="777" on="1"/>
        <pt x="366" y="627" on="1"/>
      </contour>
    </TTGlyph>
    <TTGlyph name="Ccaron" xMin="39" yMin="-12" xMax="571" yMax="990">
      <contour>
        <pt x="410" y="-12" on="1"/>
        <pt x="221" y="-12" on="0"/>
        <pt x="39" y="175" on="0"/>
        <pt x="39" y="369" on="1"/>
        <pt x="39" y="564" on="0"/>
        <pt x="217" y="752" on="0"/>
        <pt x="398" y="752" on="1"/>
        <pt x="433" y="752" on="0"/>
        <pt x="517" y="745" on="0"/>
        <pt x="571" y="737" on="1"/>
        <pt x="571" y="600" on="1"/>
        <pt x="542" y="603" on="0"/>
        <pt x="498" y="608" on="0"/>
        <pt x="462" y="611" on="0"/>
        <pt x="433" y="613" on="0"/>
        <pt x="419" y="613" on="1"/>
        <pt x="361" y="613" on="0"/>
        <pt x="282" y="589" on="0"/>
        <pt x="234" y="533" on="0"/>
        <pt x="214" y="439" on="0"/>
        <pt x="214" y="369" on="1"/>
        <pt x="214" y="300" on="0"/>
        <pt x="235" y="208" on="0"/>
        <pt x="282" y="152" on="0"/>
        <pt x="359" y="128" on="0"/>
        <pt x="415" y="128" on="1"/>
        <pt x="431" y="128" on="0"/>
        <pt x="474" y="130" on="0"/>
        <pt x="517" y="135" on="0"/>
        <pt x="557" y="140" on="0"/>
        <pt x="571" y="143" on="1"/>
        <pt x="571" y="7" on="1"/>
        <pt x="535" y="-1" on="0"/>
        <pt x="449" y="-12" on="0"/>
      </contour>
      <contour>
        <pt x="150" y="990" on="1"/>
        <pt x="348" y="913" on="1"/>
        <pt x="545" y="990" on="1"/>
        <pt x="545" y="877" on="1"/>
        <pt x="346" y="800" on="1"/>
        <pt x="150" y="877" on="1"/>
      </contour>
    </TTGlyph>
    <TTGlyph name="Ccaron.sc" xMin="39" yMin="-11" xMax="520" yMax="787">
      <contour>
        <pt x="376" y="-11" on="1"/>
        <pt x="204" y="-10" on="0"/>
        <pt x="39" y="136" on="0"/>
        <pt x="39" y="288" on="1"/>
        <pt x="39" y="440" on="0"/>
        <pt x="199" y="587" on="0"/>
        <pt x="364" y="587" on="1"/>
        <pt x="394" y="587" on="0"/>
        <pt x="469" y="582" on="0"/>
        <pt x="520" y="576" on="1"/>
        <pt x="520" y="447" on="1"/>
        <pt x="492" y="450" on="0"/>
        <pt x="452" y="454" on="0"/>
        <pt x="421" y="455" on="0"/>
        <pt x="396" y="456" on="0"/>
        <pt x="383" y="456" on="1"/>
        <pt x="332" y="456" on="0"/>
        <pt x="263" y="442" on="0"/>
        <pt x="222" y="405" on="0"/>
        <pt x="205" y="339" on="0"/>
        <pt x="205" y="288" on="1"/>
        <pt x="205" y="238" on="0"/>
        <pt x="222" y="174" on="0"/>
        <pt x="262" y="136" on="0"/>
        <pt x="330" y="122" on="0"/>
        <pt x="380" y="122" on="1"/>
        <pt x="395" y="122" on="0"/>
        <pt x="433" y="124" on="0"/>
        <pt x="472" y="127" on="0"/>
        <pt x="508" y="130" on="0"/>
        <pt x="520" y="132" on="1"/>
        <pt x="520" y="4" on="1"/>
        <pt x="487" y="-3" on="0"/>
        <pt x="411" y="-11" on="0"/>
      </contour>
      <contour>
        <pt x="135" y="787" on="1"/>
        <pt x="316" y="726" on="1"/>
        <pt x="498" y="787" on="1"/>
        <pt x="498" y="683" on="1"/>
        <pt x="315" y="622" on="1"/>
        <pt x="135" y="683" on="1"/>
      </contour>
    </TTGlyph>
    <TTGlyph name="Ccedilla" xMin="39" yMin="-220" xMax="571" yMax="752">
      <contour>
        <pt x="335" y="-220" on="1"/>
        <pt x="313" y="-220" on="0"/>
        <pt x="259" y="-213" on="0"/>
        <pt x="232" y="-208" on="1"/>
        <pt x="232" y="-110" on="1"/>
        <pt x="251" y="-115" on="0"/>
        <pt x="294" y="-122" on="0"/>
        <pt x="311" y="-122" on="1"/>
        <pt x="336" y="-122" on="0"/>
        <pt x="355" y="-105" on="0"/>
        <pt x="355" y="-88" on="1"/>
        <pt x="355" y="-57" on="0"/>
        <pt x="319" y="-5" on="1"/>
        <pt x="176" y="15" on="0"/>
        <pt x="39" y="200" on="0"/>
        <pt x="39" y="369" on="1"/>
        <pt x="39" y="564" on="0"/>
        <pt x="217" y="752" on="0"/>
        <pt x="398" y="752" on="1"/>
        <pt x="433" y="752" on="0"/>
        <pt x="517" y="745" on="0"/>
        <pt x="571" y="737" on="1"/>
        <pt x="571" y="600" on="1"/>
        <pt x="542" y="603" on="0"/>
        <pt x="498" y="608" on="0"/>
        <pt x="462" y="611" on="0"/>
        <pt x="433" y="613" on="0"/>
        <pt x="419" y="613" on="1"/>
        <pt x="361" y="613" on="0"/>
        <pt x="282" y="589" on="0"/>
        <pt x="234" y="533" on="0"/>
        <pt x="214" y="439" on="0"/>
        <pt x="214" y="369" on="1"/>
        <pt x="214" y="300" on="0"/>
        <pt x="235" y="208" on="0"/>
        <pt x="282" y="152" on="0"/>
        <pt x="359" y="128" on="0"/>
        <pt x="415" y="128" on="1"/>
        <pt x="431" y="128" on="0"/>
        <pt x="474" y="130" on="0"/>
        <pt x="517" y="135" on="0"/>
        <pt x="557" y="140" on="0"/>
        <pt x="571" y="143" on="1"/>
        <pt x="571" y="7" on="1"/>
        <pt x="539" y="-1" on="0"/>
        <pt x="463" y="-10" on="0"/>
        <pt x="427" y="-12" on="1"/>
        <pt x="448" y="-41" on="0"/>
        <pt x="465" y="-85" on="0"/>
        <pt x="465" y="-108" on="1"/>
        <pt x="465" y="-162" on="0"/>
        <pt x="396" y="-220" on="0"/>
      </contour>
    </TTGlyph>
    <TTGlyph name="Ccedilla.sc" xMin="39" yMin="-172" xMax="521" yMax="587">
      <contour>
        <pt x="310" y="-172" on="1"/>
        <pt x="290" y="-172" on="0"/>
        <pt x="241" y="-166" on="0"/>
        <pt x="216" y="-162" on="1"/>
        <pt x="216" y="-73" on="1"/>
        <pt x="233" y="-77" on="0"/>
        <pt x="273" y="-82" on="0"/>
        <pt x="289" y="-82" on="1"/>
        <pt x="310" y="-82" on="0"/>
        <pt x="325" y="-71" on="0"/>
        <pt x="325" y="-63" on="1"/>
        <pt x="325" y="-54" on="0"/>
        <pt x="312" y="-26" on="0"/>
        <pt x="298" y="-6" on="1"/>
        <pt x="39" y="22" on="0"/>
        <pt x="39" y="288" on="1"/>
        <pt x="39" y="440" on="0"/>
        <pt x="200" y="587" on="0"/>
        <pt x="364" y="587" on="1"/>
        <pt x="395" y="587" on="0"/>
        <pt x="470" y="582" on="0"/>
        <pt x="521" y="576" on="1"/>
        <pt x="521" y="447" on="1"/>
        <pt x="493" y="450" on="0"/>
        <pt x="452" y="454" on="0"/>
        <pt x="421" y="455" on="0"/>
        <pt x="396" y="456" on="0"/>
        <pt x="384" y="456" on="1"/>
        <pt x="333" y="456" on="0"/>
        <pt x="264" y="442" on="0"/>
        <pt x="223" y="405" on="0"/>
        <pt x="206" y="339" on="0"/>
        <pt x="206" y="288" on="1"/>
        <pt x="206" y="238" on="0"/>
        <pt x="223" y="174" on="0"/>
        <pt x="263" y="136" on="0"/>
        <pt x="331" y="122" on="0"/>
        <pt x="381" y="122" on="1"/>
        <pt x="396" y="122" on="0"/>
        <pt x="434" y="124" on="0"/>
        <pt x="473" y="127" on="0"/>
        <pt x="509" y="130" on="0"/>
        <pt x="521" y="132" on="1"/>
        <pt x="521" y="4" on="1"/>
        <pt x="493" y="-2" on="0"/>
        <pt x="428" y="-9" on="0"/>
        <pt x="398" y="-10" on="1"/>
        <pt x="415" y="-33" on="0"/>
        <pt x="427" y="-66" on="0"/>
        <pt x="427" y="-84" on="1"/>
        <pt x="427" y="-126" on="0"/>
        <pt x="365" y="-172" on="0"/>
      </contour>
    </TTGlyph>
    <TTGlyph name="Ccircumflex" xMin="39" yMin="-12" xMax="571" yMax="992">
      <contour>
        <pt x="410" y="-12" on="1"/>
        <pt x="221" y="-12" on="0"/>
        <pt x="39" y="175" on="0"/>
        <pt x="39" y="369" on="1"/>
        <pt x="39" y="564" on="0"/>
        <pt x="217" y="752" on="0"/>
        <pt x="398" y="752" on="1"/>
        <pt x="433" y="752" on="0"/>
        <pt x="517" y="745" on="0"/>
        <pt x="571" y="737" on="1"/>
        <pt x="571" y="600" on="1"/>
        <pt x="542" y="603" on="0"/>
        <pt x="498" y="608" on="0"/>
        <pt x="462" y="611" on="0"/>
        <pt x="433" y="613" on="0"/>
        <pt x="419" y="613" on="1"/>
        <pt x="361" y="613" on="0"/>
        <pt x="282" y="589" on="0"/>
        <pt x="234" y="533" on="0"/>
        <pt x="214" y="439" on="0"/>
        <pt x="214" y="369" on="1"/>
        <pt x="214" y="300" on="0"/>
        <pt x="235" y="208" on="0"/>
        <pt x="282" y="152" on="0"/>
        <pt x="359" y="128" on="0"/>
        <pt x="415" y="128" on="1"/>
        <pt x="431" y="128" on="0"/>
        <pt x="474" y="130" on="0"/>
        <pt x="517" y="135" on="0"/>
        <pt x="557" y="140" on="0"/>
        <pt x="571" y="143" on="1"/>
        <pt x="571" y="7" on="1"/>
        <pt x="535" y="-1" on="0"/>
        <pt x="449" y="-12" on="0"/>
      </contour>
      <contour>
        <pt x="147" y="915" on="1"/>
        <pt x="343" y="992" on="1"/>
        <pt x="542" y="915" on="1"/>
        <pt x="542" y="801" on="1"/>
        <pt x="344" y="878" on="1"/>
        <pt x="147" y="801" on="1"/>
      </contour>
    </TTGlyph>
    <TTGlyph name="Ccircumflex.sc" xMin="39" yMin="-11" xMax="520" yMax="788">
      <contour>
        <pt x="376" y="-11" on="1"/>
        <pt x="204" y="-10" on="0"/>
        <pt x="39" y="136" on="0"/>
        <pt x="39" y="288" on="1"/>
        <pt x="39" y="440" on="0"/>
        <pt x="199" y="587" on="0"/>
        <pt x="364" y="587" on="1"/>
        <pt x="394" y="587" on="0"/>
        <pt x="469" y="582" on="0"/>
        <pt x="520" y="576" on="1"/>
        <pt x="520" y="447" on="1"/>
        <pt x="492" y="450" on="0"/>
        <pt x="452" y="454" on="0"/>
        <pt x="421" y="455" on="0"/>
        <pt x="396" y="456" on="0"/>
        <pt x="383" y="456" on="1"/>
        <pt x="332" y="456" on="0"/>
        <pt x="263" y="442" on="0"/>
        <pt x="222" y="405" on="0"/>
        <pt x="205" y="339" on="0"/>
        <pt x="205" y="288" on="1"/>
        <pt x="205" y="238" on="0"/>
        <pt x="222" y="174" on="0"/>
        <pt x="262" y="136" on="0"/>
        <pt x="330" y="122" on="0"/>
        <pt x="380" y="122" on="1"/>
        <pt x="395" y="122" on="0"/>
        <pt x="433" y="124" on="0"/>
        <pt x="472" y="127" on="0"/>
        <pt x="508" y="130" on="0"/>
        <pt x="520" y="132" on="1"/>
        <pt x="520" y="4" on="1"/>
        <pt x="487" y="-3" on="0"/>
        <pt x="411" y="-11" on="0"/>
      </contour>
      <contour>
        <pt x="132" y="726" on="1"/>
        <pt x="312" y="788" on="1"/>
        <pt x="495" y="726" on="1"/>
        <pt x="495" y="622" on="1"/>
        <pt x="314" y="683" on="1"/>
        <pt x="132" y="622" on="1"/>
      </contour>
    </TTGlyph>
    <TTGlyph name="Cdotaccent" xMin="39" yMin="-12" xMax="571" yMax="983">
      <contour>
        <pt x="360" y="802" on="1"/>
        <pt x="310" y="802" on="0"/>
        <pt x="267" y="844" on="0"/>
        <pt x="267" y="892" on="1"/>
        <pt x="267" y="940" on="0"/>
        <pt x="310" y="983" on="0"/>
        <pt x="360" y="983" on="1"/>
        <pt x="410" y="983" on="0"/>
        <pt x="452" y="939" on="0"/>
        <pt x="452" y="892" on="1"/>
        <pt x="452" y="846" on="0"/>
        <pt x="410" y="802" on="0"/>
      </contour>
      <contour>
        <pt x="410" y="-12" on="1"/>
        <pt x="221" y="-12" on="0"/>
        <pt x="39" y="175" on="0"/>
        <pt x="39" y="369" on="1"/>
        <pt x="39" y="564" on="0"/>
        <pt x="217" y="752" on="0"/>
        <pt x="398" y="752" on="1"/>
        <pt x="433" y="752" on="0"/>
        <pt x="517" y="745" on="0"/>
        <pt x="571" y="737" on="1"/>
        <pt x="571" y="600" on="1"/>
        <pt x="542" y="603" on="0"/>
        <pt x="498" y="608" on="0"/>
        <pt x="462" y="611" on="0"/>
        <pt x="433" y="613" on="0"/>
        <pt x="419" y="613" on="1"/>
        <pt x="361" y="613" on="0"/>
        <pt x="282" y="589" on="0"/>
        <pt x="234" y="533" on="0"/>
        <pt x="214" y="439" on="0"/>
        <pt x="214" y="369" on="1"/>
        <pt x="214" y="300" on="0"/>
        <pt x="235" y="208" on="0"/>
        <pt x="282" y="152" on="0"/>
        <pt x="359" y="128" on="0"/>
        <pt x="415" y="128" on="1"/>
        <pt x="431" y="128" on="0"/>
        <pt x="474" y="130" on="0"/>
        <pt x="517" y="135" on="0"/>
        <pt x="557" y="140" on="0"/>
        <pt x="571" y="143" on="1"/>
        <pt x="571" y="7" on="1"/>
        <pt x="535" y="-1" on="0"/>
        <pt x="449" y="-12" on="0"/>
      </contour>
    </TTGlyph>
    <TTGlyph name="Cdotaccent.sc" xMin="39" yMin="-11" xMax="520" yMax="788">
      <contour>
        <pt x="376" y="-11" on="1"/>
        <pt x="204" y="-10" on="0"/>
        <pt x="39" y="136" on="0"/>
        <pt x="39" y="288" on="1"/>
        <pt x="39" y="440" on="0"/>
        <pt x="199" y="587" on="0"/>
        <pt x="364" y="587" on="1"/>
        <pt x="394" y="587" on="0"/>
        <pt x="469" y="582" on="0"/>
        <pt x="520" y="576" on="1"/>
        <pt x="520" y="447" on="1"/>
        <pt x="492" y="450" on="0"/>
        <pt x="452" y="454" on="0"/>
        <pt x="421" y="455" on="0"/>
        <pt x="396" y="456" on="0"/>
        <pt x="383" y="456" on="1"/>
        <pt x="332" y="456" on="0"/>
        <pt x="263" y="442" on="0"/>
        <pt x="222" y="405" on="0"/>
        <pt x="205" y="339" on="0"/>
        <pt x="205" y="288" on="1"/>
        <pt x="205" y="238" on="0"/>
        <pt x="222" y="174" on="0"/>
        <pt x="262" y="136" on="0"/>
        <pt x="330" y="122" on="0"/>
        <pt x="380" y="122" on="1"/>
        <pt x="395" y="122" on="0"/>
        <pt x="433" y="124" on="0"/>
        <pt x="472" y="127" on="0"/>
        <pt x="508" y="130" on="0"/>
        <pt x="520" y="132" on="1"/>
        <pt x="520" y="4" on="1"/>
        <pt x="487" y="-3" on="0"/>
        <pt x="411" y="-11" on="0"/>
      </contour>
      <contour>
        <pt x="330" y="622" on="1"/>
        <pt x="283" y="622" on="0"/>
        <pt x="242" y="661" on="0"/>
        <pt x="242" y="705" on="1"/>
        <pt x="242" y="749" on="0"/>
        <pt x="283" y="788" on="0"/>
        <pt x="330" y="788" on="1"/>
        <pt x="377" y="788" on="0"/>
        <pt x="417" y="747" on="0"/>
        <pt x="417" y="705" on="1"/>
        <pt x="417" y="663" on="0"/>
        <pt x="377" y="622" on="0"/>
      </contour>
    </TTGlyph>
    <TTGlyph name="D" xMin="72" yMin="-11" xMax="733" yMax="750">
      <contour>
        <pt x="288" y="-11" on="1"/>
        <pt x="228" y="-11" on="0"/>
        <pt x="111" y="-4" on="0"/>
        <pt x="72" y="3" on="1"/>
        <pt x="72" y="738" on="1"/>
        <pt x="150" y="743" on="0"/>
        <pt x="277" y="750" on="0"/>
        <pt x="322" y="750" on="1"/>
        <pt x="430" y="750" on="0"/>
        <pt x="585" y="706" on="0"/>
        <pt x="685" y="613" on="0"/>
        <pt x="733" y="469" on="0"/>
        <pt x="733" y="369" on="1"/>
        <pt x="733" y="268" on="0"/>
        <pt x="683" y="124" on="0"/>
        <pt x="576" y="32" on="0"/>
        <pt x="407" y="-11" on="0"/>
      </contour>
      <contour>
        <pt x="353" y="125" on="1"/>
        <pt x="410" y="125" on="0"/>
        <pt x="488" y="150" on="0"/>
        <pt x="537" y="208" on="0"/>
        <pt x="559" y="301" on="0"/>
        <pt x="559" y="369" on="1"/>
        <pt x="559" y="436" on="0"/>
        <pt x="536" y="530" on="0"/>
        <pt x="486" y="587" on="0"/>
        <pt x="405" y="613" on="0"/>
        <pt x="347" y="613" on="1"/>
        <pt x="325" y="613" on="0"/>
        <pt x="273" y="611" on="0"/>
        <pt x="242" y="608" on="1"/>
        <pt x="242" y="133" on="1"/>
        <pt x="271" y="128" on="0"/>
        <pt x="324" y="125" on="0"/>
      </contour>
    </TTGlyph>
    <TTGlyph name="D.sc" xMin="69" yMin="-8" xMax="672" yMax="585">
      <contour>
        <pt x="298" y="-8" on="1"/>
        <pt x="236" y="-8" on="0"/>
        <pt x="111" y="-3" on="0"/>
        <pt x="69" y="2" on="1"/>
        <pt x="69" y="576" on="1"/>
        <pt x="139" y="581" on="0"/>
        <pt x="256" y="585" on="0"/>
        <pt x="300" y="585" on="1"/>
        <pt x="493" y="585" on="0"/>
        <pt x="672" y="442" on="0"/>
        <pt x="672" y="288" on="1"/>
        <pt x="672" y="211" on="0"/>
        <pt x="628" y="99" on="0"/>
        <pt x="536" y="27" on="0"/>
        <pt x="395" y="-8" on="0"/>
      </contour>
      <contour>
        <pt x="329" y="119" on="1"/>
        <pt x="379" y="119" on="0"/>
        <pt x="447" y="136" on="0"/>
        <pt x="488" y="175" on="0"/>
        <pt x="506" y="240" on="0"/>
        <pt x="506" y="288" on="1"/>
        <pt x="506" y="335" on="0"/>
        <pt x="487" y="400" on="0"/>
        <pt x="444" y="440" on="0"/>
        <pt x="374" y="457" on="0"/>
        <pt x="324" y="457" on="1"/>
        <pt x="304" y="457" on="0"/>
        <pt x="258" y="455" on="0"/>
        <pt x="230" y="453" on="1"/>
        <pt x="230" y="125" on="1"/>
        <pt x="254" y="122" on="0"/>
        <pt x="302" y="119" on="0"/>
      </contour>
    </TTGlyph>
    <TTGlyph name="Dcaron" xMin="72" yMin="-11" xMax="733" yMax="990">
      <contour>
        <pt x="178" y="990" on="1"/>
        <pt x="376" y="913" on="1"/>
        <pt x="573" y="990" on="1"/>
        <pt x="573" y="877" on="1"/>
        <pt x="374" y="800" on="1"/>
        <pt x="178" y="877" on="1"/>
      </contour>
      <contour>
        <pt x="288" y="-11" on="1"/>
        <pt x="228" y="-11" on="0"/>
        <pt x="111" y="-4" on="0"/>
        <pt x="72" y="3" on="1"/>
        <pt x="72" y="738" on="1"/>
        <pt x="150" y="743" on="0"/>
        <pt x="277" y="750" on="0"/>
        <pt x="322" y="750" on="1"/>
        <pt x="430" y="750" on="0"/>
        <pt x="585" y="706" on="0"/>
        <pt x="685" y="613" on="0"/>
        <pt x="733" y="469" on="0"/>
        <pt x="733" y="369" on="1"/>
        <pt x="733" y="268" on="0"/>
        <pt x="683" y="124" on="0"/>
        <pt x="576" y="32" on="0"/>
        <pt x="407" y="-11" on="0"/>
      </contour>
      <contour>
        <pt x="353" y="125" on="1"/>
        <pt x="410" y="125" on="0"/>
        <pt x="488" y="150" on="0"/>
        <pt x="537" y="208" on="0"/>
        <pt x="559" y="301" on="0"/>
        <pt x="559" y="369" on="1"/>
        <pt x="559" y="436" on="0"/>
        <pt x="536" y="530" on="0"/>
        <pt x="486" y="587" on="0"/>
        <pt x="405" y="613" on="0"/>
        <pt x="347" y="613" on="1"/>
        <pt x="325" y="613" on="0"/>
        <pt x="273" y="611" on="0"/>
        <pt x="242" y="608" on="1"/>
        <pt x="242" y="133" on="1"/>
        <pt x="271" y="128" on="0"/>
        <pt x="324" y="125" on="0"/>
      </contour>
    </TTGlyph>
    <TTGlyph name="Dcaron.sc" xMin="69" yMin="-8" xMax="672" yMax="787">
      <contour>
        <pt x="298" y="-8" on="1"/>
        <pt x="236" y="-8" on="0"/>
        <pt x="111" y="-3" on="0"/>
        <pt x="69" y="2" on="1"/>
        <pt x="69" y="576" on="1"/>
        <pt x="139" y="581" on="0"/>
        <pt x="256" y="585" on="0"/>
        <pt x="300" y="585" on="1"/>
        <pt x="493" y="585" on="0"/>
        <pt x="672" y="442" on="0"/>
        <pt x="672" y="288" on="1"/>
        <pt x="672" y="211" on="0"/>
        <pt x="628" y="99" on="0"/>
        <pt x="536" y="27" on="0"/>
        <pt x="395" y="-8" on="0"/>
      </contour>
      <contour>
        <pt x="329" y="119" on="1"/>
        <pt x="379" y="119" on="0"/>
        <pt x="447" y="136" on="0"/>
        <pt x="488" y="175" on="0"/>
        <pt x="506" y="240" on="0"/>
        <pt x="506" y="288" on="1"/>
        <pt x="506" y="335" on="0"/>
        <pt x="487" y="400" on="0"/>
        <pt x="444" y="440" on="0"/>
        <pt x="374" y="457" on="0"/>
        <pt x="324" y="457" on="1"/>
        <pt x="304" y="457" on="0"/>
        <pt x="258" y="455" on="0"/>
        <pt x="230" y="453" on="1"/>
        <pt x="230" y="125" on="1"/>
        <pt x="254" y="122" on="0"/>
        <pt x="302" y="119" on="0"/>
      </contour>
      <contour>
        <pt x="167" y="683" on="1"/>
        <pt x="167" y="787" on="1"/>
        <pt x="349" y="726" on="1"/>
        <pt x="531" y="787" on="1"/>
        <pt x="531" y="683" on="1"/>
        <pt x="347" y="622" on="1"/>
      </contour>
    </TTGlyph>
    <TTGlyph name="Dcroat" xMin="4" yMin="-11" xMax="754" yMax="750">
      <contour>
        <pt x="4" y="437" on="1"/>
        <pt x="93" y="437" on="1"/>
        <pt x="93" y="738" on="1"/>
        <pt x="171" y="743" on="0"/>
        <pt x="298" y="750" on="0"/>
        <pt x="343" y="750" on="1"/>
        <pt x="451" y="750" on="0"/>
        <pt x="606" y="706" on="0"/>
        <pt x="706" y="613" on="0"/>
        <pt x="754" y="469" on="0"/>
        <pt x="754" y="369" on="1"/>
        <pt x="754" y="268" on="0"/>
        <pt x="704" y="124" on="0"/>
        <pt x="597" y="32" on="0"/>
        <pt x="428" y="-11" on="0"/>
        <pt x="309" y="-11" on="1"/>
        <pt x="249" y="-11" on="0"/>
        <pt x="132" y="-4" on="0"/>
        <pt x="93" y="3" on="1"/>
        <pt x="93" y="308" on="1"/>
        <pt x="4" y="308" on="1"/>
      </contour>
      <contour>
        <pt x="374" y="125" on="1"/>
        <pt x="431" y="125" on="0"/>
        <pt x="509" y="150" on="0"/>
        <pt x="558" y="208" on="0"/>
        <pt x="580" y="301" on="0"/>
        <pt x="580" y="369" on="1"/>
        <pt x="580" y="436" on="0"/>
        <pt x="557" y="530" on="0"/>
        <pt x="507" y="587" on="0"/>
        <pt x="426" y="613" on="0"/>
        <pt x="368" y="613" on="1"/>
        <pt x="346" y="613" on="0"/>
        <pt x="294" y="611" on="0"/>
        <pt x="263" y="608" on="1"/>
        <pt x="263" y="437" on="1"/>
        <pt x="390" y="437" on="1"/>
        <pt x="390" y="308" on="1"/>
        <pt x="263" y="308" on="1"/>
        <pt x="263" y="133" on="1"/>
        <pt x="292" y="128" on="0"/>
        <pt x="345" y="125" on="0"/>
      </contour>
    </TTGlyph>
    <TTGlyph name="Dcroat.sc" xMin="12" yMin="-8" xMax="694" yMax="585">
      <contour>
        <pt x="12" y="352" on="1"/>
        <pt x="92" y="352" on="1"/>
        <pt x="92" y="576" on="1"/>
        <pt x="237" y="585" on="0"/>
        <pt x="322" y="585" on="1"/>
        <pt x="419" y="585" on="0"/>
        <pt x="560" y="550" on="0"/>
        <pt x="651" y="478" on="0"/>
        <pt x="694" y="366" on="0"/>
        <pt x="694" y="288" on="1"/>
        <pt x="694" y="208" on="0"/>
        <pt x="649" y="96" on="0"/>
        <pt x="551" y="25" on="0"/>
        <pt x="398" y="-8" on="0"/>
        <pt x="289" y="-8" on="1"/>
        <pt x="234" y="-8" on="0"/>
        <pt x="127" y="-3" on="0"/>
        <pt x="92" y="2" on="1"/>
        <pt x="92" y="231" on="1"/>
        <pt x="12" y="231" on="1"/>
      </contour>
      <contour>
        <pt x="352" y="119" on="1"/>
        <pt x="401" y="119" on="0"/>
        <pt x="469" y="135" on="0"/>
        <pt x="511" y="174" on="0"/>
        <pt x="529" y="239" on="0"/>
        <pt x="529" y="288" on="1"/>
        <pt x="529" y="336" on="0"/>
        <pt x="510" y="400" on="0"/>
        <pt x="466" y="440" on="0"/>
        <pt x="397" y="457" on="0"/>
        <pt x="346" y="457" on="1"/>
        <pt x="328" y="457" on="0"/>
        <pt x="282" y="455" on="0"/>
        <pt x="253" y="453" on="1"/>
        <pt x="253" y="352" on="1"/>
        <pt x="361" y="352" on="1"/>
        <pt x="361" y="231" on="1"/>
        <pt x="253" y="231" on="1"/>
        <pt x="253" y="125" on="1"/>
        <pt x="301" y="119" on="0"/>
      </contour>
    </TTGlyph>
    <TTGlyph name="Ddotbelow" xMin="72" yMin="-205" xMax="733" yMax="750">
      <contour>
        <pt x="373" y="-205" on="1"/>
        <pt x="334" y="-205" on="0"/>
        <pt x="300" y="-172" on="0"/>
        <pt x="300" y="-134" on="1"/>
        <pt x="300" y="-96" on="0"/>
        <pt x="334" y="-63" on="0"/>
        <pt x="373" y="-63" on="1"/>
        <pt x="413" y="-63" on="0"/>
        <pt x="447" y="-97" on="0"/>
        <pt x="447" y="-134" on="1"/>
        <pt x="447" y="-171" on="0"/>
        <pt x="413" y="-205" on="0"/>
      </contour>
      <contour>
        <pt x="288" y="-11" on="1"/>
        <pt x="228" y="-11" on="0"/>
        <pt x="111" y="-4" on="0"/>
        <pt x="72" y="3" on="1"/>
        <pt x="72" y="738" on="1"/>
        <pt x="150" y="743" on="0"/>
        <pt x="277" y="750" on="0"/>
        <pt x="322" y="750" on="1"/>
        <pt x="430" y="750" on="0"/>
        <pt x="585" y="706" on="0"/>
        <pt x="685" y="613" on="0"/>
        <pt x="733" y="469" on="0"/>
        <pt x="733" y="369" on="1"/>
        <pt x="733" y="268" on="0"/>
        <pt x="683" y="124" on="0"/>
        <pt x="576" y="32" on="0"/>
        <pt x="407" y="-11" on="0"/>
      </contour>
      <contour>
        <pt x="353" y="125" on="1"/>
        <pt x="410" y="125" on="0"/>
        <pt x="488" y="150" on="0"/>
        <pt x="537" y="208" on="0"/>
        <pt x="559" y="301" on="0"/>
        <pt x="559" y="369" on="1"/>
        <pt x="559" y="436" on="0"/>
        <pt x="536" y="530" on="0"/>
        <pt x="486" y="587" on="0"/>
        <pt x="405" y="613" on="0"/>
        <pt x="347" y="613" on="1"/>
        <pt x="325" y="613" on="0"/>
        <pt x="273" y="611" on="0"/>
        <pt x="242" y="608" on="1"/>
        <pt x="242" y="133" on="1"/>
        <pt x="271" y="128" on="0"/>
        <pt x="324" y="125" on="0"/>
      </contour>
    </TTGlyph>
    <TTGlyph name="Ddotbelow.sc" xMin="69" yMin="-168" xMax="672" yMax="585">
      <contour>
        <pt x="298" y="-8" on="1"/>
        <pt x="236" y="-8" on="0"/>
        <pt x="111" y="-3" on="0"/>
        <pt x="69" y="2" on="1"/>
        <pt x="69" y="576" on="1"/>
        <pt x="139" y="581" on="0"/>
        <pt x="256" y="585" on="0"/>
        <pt x="300" y="585" on="1"/>
        <pt x="493" y="585" on="0"/>
        <pt x="672" y="442" on="0"/>
        <pt x="672" y="288" on="1"/>
        <pt x="672" y="211" on="0"/>
        <pt x="628" y="99" on="0"/>
        <pt x="536" y="27" on="0"/>
        <pt x="395" y="-8" on="0"/>
      </contour>
      <contour>
        <pt x="329" y="119" on="1"/>
        <pt x="379" y="119" on="0"/>
        <pt x="447" y="136" on="0"/>
        <pt x="488" y="175" on="0"/>
        <pt x="506" y="240" on="0"/>
        <pt x="506" y="288" on="1"/>
        <pt x="506" y="335" on="0"/>
        <pt x="487" y="400" on="0"/>
        <pt x="444" y="440" on="0"/>
        <pt x="374" y="457" on="0"/>
        <pt x="324" y="457" on="1"/>
        <pt x="304" y="457" on="0"/>
        <pt x="258" y="455" on="0"/>
        <pt x="230" y="453" on="1"/>
        <pt x="230" y="125" on="1"/>
        <pt x="254" y="122" on="0"/>
        <pt x="302" y="119" on="0"/>
      </contour>
      <contour>
        <pt x="346" y="-168" on="1"/>
        <pt x="309" y="-168" on="0"/>
        <pt x="277" y="-138" on="0"/>
        <pt x="277" y="-105" on="1"/>
        <pt x="277" y="-72" on="0"/>
        <pt x="309" y="-42" on="0"/>
        <pt x="346" y="-42" on="1"/>
        <pt x="383" y="-42" on="0"/>
        <pt x="414" y="-73" on="0"/>
        <pt x="414" y="-105" on="1"/>
        <pt x="414" y="-137" on="0"/>
        <pt x="383" y="-168" on="0"/>
      </contour>
    </TTGlyph>
    <TTGlyph name="Delta" xMin="22" yMin="0" xMax="806" yMax="740">
      <contour>
        <pt x="313" y="740" on="1"/>
        <pt x="515" y="740" on="1"/>
        <pt x="806" y="0" on="1"/>
        <pt x="22" y="0" on="1"/>
      </contour>
      <contour>
        <pt x="597" y="132" on="1"/>
        <pt x="414" y="598" on="1"/>
        <pt x="230" y="132" on="1"/>
      </contour>
    </TTGlyph>
    <TTGlyph name="E" xMin="72" yMin="0" xMax="617" yMax="740">
      <contour>
        <pt x="72" y="740" on="1"/>
        <pt x="608" y="740" on="1"/>
        <pt x="608" y="607" on="1"/>
        <pt x="243" y="607" on="1"/>
        <pt x="243" y="439" on="1"/>
        <pt x="575" y="439" on="1"/>
        <pt x="575" y="306" on="1"/>
        <pt x="243" y="306" on="1"/>
        <pt x="243" y="133" on="1"/>
        <pt x="617" y="133" on="1"/>
        <pt x="617" y="0" on="1"/>
        <pt x="72" y="0" on="1"/>
      </contour>
    </TTGlyph>
    <TTGlyph name="E.sc" xMin="69" yMin="0" xMax="567" yMax="577">
      <contour>
        <pt x="69" y="577" on="1"/>
        <pt x="559" y="577" on="1"/>
        <pt x="559" y="457" on="1"/>
        <pt x="231" y="457" on="1"/>
        <pt x="231" y="344" on="1"/>
        <pt x="528" y="344" on="1"/>
        <pt x="528" y="237" on="1"/>
        <pt x="231" y="237" on="1"/>
        <pt x="231" y="121" on="1"/>
        <pt x="567" y="121" on="1"/>
        <pt x="567" y="0" on="1"/>
        <pt x="69" y="0" on="1"/>
      </contour>
    </TTGlyph>
    <TTGlyph name="Eacute" xMin="72" yMin="0" xMax="617" yMax="981">
      <contour>
        <pt x="270" y="810" on="1"/>
        <pt x="338" y="981" on="1"/>
        <pt x="509" y="981" on="1"/>
        <pt x="392" y="802" on="1"/>
      </contour>
      <contour>
        <pt x="72" y="740" on="1"/>
        <pt x="608" y="740" on="1"/>
        <pt x="608" y="607" on="1"/>
        <pt x="243" y="607" on="1"/>
        <pt x="243" y="439" on="1"/>
        <pt x="575" y="439" on="1"/>
        <pt x="575" y="306" on="1"/>
        <pt x="243" y="306" on="1"/>
        <pt x="243" y="133" on="1"/>
        <pt x="617" y="133" on="1"/>
        <pt x="617" y="0" on="1"/>
        <pt x="72" y="0" on="1"/>
      </contour>
    </TTGlyph>
    <TTGlyph name="Eacute.sc" xMin="69" yMin="0" xMax="567" yMax="777">
      <contour>
        <pt x="69" y="577" on="1"/>
        <pt x="559" y="577" on="1"/>
        <pt x="559" y="457" on="1"/>
        <pt x="231" y="457" on="1"/>
        <pt x="231" y="344" on="1"/>
        <pt x="528" y="344" on="1"/>
        <pt x="528" y="237" on="1"/>
        <pt x="231" y="237" on="1"/>
        <pt x="231" y="121" on="1"/>
        <pt x="567" y="121" on="1"/>
        <pt x="567" y="0" on="1"/>
        <pt x="69" y="0" on="1"/>
      </contour>
      <contour>
        <pt x="247" y="634" on="1"/>
        <pt x="306" y="777" on="1"/>
        <pt x="469" y="777" on="1"/>
        <pt x="363" y="627" on="1"/>
      </contour>
    </TTGlyph>
    <TTGlyph name="Ebreve" xMin="72" yMin="0" xMax="617" yMax="984">
      <contour>
        <pt x="335" y="809" on="1"/>
        <pt x="276" y="809" on="0"/>
        <pt x="195" y="835" on="0"/>
        <pt x="143" y="882" on="0"/>
        <pt x="120" y="946" on="0"/>
        <pt x="120" y="984" on="1"/>
        <pt x="232" y="984" on="1"/>
        <pt x="232" y="938" on="0"/>
        <pt x="278" y="890" on="0"/>
        <pt x="335" y="890" on="1"/>
        <pt x="394" y="890" on="0"/>
        <pt x="439" y="938" on="0"/>
        <pt x="439" y="984" on="1"/>
        <pt x="552" y="984" on="1"/>
        <pt x="552" y="945" on="0"/>
        <pt x="528" y="881" on="0"/>
        <pt x="476" y="835" on="0"/>
        <pt x="393" y="809" on="0"/>
      </contour>
      <contour>
        <pt x="72" y="740" on="1"/>
        <pt x="608" y="740" on="1"/>
        <pt x="608" y="607" on="1"/>
        <pt x="243" y="607" on="1"/>
        <pt x="243" y="439" on="1"/>
        <pt x="575" y="439" on="1"/>
        <pt x="575" y="306" on="1"/>
        <pt x="243" y="306" on="1"/>
        <pt x="243" y="133" on="1"/>
        <pt x="617" y="133" on="1"/>
        <pt x="617" y="0" on="1"/>
        <pt x="72" y="0" on="1"/>
      </contour>
    </TTGlyph>
    <TTGlyph name="Ebreve.sc" xMin="69" yMin="0" xMax="567" yMax="776">
      <contour>
        <pt x="309" y="630" on="1"/>
        <pt x="254" y="630" on="0"/>
        <pt x="179" y="653" on="0"/>
        <pt x="132" y="692" on="0"/>
        <pt x="111" y="745" on="0"/>
        <pt x="111" y="776" on="1"/>
        <pt x="216" y="776" on="1"/>
        <pt x="216" y="741" on="0"/>
        <pt x="256" y="704" on="0"/>
        <pt x="309" y="704" on="1"/>
        <pt x="362" y="704" on="0"/>
        <pt x="402" y="741" on="0"/>
        <pt x="402" y="776" on="1"/>
        <pt x="507" y="776" on="1"/>
        <pt x="507" y="744" on="0"/>
        <pt x="486" y="691" on="0"/>
        <pt x="439" y="652" on="0"/>
        <pt x="364" y="630" on="0"/>
      </contour>
      <contour>
        <pt x="69" y="577" on="1"/>
        <pt x="559" y="577" on="1"/>
        <pt x="559" y="457" on="1"/>
        <pt x="231" y="457" on="1"/>
        <pt x="231" y="344" on="1"/>
        <pt x="528" y="344" on="1"/>
        <pt x="528" y="237" on="1"/>
        <pt x="231" y="237" on="1"/>
        <pt x="231" y="121" on="1"/>
        <pt x="567" y="121" on="1"/>
        <pt x="567" y="0" on="1"/>
        <pt x="69" y="0" on="1"/>
      </contour>
    </TTGlyph>
    <TTGlyph name="Ecaron" xMin="72" yMin="0" xMax="617" yMax="990">
      <contour>
        <pt x="145" y="990" on="1"/>
        <pt x="343" y="913" on="1"/>
        <pt x="540" y="990" on="1"/>
        <pt x="540" y="877" on="1"/>
        <pt x="341" y="800" on="1"/>
        <pt x="145" y="877" on="1"/>
      </contour>
      <contour>
        <pt x="72" y="740" on="1"/>
        <pt x="608" y="740" on="1"/>
        <pt x="608" y="607" on="1"/>
        <pt x="243" y="607" on="1"/>
        <pt x="243" y="439" on="1"/>
        <pt x="575" y="439" on="1"/>
        <pt x="575" y="306" on="1"/>
        <pt x="243" y="306" on="1"/>
        <pt x="243" y="133" on="1"/>
        <pt x="617" y="133" on="1"/>
        <pt x="617" y="0" on="1"/>
        <pt x="72" y="0" on="1"/>
      </contour>
    </TTGlyph>
    <TTGlyph name="Ecaron.sc" xMin="69" yMin="0" xMax="567" yMax="787">
      <contour>
        <pt x="69" y="577" on="1"/>
        <pt x="559" y="577" on="1"/>
        <pt x="559" y="457" on="1"/>
        <pt x="231" y="457" on="1"/>
        <pt x="231" y="344" on="1"/>
        <pt x="528" y="344" on="1"/>
        <pt x="528" y="237" on="1"/>
        <pt x="231" y="237" on="1"/>
        <pt x="231" y="121" on="1"/>
        <pt x="567" y="121" on="1"/>
        <pt x="567" y="0" on="1"/>
        <pt x="69" y="0" on="1"/>
      </contour>
      <contour>
        <pt x="134" y="683" on="1"/>
        <pt x="134" y="787" on="1"/>
        <pt x="315" y="726" on="1"/>
        <pt x="497" y="787" on="1"/>
        <pt x="497" y="683" on="1"/>
        <pt x="314" y="622" on="1"/>
      </contour>
    </TTGlyph>
    <TTGlyph name="Ecircumflex" xMin="72" yMin="0" xMax="617" yMax="992">
      <contour>
        <pt x="72" y="740" on="1"/>
        <pt x="608" y="740" on="1"/>
        <pt x="608" y="607" on="1"/>
        <pt x="243" y="607" on="1"/>
        <pt x="243" y="439" on="1"/>
        <pt x="575" y="439" on="1"/>
        <pt x="575" y="306" on="1"/>
        <pt x="243" y="306" on="1"/>
        <pt x="243" y="133" on="1"/>
        <pt x="617" y="133" on="1"/>
        <pt x="617" y="0" on="1"/>
        <pt x="72" y="0" on="1"/>
      </contour>
      <contour>
        <pt x="155" y="915" on="1"/>
        <pt x="351" y="992" on="1"/>
        <pt x="550" y="915" on="1"/>
        <pt x="550" y="801" on="1"/>
        <pt x="352" y="878" on="1"/>
        <pt x="155" y="801" on="1"/>
      </contour>
    </TTGlyph>
    <TTGlyph name="Ecircumflex.sc" xMin="69" yMin="0" xMax="567" yMax="788">
      <contour>
        <pt x="69" y="577" on="1"/>
        <pt x="559" y="577" on="1"/>
        <pt x="559" y="457" on="1"/>
        <pt x="231" y="457" on="1"/>
        <pt x="231" y="344" on="1"/>
        <pt x="528" y="344" on="1"/>
        <pt x="528" y="237" on="1"/>
        <pt x="231" y="237" on="1"/>
        <pt x="231" y="121" on="1"/>
        <pt x="567" y="121" on="1"/>
        <pt x="567" y="0" on="1"/>
        <pt x="69" y="0" on="1"/>
      </contour>
      <contour>
        <pt x="144" y="726" on="1"/>
        <pt x="324" y="788" on="1"/>
        <pt x="507" y="726" on="1"/>
        <pt x="507" y="622" on="1"/>
        <pt x="326" y="683" on="1"/>
        <pt x="144" y="622" on="1"/>
      </contour>
    </TTGlyph>
    <TTGlyph name="Edblgrave" xMin="62" yMin="0" xMax="617" yMax="978">
      <contour>
        <pt x="72" y="740" on="1"/>
        <pt x="608" y="740" on="1"/>
        <pt x="608" y="607" on="1"/>
        <pt x="243" y="607" on="1"/>
        <pt x="243" y="439" on="1"/>
        <pt x="575" y="439" on="1"/>
        <pt x="575" y="306" on="1"/>
        <pt x="243" y="306" on="1"/>
        <pt x="243" y="133" on="1"/>
        <pt x="617" y="133" on="1"/>
        <pt x="617" y="0" on="1"/>
        <pt x="72" y="0" on="1"/>
      </contour>
      <contour>
        <pt x="180" y="800" on="1"/>
        <pt x="62" y="978" on="1"/>
        <pt x="225" y="978" on="1"/>
        <pt x="292" y="811" on="1"/>
      </contour>
      <contour>
        <pt x="387" y="800" on="1"/>
        <pt x="269" y="978" on="1"/>
        <pt x="432" y="978" on="1"/>
        <pt x="499" y="811" on="1"/>
      </contour>
    </TTGlyph>
    <TTGlyph name="Edblgrave.sc" xMin="56" yMin="0" xMax="567" yMax="777">
      <contour>
        <pt x="69" y="577" on="1"/>
        <pt x="559" y="577" on="1"/>
        <pt x="559" y="457" on="1"/>
        <pt x="231" y="457" on="1"/>
        <pt x="231" y="344" on="1"/>
        <pt x="528" y="344" on="1"/>
        <pt x="528" y="237" on="1"/>
        <pt x="231" y="237" on="1"/>
        <pt x="231" y="121" on="1"/>
        <pt x="567" y="121" on="1"/>
        <pt x="567" y="0" on="1"/>
        <pt x="69" y="0" on="1"/>
      </contour>
      <contour>
        <pt x="56" y="777" on="1"/>
        <pt x="211" y="777" on="1"/>
        <pt x="269" y="634" on="1"/>
        <pt x="162" y="626" on="1"/>
      </contour>
      <contour>
        <pt x="247" y="777" on="1"/>
        <pt x="402" y="777" on="1"/>
        <pt x="461" y="634" on="1"/>
        <pt x="353" y="626" on="1"/>
      </contour>
    </TTGlyph>
    <TTGlyph name="Edieresis" xMin="72" yMin="0" xMax="617" yMax="985">
      <contour>
        <pt x="204" y="805" on="1"/>
        <pt x="155" y="805" on="0"/>
        <pt x="111" y="847" on="0"/>
        <pt x="111" y="895" on="1"/>
        <pt x="111" y="943" on="0"/>
        <pt x="155" y="985" on="0"/>
        <pt x="204" y="985" on="1"/>
        <pt x="254" y="985" on="0"/>
        <pt x="296" y="941" on="0"/>
        <pt x="296" y="895" on="1"/>
        <pt x="296" y="848" on="0"/>
        <pt x="254" y="805" on="0"/>
      </contour>
      <contour>
        <pt x="492" y="805" on="1"/>
        <pt x="442" y="805" on="0"/>
        <pt x="400" y="847" on="0"/>
        <pt x="400" y="895" on="1"/>
        <pt x="400" y="943" on="0"/>
        <pt x="442" y="985" on="0"/>
        <pt x="492" y="985" on="1"/>
        <pt x="542" y="985" on="0"/>
        <pt x="585" y="941" on="0"/>
        <pt x="585" y="895" on="1"/>
        <pt x="585" y="848" on="0"/>
        <pt x="542" y="805" on="0"/>
      </contour>
      <contour>
        <pt x="72" y="740" on="1"/>
        <pt x="608" y="740" on="1"/>
        <pt x="608" y="607" on="1"/>
        <pt x="243" y="607" on="1"/>
        <pt x="243" y="439" on="1"/>
        <pt x="575" y="439" on="1"/>
        <pt x="575" y="306" on="1"/>
        <pt x="243" y="306" on="1"/>
        <pt x="243" y="133" on="1"/>
        <pt x="617" y="133" on="1"/>
        <pt x="617" y="0" on="1"/>
        <pt x="72" y="0" on="1"/>
      </contour>
    </TTGlyph>
    <TTGlyph name="Edieresis.sc" xMin="69" yMin="0" xMax="567" yMax="789">
      <contour>
        <pt x="191" y="623" on="1"/>
        <pt x="144" y="623" on="0"/>
        <pt x="104" y="662" on="0"/>
        <pt x="104" y="706" on="1"/>
        <pt x="104" y="749" on="0"/>
        <pt x="144" y="789" on="0"/>
        <pt x="191" y="789" on="1"/>
        <pt x="238" y="789" on="0"/>
        <pt x="278" y="748" on="0"/>
        <pt x="278" y="706" on="1"/>
        <pt x="278" y="663" on="0"/>
        <pt x="238" y="623" on="0"/>
      </contour>
      <contour>
        <pt x="453" y="623" on="1"/>
        <pt x="406" y="623" on="0"/>
        <pt x="366" y="662" on="0"/>
        <pt x="366" y="706" on="1"/>
        <pt x="366" y="749" on="0"/>
        <pt x="406" y="789" on="0"/>
        <pt x="453" y="789" on="1"/>
        <pt x="500" y="789" on="0"/>
        <pt x="540" y="748" on="0"/>
        <pt x="540" y="706" on="1"/>
        <pt x="540" y="663" on="0"/>
        <pt x="500" y="623" on="0"/>
      </contour>
      <contour>
        <pt x="69" y="577" on="1"/>
        <pt x="559" y="577" on="1"/>
        <pt x="559" y="457" on="1"/>
        <pt x="231" y="457" on="1"/>
        <pt x="231" y="344" on="1"/>
        <pt x="528" y="344" on="1"/>
        <pt x="528" y="237" on="1"/>
        <pt x="231" y="237" on="1"/>
        <pt x="231" y="121" on="1"/>
        <pt x="567" y="121" on="1"/>
        <pt x="567" y="0" on="1"/>
        <pt x="69" y="0" on="1"/>
      </contour>
    </TTGlyph>
    <TTGlyph name="Edotaccent" xMin="72" yMin="0" xMax="617" yMax="983">
      <contour>
        <pt x="336" y="802" on="1"/>
        <pt x="286" y="802" on="0"/>
        <pt x="243" y="844" on="0"/>
        <pt x="243" y="892" on="1"/>
        <pt x="243" y="940" on="0"/>
        <pt x="286" y="983" on="0"/>
        <pt x="336" y="983" on="1"/>
        <pt x="386" y="983" on="0"/>
        <pt x="428" y="939" on="0"/>
        <pt x="428" y="892" on="1"/>
        <pt x="428" y="846" on="0"/>
        <pt x="386" y="802" on="0"/>
      </contour>
      <contour>
        <pt x="72" y="740" on="1"/>
        <pt x="608" y="740" on="1"/>
        <pt x="608" y="607" on="1"/>
        <pt x="243" y="607" on="1"/>
        <pt x="243" y="439" on="1"/>
        <pt x="575" y="439" on="1"/>
        <pt x="575" y="306" on="1"/>
        <pt x="243" y="306" on="1"/>
        <pt x="243" y="133" on="1"/>
        <pt x="617" y="133" on="1"/>
        <pt x="617" y="0" on="1"/>
        <pt x="72" y="0" on="1"/>
      </contour>
    </TTGlyph>
    <TTGlyph name="Edotaccent.sc" xMin="69" yMin="0" xMax="567" yMax="788">
      <contour>
        <pt x="309" y="622" on="1"/>
        <pt x="263" y="622" on="0"/>
        <pt x="222" y="661" on="0"/>
        <pt x="222" y="705" on="1"/>
        <pt x="222" y="749" on="0"/>
        <pt x="263" y="788" on="0"/>
        <pt x="309" y="788" on="1"/>
        <pt x="356" y="788" on="0"/>
        <pt x="396" y="747" on="0"/>
        <pt x="396" y="705" on="1"/>
        <pt x="396" y="663" on="0"/>
        <pt x="356" y="622" on="0"/>
      </contour>
      <contour>
        <pt x="69" y="577" on="1"/>
        <pt x="559" y="577" on="1"/>
        <pt x="559" y="457" on="1"/>
        <pt x="231" y="457" on="1"/>
        <pt x="231" y="344" on="1"/>
        <pt x="528" y="344" on="1"/>
        <pt x="528" y="237" on="1"/>
        <pt x="231" y="237" on="1"/>
        <pt x="231" y="121" on="1"/>
        <pt x="567" y="121" on="1"/>
        <pt x="567" y="0" on="1"/>
        <pt x="69" y="0" on="1"/>
      </contour>
    </TTGlyph>
    <TTGlyph name="Edotbelow" xMin="72" yMin="-205" xMax="617" yMax="740">
      <contour>
        <pt x="72" y="740" on="1"/>
        <pt x="608" y="740" on="1"/>
        <pt x="608" y="607" on="1"/>
        <pt x="243" y="607" on="1"/>
        <pt x="243" y="439" on="1"/>
        <pt x="575" y="439" on="1"/>
        <pt x="575" y="306" on="1"/>
        <pt x="243" y="306" on="1"/>
        <pt x="243" y="133" on="1"/>
        <pt x="617" y="133" on="1"/>
        <pt x="617" y="0" on="1"/>
        <pt x="72" y="0" on="1"/>
      </contour>
      <contour>
        <pt x="358" y="-205" on="1"/>
        <pt x="319" y="-205" on="0"/>
        <pt x="285" y="-172" on="0"/>
        <pt x="285" y="-134" on="1"/>
        <pt x="285" y="-96" on="0"/>
        <pt x="319" y="-63" on="0"/>
        <pt x="358" y="-63" on="1"/>
        <pt x="398" y="-63" on="0"/>
        <pt x="432" y="-97" on="0"/>
        <pt x="432" y="-134" on="1"/>
        <pt x="432" y="-171" on="0"/>
        <pt x="398" y="-205" on="0"/>
      </contour>
    </TTGlyph>
    <TTGlyph name="Edotbelow.sc" xMin="69" yMin="-168" xMax="567" yMax="577">
      <contour>
        <pt x="330" y="-168" on="1"/>
        <pt x="293" y="-168" on="0"/>
        <pt x="262" y="-138" on="0"/>
        <pt x="262" y="-105" on="1"/>
        <pt x="262" y="-72" on="0"/>
        <pt x="293" y="-42" on="0"/>
        <pt x="330" y="-42" on="1"/>
        <pt x="368" y="-42" on="0"/>
        <pt x="398" y="-73" on="0"/>
        <pt x="398" y="-105" on="1"/>
        <pt x="398" y="-137" on="0"/>
        <pt x="368" y="-168" on="0"/>
      </contour>
      <contour>
        <pt x="69" y="577" on="1"/>
        <pt x="559" y="577" on="1"/>
        <pt x="559" y="457" on="1"/>
        <pt x="231" y="457" on="1"/>
        <pt x="231" y="344" on="1"/>
        <pt x="528" y="344" on="1"/>
        <pt x="528" y="237" on="1"/>
        <pt x="231" y="237" on="1"/>
        <pt x="231" y="121" on="1"/>
        <pt x="567" y="121" on="1"/>
        <pt x="567" y="0" on="1"/>
        <pt x="69" y="0" on="1"/>
      </contour>
    </TTGlyph>
    <TTGlyph name="Egrave" xMin="72" yMin="0" xMax="617" yMax="981">
      <contour>
        <pt x="298" y="802" on="1"/>
        <pt x="180" y="981" on="1"/>
        <pt x="352" y="981" on="1"/>
        <pt x="419" y="813" on="1"/>
      </contour>
      <contour>
        <pt x="72" y="740" on="1"/>
        <pt x="608" y="740" on="1"/>
        <pt x="608" y="607" on="1"/>
        <pt x="243" y="607" on="1"/>
        <pt x="243" y="439" on="1"/>
        <pt x="575" y="439" on="1"/>
        <pt x="575" y="306" on="1"/>
        <pt x="243" y="306" on="1"/>
        <pt x="243" y="133" on="1"/>
        <pt x="617" y="133" on="1"/>
        <pt x="617" y="0" on="1"/>
        <pt x="72" y="0" on="1"/>
      </contour>
    </TTGlyph>
    <TTGlyph name="Egrave.sc" xMin="69" yMin="0" xMax="567" yMax="777">
      <contour>
        <pt x="69" y="577" on="1"/>
        <pt x="559" y="577" on="1"/>
        <pt x="559" y="457" on="1"/>
        <pt x="231" y="457" on="1"/>
        <pt x="231" y="344" on="1"/>
        <pt x="528" y="344" on="1"/>
        <pt x="528" y="237" on="1"/>
        <pt x="231" y="237" on="1"/>
        <pt x="231" y="121" on="1"/>
        <pt x="567" y="121" on="1"/>
        <pt x="567" y="0" on="1"/>
        <pt x="69" y="0" on="1"/>
      </contour>
      <contour>
        <pt x="168" y="777" on="1"/>
        <pt x="331" y="777" on="1"/>
        <pt x="389" y="635" on="1"/>
        <pt x="274" y="627" on="1"/>
      </contour>
    </TTGlyph>
    <TTGlyph name="Einvertedbreve" xMin="72" yMin="0" xMax="617" yMax="992">
      <contour>
        <pt x="72" y="740" on="1"/>
        <pt x="608" y="740" on="1"/>
        <pt x="608" y="607" on="1"/>
        <pt x="243" y="607" on="1"/>
        <pt x="243" y="439" on="1"/>
        <pt x="575" y="439" on="1"/>
        <pt x="575" y="306" on="1"/>
        <pt x="243" y="306" on="1"/>
        <pt x="243" y="133" on="1"/>
        <pt x="617" y="133" on="1"/>
        <pt x="617" y="0" on="1"/>
        <pt x="72" y="0" on="1"/>
      </contour>
      <contour>
        <pt x="445" y="817" on="1"/>
        <pt x="445" y="863" on="0"/>
        <pt x="399" y="910" on="0"/>
        <pt x="341" y="910" on="1"/>
        <pt x="284" y="910" on="0"/>
        <pt x="238" y="863" on="0"/>
        <pt x="238" y="817" on="1"/>
        <pt x="125" y="817" on="1"/>
        <pt x="125" y="855" on="0"/>
        <pt x="149" y="919" on="0"/>
        <pt x="200" y="966" on="0"/>
        <pt x="282" y="992" on="0"/>
        <pt x="341" y="992" on="1"/>
        <pt x="399" y="992" on="0"/>
        <pt x="482" y="966" on="0"/>
        <pt x="534" y="920" on="0"/>
        <pt x="558" y="856" on="0"/>
        <pt x="558" y="817" on="1"/>
      </contour>
    </TTGlyph>
    <TTGlyph name="Einvertedbreve.sc" xMin="69" yMin="0" xMax="567" yMax="783">
      <contour>
        <pt x="117" y="638" on="1"/>
        <pt x="117" y="668" on="0"/>
        <pt x="138" y="721" on="0"/>
        <pt x="185" y="760" on="0"/>
        <pt x="260" y="783" on="0"/>
        <pt x="315" y="783" on="1"/>
        <pt x="369" y="783" on="0"/>
        <pt x="445" y="761" on="0"/>
        <pt x="493" y="723" on="0"/>
        <pt x="514" y="669" on="0"/>
        <pt x="514" y="638" on="1"/>
        <pt x="408" y="638" on="1"/>
        <pt x="408" y="672" on="0"/>
        <pt x="368" y="709" on="0"/>
        <pt x="315" y="709" on="1"/>
        <pt x="262" y="709" on="0"/>
        <pt x="222" y="673" on="0"/>
        <pt x="222" y="638" on="1"/>
      </contour>
      <contour>
        <pt x="69" y="577" on="1"/>
        <pt x="559" y="577" on="1"/>
        <pt x="559" y="457" on="1"/>
        <pt x="231" y="457" on="1"/>
        <pt x="231" y="344" on="1"/>
        <pt x="528" y="344" on="1"/>
        <pt x="528" y="237" on="1"/>
        <pt x="231" y="237" on="1"/>
        <pt x="231" y="121" on="1"/>
        <pt x="567" y="121" on="1"/>
        <pt x="567" y="0" on="1"/>
        <pt x="69" y="0" on="1"/>
      </contour>
    </TTGlyph>
    <TTGlyph name="Emacron" xMin="72" yMin="0" xMax="617" yMax="953">
      <contour>
        <pt x="149" y="953" on="1"/>
        <pt x="538" y="953" on="1"/>
        <pt x="538" y="841" on="1"/>
        <pt x="149" y="841" on="1"/>
      </contour>
      <contour>
        <pt x="72" y="740" on="1"/>
        <pt x="608" y="740" on="1"/>
        <pt x="608" y="607" on="1"/>
        <pt x="243" y="607" on="1"/>
        <pt x="243" y="439" on="1"/>
        <pt x="575" y="439" on="1"/>
        <pt x="575" y="306" on="1"/>
        <pt x="243" y="306" on="1"/>
        <pt x="243" y="133" on="1"/>
        <pt x="617" y="133" on="1"/>
        <pt x="617" y="0" on="1"/>
        <pt x="72" y="0" on="1"/>
      </contour>
    </TTGlyph>
    <TTGlyph name="Emacron.sc" xMin="69" yMin="0" xMax="567" yMax="760">
      <contour>
        <pt x="69" y="577" on="1"/>
        <pt x="559" y="577" on="1"/>
        <pt x="559" y="457" on="1"/>
        <pt x="231" y="457" on="1"/>
        <pt x="231" y="344" on="1"/>
        <pt x="528" y="344" on="1"/>
        <pt x="528" y="237" on="1"/>
        <pt x="231" y="237" on="1"/>
        <pt x="231" y="121" on="1"/>
        <pt x="567" y="121" on="1"/>
        <pt x="567" y="0" on="1"/>
        <pt x="69" y="0" on="1"/>
      </contour>
      <contour>
        <pt x="138" y="760" on="1"/>
        <pt x="497" y="760" on="1"/>
        <pt x="497" y="656" on="1"/>
        <pt x="138" y="656" on="1"/>
      </contour>
    </TTGlyph>
    <TTGlyph name="Eng" xMin="72" yMin="-207" xMax="740" yMax="740">
      <contour>
        <pt x="503" y="-171" on="1"/>
        <pt x="533" y="-108" on="0"/>
        <pt x="566" y="-5" on="0"/>
        <pt x="572" y="43" on="1"/>
        <pt x="297" y="396" on="1"/>
        <pt x="232" y="488" on="1"/>
        <pt x="224" y="488" on="1"/>
        <pt x="224" y="0" on="1"/>
        <pt x="72" y="0" on="1"/>
        <pt x="72" y="740" on="1"/>
        <pt x="205" y="740" on="1"/>
        <pt x="521" y="337" on="1"/>
        <pt x="580" y="252" on="1"/>
        <pt x="589" y="252" on="1"/>
        <pt x="589" y="740" on="1"/>
        <pt x="740" y="740" on="1"/>
        <pt x="740" y="116" on="1"/>
        <pt x="740" y="85" on="0"/>
        <pt x="721" y="4" on="0"/>
        <pt x="687" y="-83" on="0"/>
        <pt x="641" y="-170" on="0"/>
        <pt x="615" y="-207" on="1"/>
      </contour>
    </TTGlyph>
    <TTGlyph name="Eng.sc" xMin="69" yMin="-168" xMax="660" yMax="577">
      <contour>
        <pt x="448" y="-133" on="1"/>
        <pt x="476" y="-79" on="0"/>
        <pt x="504" y="-5" on="0"/>
        <pt x="509" y="29" on="1"/>
        <pt x="281" y="274" on="1"/>
        <pt x="221" y="347" on="1"/>
        <pt x="213" y="348" on="1"/>
        <pt x="213" y="0" on="1"/>
        <pt x="69" y="0" on="1"/>
        <pt x="69" y="577" on="1"/>
        <pt x="195" y="577" on="1"/>
        <pt x="455" y="296" on="1"/>
        <pt x="509" y="230" on="1"/>
        <pt x="517" y="230" on="1"/>
        <pt x="517" y="577" on="1"/>
        <pt x="660" y="577" on="1"/>
        <pt x="660" y="101" on="1"/>
        <pt x="660" y="74" on="0"/>
        <pt x="645" y="9" on="0"/>
        <pt x="618" y="-61" on="0"/>
        <pt x="579" y="-134" on="0"/>
        <pt x="555" y="-168" on="1"/>
      </contour>
    </TTGlyph>
    <TTGlyph name="Eogonek" xMin="72" yMin="-220" xMax="618" yMax="740">
      <contour>
        <pt x="72" y="740" on="1"/>
        <pt x="608" y="740" on="1"/>
        <pt x="608" y="607" on="1"/>
        <pt x="243" y="607" on="1"/>
        <pt x="243" y="439" on="1"/>
        <pt x="575" y="439" on="1"/>
        <pt x="575" y="306" on="1"/>
        <pt x="243" y="306" on="1"/>
        <pt x="243" y="133" on="1"/>
        <pt x="617" y="133" on="1"/>
        <pt x="617" y="-10" on="1"/>
        <pt x="551" y="-38" on="0"/>
        <pt x="497" y="-83" on="0"/>
        <pt x="497" y="-105" on="1"/>
        <pt x="497" y="-130" on="0"/>
        <pt x="532" y="-130" on="1"/>
        <pt x="546" y="-130" on="0"/>
        <pt x="596" y="-122" on="0"/>
        <pt x="618" y="-116" on="1"/>
        <pt x="618" y="-208" on="1"/>
        <pt x="579" y="-220" on="0"/>
        <pt x="530" y="-220" on="1"/>
        <pt x="461" y="-220" on="0"/>
        <pt x="389" y="-173" on="0"/>
        <pt x="389" y="-128" on="1"/>
        <pt x="389" y="-93" on="0"/>
        <pt x="435" y="-28" on="0"/>
        <pt x="480" y="0" on="1"/>
        <pt x="72" y="0" on="1"/>
      </contour>
    </TTGlyph>
    <TTGlyph name="Eogonek.sc" xMin="69" yMin="-172" xMax="568" yMax="577">
      <contour>
        <pt x="488" y="-172" on="1"/>
        <pt x="357" y="-172" on="0"/>
        <pt x="357" y="-96" on="1"/>
        <pt x="357" y="-67" on="0"/>
        <pt x="396" y="-19" on="0"/>
        <pt x="432" y="0" on="1"/>
        <pt x="69" y="0" on="1"/>
        <pt x="69" y="577" on="1"/>
        <pt x="559" y="577" on="1"/>
        <pt x="559" y="457" on="1"/>
        <pt x="231" y="457" on="1"/>
        <pt x="231" y="344" on="1"/>
        <pt x="528" y="344" on="1"/>
        <pt x="528" y="237" on="1"/>
        <pt x="231" y="237" on="1"/>
        <pt x="231" y="121" on="1"/>
        <pt x="567" y="121" on="1"/>
        <pt x="567" y="-5" on="1"/>
        <pt x="533" y="-17" on="0"/>
        <pt x="491" y="-36" on="0"/>
        <pt x="468" y="-53" on="0"/>
        <pt x="460" y="-66" on="0"/>
        <pt x="460" y="-72" on="1"/>
        <pt x="460" y="-81" on="0"/>
        <pt x="474" y="-87" on="0"/>
        <pt x="488" y="-87" on="1"/>
        <pt x="495" y="-87" on="0"/>
        <pt x="516" y="-86" on="0"/>
        <pt x="538" y="-83" on="0"/>
        <pt x="560" y="-80" on="0"/>
        <pt x="568" y="-78" on="1"/>
        <pt x="568" y="-162" on="1"/>
        <pt x="548" y="-167" on="0"/>
        <pt x="508" y="-172" on="0"/>
      </contour>
    </TTGlyph>
    <TTGlyph name="Eth" xMin="4" yMin="-11" xMax="754" yMax="750">
      <contour>
        <pt x="4" y="437" on="1"/>
        <pt x="93" y="437" on="1"/>
        <pt x="93" y="738" on="1"/>
        <pt x="171" y="743" on="0"/>
        <pt x="298" y="750" on="0"/>
        <pt x="343" y="750" on="1"/>
        <pt x="451" y="750" on="0"/>
        <pt x="606" y="706" on="0"/>
        <pt x="706" y="613" on="0"/>
        <pt x="754" y="469" on="0"/>
        <pt x="754" y="369" on="1"/>
        <pt x="754" y="268" on="0"/>
        <pt x="704" y="124" on="0"/>
        <pt x="597" y="32" on="0"/>
        <pt x="428" y="-11" on="0"/>
        <pt x="309" y="-11" on="1"/>
        <pt x="249" y="-11" on="0"/>
        <pt x="132" y="-4" on="0"/>
        <pt x="93" y="3" on="1"/>
        <pt x="93" y="308" on="1"/>
        <pt x="4" y="308" on="1"/>
      </contour>
      <contour>
        <pt x="374" y="125" on="1"/>
        <pt x="431" y="125" on="0"/>
        <pt x="509" y="150" on="0"/>
        <pt x="558" y="208" on="0"/>
        <pt x="580" y="301" on="0"/>
        <pt x="580" y="369" on="1"/>
        <pt x="580" y="436" on="0"/>
        <pt x="557" y="530" on="0"/>
        <pt x="507" y="587" on="0"/>
        <pt x="426" y="613" on="0"/>
        <pt x="368" y="613" on="1"/>
        <pt x="346" y="613" on="0"/>
        <pt x="294" y="611" on="0"/>
        <pt x="263" y="608" on="1"/>
        <pt x="263" y="437" on="1"/>
        <pt x="390" y="437" on="1"/>
        <pt x="390" y="308" on="1"/>
        <pt x="263" y="308" on="1"/>
        <pt x="263" y="133" on="1"/>
        <pt x="292" y="128" on="0"/>
        <pt x="345" y="125" on="0"/>
      </contour>
    </TTGlyph>
    <TTGlyph name="Eth.sc" xMin="11" yMin="-8" xMax="693" yMax="585">
      <contour>
        <pt x="11" y="347" on="1"/>
        <pt x="90" y="347" on="1"/>
        <pt x="90" y="576" on="1"/>
        <pt x="237" y="585" on="0"/>
        <pt x="321" y="585" on="1"/>
        <pt x="515" y="585" on="0"/>
        <pt x="693" y="443" on="0"/>
        <pt x="693" y="288" on="1"/>
        <pt x="693" y="208" on="0"/>
        <pt x="648" y="96" on="0"/>
        <pt x="550" y="25" on="0"/>
        <pt x="396" y="-8" on="0"/>
        <pt x="287" y="-8" on="1"/>
        <pt x="232" y="-8" on="0"/>
        <pt x="125" y="-3" on="0"/>
        <pt x="90" y="2" on="1"/>
        <pt x="90" y="234" on="1"/>
        <pt x="11" y="234" on="1"/>
      </contour>
      <contour>
        <pt x="350" y="119" on="1"/>
        <pt x="399" y="119" on="0"/>
        <pt x="467" y="135" on="0"/>
        <pt x="509" y="174" on="0"/>
        <pt x="527" y="239" on="0"/>
        <pt x="527" y="288" on="1"/>
        <pt x="527" y="336" on="0"/>
        <pt x="508" y="400" on="0"/>
        <pt x="465" y="440" on="0"/>
        <pt x="395" y="457" on="0"/>
        <pt x="345" y="457" on="1"/>
        <pt x="326" y="457" on="0"/>
        <pt x="280" y="455" on="0"/>
        <pt x="251" y="453" on="1"/>
        <pt x="251" y="347" on="1"/>
        <pt x="360" y="347" on="1"/>
        <pt x="360" y="234" on="1"/>
        <pt x="251" y="234" on="1"/>
        <pt x="251" y="125" on="1"/>
        <pt x="300" y="119" on="0"/>
      </contour>
    </TTGlyph>
    <TTGlyph name="Etilde" xMin="72" yMin="0" xMax="617" yMax="974">
      <contour>
        <pt x="114" y="857" on="1"/>
        <pt x="147" y="916" on="0"/>
        <pt x="231" y="974" on="0"/>
        <pt x="270" y="974" on="1"/>
        <pt x="295" y="974" on="0"/>
        <pt x="344" y="962" on="0"/>
        <pt x="392" y="948" on="0"/>
        <pt x="440" y="936" on="0"/>
        <pt x="465" y="936" on="1"/>
        <pt x="488" y="936" on="0"/>
        <pt x="532" y="951" on="0"/>
        <pt x="560" y="973" on="1"/>
        <pt x="583" y="942" on="1"/>
        <pt x="550" y="883" on="0"/>
        <pt x="465" y="824" on="0"/>
        <pt x="425" y="824" on="1"/>
        <pt x="400" y="824" on="0"/>
        <pt x="352" y="836" on="0"/>
        <pt x="304" y="850" on="0"/>
        <pt x="255" y="862" on="0"/>
        <pt x="231" y="862" on="1"/>
        <pt x="208" y="862" on="0"/>
        <pt x="163" y="847" on="0"/>
        <pt x="137" y="826" on="1"/>
      </contour>
      <contour>
        <pt x="72" y="740" on="1"/>
        <pt x="608" y="740" on="1"/>
        <pt x="608" y="607" on="1"/>
        <pt x="243" y="607" on="1"/>
        <pt x="243" y="439" on="1"/>
        <pt x="575" y="439" on="1"/>
        <pt x="575" y="306" on="1"/>
        <pt x="243" y="306" on="1"/>
        <pt x="243" y="133" on="1"/>
        <pt x="617" y="133" on="1"/>
        <pt x="617" y="0" on="1"/>
        <pt x="72" y="0" on="1"/>
      </contour>
    </TTGlyph>
    <TTGlyph name="Etilde.sc" xMin="69" yMin="0" xMax="567" yMax="775">
      <contour>
        <pt x="105" y="668" on="1"/>
        <pt x="136" y="722" on="0"/>
        <pt x="213" y="775" on="0"/>
        <pt x="249" y="775" on="1"/>
        <pt x="272" y="775" on="0"/>
        <pt x="317" y="766" on="0"/>
        <pt x="361" y="755" on="0"/>
        <pt x="405" y="746" on="0"/>
        <pt x="428" y="746" on="1"/>
        <pt x="449" y="746" on="0"/>
        <pt x="488" y="757" on="0"/>
        <pt x="514" y="774" on="1"/>
        <pt x="535" y="748" on="1"/>
        <pt x="504" y="694" on="0"/>
        <pt x="425" y="642" on="0"/>
        <pt x="390" y="642" on="1"/>
        <pt x="367" y="642" on="0"/>
        <pt x="322" y="651" on="0"/>
        <pt x="278" y="662" on="0"/>
        <pt x="233" y="671" on="0"/>
        <pt x="211" y="671" on="1"/>
        <pt x="190" y="671" on="0"/>
        <pt x="150" y="659" on="0"/>
        <pt x="126" y="642" on="1"/>
      </contour>
      <contour>
        <pt x="69" y="577" on="1"/>
        <pt x="559" y="577" on="1"/>
        <pt x="559" y="457" on="1"/>
        <pt x="231" y="457" on="1"/>
        <pt x="231" y="344" on="1"/>
        <pt x="528" y="344" on="1"/>
        <pt x="528" y="237" on="1"/>
        <pt x="231" y="237" on="1"/>
        <pt x="231" y="121" on="1"/>
        <pt x="567" y="121" on="1"/>
        <pt x="567" y="0" on="1"/>
        <pt x="69" y="0" on="1"/>
      </contour>
    </TTGlyph>
    <TTGlyph name="Euro" xMin="36" yMin="-10" xMax="656" yMax="750">
      <contour>
        <pt x="36" y="501" on="1"/>
        <pt x="123" y="501" on="1"/>
        <pt x="151" y="627" on="0"/>
        <pt x="332" y="750" on="0"/>
        <pt x="497" y="750" on="1"/>
        <pt x="551" y="750" on="0"/>
        <pt x="631" y="738" on="0"/>
        <pt x="656" y="733" on="1"/>
        <pt x="616" y="598" on="1"/>
        <pt x="602" y="601" on="0"/>
        <pt x="552" y="606" on="0"/>
        <pt x="530" y="606" on="1"/>
        <pt x="476" y="606" on="0"/>
        <pt x="396" y="596" on="0"/>
        <pt x="340" y="572" on="0"/>
        <pt x="305" y="531" on="0"/>
        <pt x="296" y="501" on="1"/>
        <pt x="582" y="501" on="1"/>
        <pt x="562" y="407" on="1"/>
        <pt x="283" y="407" on="1"/>
        <pt x="282" y="398" on="0"/>
        <pt x="282" y="379" on="0"/>
        <pt x="282" y="369" on="1"/>
        <pt x="282" y="359" on="0"/>
        <pt x="282" y="341" on="0"/>
        <pt x="283" y="333" on="1"/>
        <pt x="547" y="333" on="1"/>
        <pt x="528" y="238" on="1"/>
        <pt x="296" y="238" on="1"/>
        <pt x="306" y="208" on="0"/>
        <pt x="341" y="168" on="0"/>
        <pt x="397" y="143" on="0"/>
        <pt x="476" y="133" on="0"/>
        <pt x="530" y="133" on="1"/>
        <pt x="561" y="133" on="0"/>
        <pt x="620" y="138" on="0"/>
        <pt x="651" y="145" on="1"/>
        <pt x="651" y="5" on="1"/>
        <pt x="627" y="-3" on="0"/>
        <pt x="550" y="-10" on="0"/>
        <pt x="506" y="-10" on="1"/>
        <pt x="337" y="-9" on="0"/>
        <pt x="151" y="114" on="0"/>
        <pt x="123" y="238" on="1"/>
        <pt x="36" y="238" on="1"/>
        <pt x="36" y="333" on="1"/>
        <pt x="111" y="333" on="1"/>
        <pt x="110" y="341" on="0"/>
        <pt x="110" y="359" on="0"/>
        <pt x="110" y="369" on="1"/>
        <pt x="110" y="379" on="0"/>
        <pt x="110" y="397" on="0"/>
        <pt x="111" y="407" on="1"/>
        <pt x="36" y="407" on="1"/>
      </contour>
    </TTGlyph>
    <TTGlyph name="Euro.tab" xMin="8" yMin="-10" xMax="605" yMax="750">
      <contour>
        <pt x="8" y="501" on="1"/>
        <pt x="93" y="501" on="1"/>
        <pt x="120" y="628" on="0"/>
        <pt x="292" y="750" on="0"/>
        <pt x="449" y="750" on="1"/>
        <pt x="503" y="750" on="0"/>
        <pt x="579" y="738" on="0"/>
        <pt x="605" y="733" on="1"/>
        <pt x="565" y="598" on="1"/>
        <pt x="552" y="601" on="0"/>
        <pt x="502" y="606" on="0"/>
        <pt x="482" y="606" on="1"/>
        <pt x="387" y="606" on="0"/>
        <pt x="286" y="559" on="0"/>
        <pt x="267" y="501" on="1"/>
        <pt x="534" y="501" on="1"/>
        <pt x="516" y="407" on="1"/>
        <pt x="248" y="407" on="1"/>
        <pt x="248" y="333" on="1"/>
        <pt x="502" y="333" on="1"/>
        <pt x="483" y="238" on="1"/>
        <pt x="267" y="238" on="1"/>
        <pt x="286" y="180" on="0"/>
        <pt x="387" y="133" on="0"/>
        <pt x="482" y="133" on="1"/>
        <pt x="512" y="133" on="0"/>
        <pt x="570" y="138" on="0"/>
        <pt x="600" y="145" on="1"/>
        <pt x="600" y="5" on="1"/>
        <pt x="577" y="-3" on="0"/>
        <pt x="501" y="-10" on="0"/>
        <pt x="459" y="-10" on="1"/>
        <pt x="297" y="-9" on="0"/>
        <pt x="120" y="113" on="0"/>
        <pt x="92" y="238" on="1"/>
        <pt x="8" y="238" on="1"/>
        <pt x="8" y="333" on="1"/>
        <pt x="80" y="333" on="1"/>
        <pt x="79" y="339" on="0"/>
        <pt x="79" y="362" on="0"/>
        <pt x="79" y="369" on="1"/>
        <pt x="79" y="376" on="0"/>
        <pt x="79" y="401" on="0"/>
        <pt x="80" y="407" on="1"/>
        <pt x="8" y="407" on="1"/>
      </contour>
    </TTGlyph>
    <TTGlyph name="F" xMin="72" yMin="0" xMax="605" yMax="740">
      <contour>
        <pt x="72" y="740" on="1"/>
        <pt x="605" y="740" on="1"/>
        <pt x="605" y="607" on="1"/>
        <pt x="243" y="607" on="1"/>
        <pt x="243" y="419" on="1"/>
        <pt x="569" y="419" on="1"/>
        <pt x="569" y="286" on="1"/>
        <pt x="243" y="286" on="1"/>
        <pt x="243" y="0" on="1"/>
        <pt x="72" y="0" on="1"/>
      </contour>
    </TTGlyph>
    <TTGlyph name="F.sc" xMin="69" yMin="0" xMax="556" yMax="577">
      <contour>
        <pt x="69" y="577" on="1"/>
        <pt x="556" y="577" on="1"/>
        <pt x="556" y="453" on="1"/>
        <pt x="231" y="453" on="1"/>
        <pt x="231" y="326" on="1"/>
        <pt x="524" y="326" on="1"/>
        <pt x="524" y="213" on="1"/>
        <pt x="231" y="213" on="1"/>
        <pt x="231" y="0" on="1"/>
        <pt x="69" y="0" on="1"/>
      </contour>
    </TTGlyph>
    <TTGlyph name="F_B.sc" xMin="69" yMin="-8" xMax="1198" yMax="585">
      <contour>
        <pt x="69" y="577" on="1"/>
        <pt x="556" y="577" on="1"/>
        <pt x="556" y="453" on="1"/>
        <pt x="231" y="453" on="1"/>
        <pt x="231" y="326" on="1"/>
        <pt x="524" y="326" on="1"/>
        <pt x="524" y="213" on="1"/>
        <pt x="231" y="213" on="1"/>
        <pt x="231" y="0" on="1"/>
        <pt x="69" y="0" on="1"/>
      </contour>
      <contour>
        <pt x="914" y="-8" on="1"/>
        <pt x="847" y="-8" on="0"/>
        <pt x="716" y="-2" on="0"/>
        <pt x="643" y="4" on="1"/>
        <pt x="643" y="573" on="1"/>
        <pt x="712" y="579" on="0"/>
        <pt x="832" y="585" on="0"/>
        <pt x="889" y="585" on="1"/>
        <pt x="1040" y="585" on="0"/>
        <pt x="1177" y="505" on="0"/>
        <pt x="1177" y="420" on="1"/>
        <pt x="1177" y="326" on="0"/>
        <pt x="1062" y="298" on="1"/>
        <pt x="1062" y="295" on="1"/>
        <pt x="1128" y="284" on="0"/>
        <pt x="1198" y="215" on="0"/>
        <pt x="1198" y="159" on="1"/>
        <pt x="1198" y="73" on="0"/>
        <pt x="1060" y="-8" on="0"/>
      </contour>
      <contour>
        <pt x="910" y="101" on="1"/>
        <pt x="976" y="101" on="0"/>
        <pt x="1039" y="137" on="0"/>
        <pt x="1039" y="175" on="1"/>
        <pt x="1039" y="213" on="0"/>
        <pt x="980" y="244" on="0"/>
        <pt x="914" y="244" on="1"/>
        <pt x="798" y="244" on="1"/>
        <pt x="798" y="105" on="1"/>
        <pt x="812" y="103" on="0"/>
        <pt x="857" y="101" on="0"/>
      </contour>
      <contour>
        <pt x="902" y="340" on="1"/>
        <pt x="965" y="340" on="0"/>
        <pt x="1018" y="371" on="0"/>
        <pt x="1018" y="409" on="1"/>
        <pt x="1018" y="446" on="0"/>
        <pt x="964" y="476" on="0"/>
        <pt x="898" y="476" on="1"/>
        <pt x="869" y="476" on="0"/>
        <pt x="818" y="474" on="0"/>
        <pt x="798" y="471" on="1"/>
        <pt x="798" y="340" on="1"/>
      </contour>
    </TTGlyph>
    <TTGlyph name="F_F.sc" xMin="69" yMin="0" xMax="1130" yMax="577">
      <contour>
        <pt x="69" y="577" on="1"/>
        <pt x="556" y="577" on="1"/>
        <pt x="556" y="453" on="1"/>
        <pt x="231" y="453" on="1"/>
        <pt x="231" y="326" on="1"/>
        <pt x="524" y="326" on="1"/>
        <pt x="524" y="213" on="1"/>
        <pt x="231" y="213" on="1"/>
        <pt x="231" y="0" on="1"/>
        <pt x="69" y="0" on="1"/>
      </contour>
      <contour>
        <pt x="643" y="577" on="1"/>
        <pt x="1130" y="577" on="1"/>
        <pt x="1130" y="453" on="1"/>
        <pt x="805" y="453" on="1"/>
        <pt x="805" y="326" on="1"/>
        <pt x="1098" y="326" on="1"/>
        <pt x="1098" y="213" on="1"/>
        <pt x="805" y="213" on="1"/>
        <pt x="805" y="0" on="1"/>
        <pt x="643" y="0" on="1"/>
      </contour>
    </TTGlyph>
    <TTGlyph name="F_F_B.sc" xMin="69" yMin="-8" xMax="1772" yMax="585">
      <contour>
        <pt x="69" y="577" on="1"/>
        <pt x="556" y="577" on="1"/>
        <pt x="556" y="453" on="1"/>
        <pt x="231" y="453" on="1"/>
        <pt x="231" y="326" on="1"/>
        <pt x="524" y="326" on="1"/>
        <pt x="524" y="213" on="1"/>
        <pt x="231" y="213" on="1"/>
        <pt x="231" y="0" on="1"/>
        <pt x="69" y="0" on="1"/>
      </contour>
      <contour>
        <pt x="643" y="577" on="1"/>
        <pt x="1130" y="577" on="1"/>
        <pt x="1130" y="453" on="1"/>
        <pt x="805" y="453" on="1"/>
        <pt x="805" y="326" on="1"/>
        <pt x="1098" y="326" on="1"/>
        <pt x="1098" y="213" on="1"/>
        <pt x="805" y="213" on="1"/>
        <pt x="805" y="0" on="1"/>
        <pt x="643" y="0" on="1"/>
      </contour>
      <contour>
        <pt x="1488" y="-8" on="1"/>
        <pt x="1421" y="-8" on="0"/>
        <pt x="1290" y="-2" on="0"/>
        <pt x="1217" y="4" on="1"/>
        <pt x="1217" y="573" on="1"/>
        <pt x="1286" y="579" on="0"/>
        <pt x="1406" y="585" on="0"/>
        <pt x="1463" y="585" on="1"/>
        <pt x="1614" y="585" on="0"/>
        <pt x="1751" y="505" on="0"/>
        <pt x="1751" y="420" on="1"/>
        <pt x="1751" y="326" on="0"/>
        <pt x="1636" y="298" on="1"/>
        <pt x="1636" y="295" on="1"/>
        <pt x="1702" y="284" on="0"/>
        <pt x="1772" y="215" on="0"/>
        <pt x="1772" y="159" on="1"/>
        <pt x="1772" y="73" on="0"/>
        <pt x="1634" y="-8" on="0"/>
      </contour>
      <contour>
        <pt x="1484" y="101" on="1"/>
        <pt x="1550" y="101" on="0"/>
        <pt x="1613" y="137" on="0"/>
        <pt x="1613" y="175" on="1"/>
        <pt x="1613" y="213" on="0"/>
        <pt x="1554" y="244" on="0"/>
        <pt x="1488" y="244" on="1"/>
        <pt x="1372" y="244" on="1"/>
        <pt x="1372" y="105" on="1"/>
        <pt x="1386" y="103" on="0"/>
        <pt x="1431" y="101" on="0"/>
      </contour>
      <contour>
        <pt x="1476" y="340" on="1"/>
        <pt x="1539" y="340" on="0"/>
        <pt x="1592" y="371" on="0"/>
        <pt x="1592" y="409" on="1"/>
        <pt x="1592" y="446" on="0"/>
        <pt x="1538" y="476" on="0"/>
        <pt x="1472" y="476" on="1"/>
        <pt x="1443" y="476" on="0"/>
        <pt x="1392" y="474" on="0"/>
        <pt x="1372" y="471" on="1"/>
        <pt x="1372" y="340" on="1"/>
      </contour>
    </TTGlyph>
    <TTGlyph name="F_F_H.sc" xMin="69" yMin="0" xMax="1829" yMax="577">
      <contour>
        <pt x="69" y="577" on="1"/>
        <pt x="556" y="577" on="1"/>
        <pt x="556" y="453" on="1"/>
        <pt x="231" y="453" on="1"/>
        <pt x="231" y="326" on="1"/>
        <pt x="524" y="326" on="1"/>
        <pt x="524" y="213" on="1"/>
        <pt x="231" y="213" on="1"/>
        <pt x="231" y="0" on="1"/>
        <pt x="69" y="0" on="1"/>
      </contour>
      <contour>
        <pt x="643" y="577" on="1"/>
        <pt x="1130" y="577" on="1"/>
        <pt x="1130" y="453" on="1"/>
        <pt x="805" y="453" on="1"/>
        <pt x="805" y="326" on="1"/>
        <pt x="1098" y="326" on="1"/>
        <pt x="1098" y="213" on="1"/>
        <pt x="805" y="213" on="1"/>
        <pt x="805" y="0" on="1"/>
        <pt x="643" y="0" on="1"/>
      </contour>
      <contour>
        <pt x="1217" y="577" on="1"/>
        <pt x="1379" y="577" on="1"/>
        <pt x="1379" y="358" on="1"/>
        <pt x="1667" y="358" on="1"/>
        <pt x="1667" y="577" on="1"/>
        <pt x="1829" y="577" on="1"/>
        <pt x="1829" y="0" on="1"/>
        <pt x="1667" y="0" on="1"/>
        <pt x="1667" y="234" on="1"/>
        <pt x="1379" y="234" on="1"/>
        <pt x="1379" y="0" on="1"/>
        <pt x="1217" y="0" on="1"/>
      </contour>
    </TTGlyph>
    <TTGlyph name="F_F_I.sc" xMin="69" yMin="0" xMax="1379" yMax="577">
      <contour>
        <pt x="69" y="577" on="1"/>
        <pt x="556" y="577" on="1"/>
        <pt x="556" y="453" on="1"/>
        <pt x="231" y="453" on="1"/>
        <pt x="231" y="326" on="1"/>
        <pt x="524" y="326" on="1"/>
        <pt x="524" y="213" on="1"/>
        <pt x="231" y="213" on="1"/>
        <pt x="231" y="0" on="1"/>
        <pt x="69" y="0" on="1"/>
      </contour>
      <contour>
        <pt x="643" y="577" on="1"/>
        <pt x="1130" y="577" on="1"/>
        <pt x="1130" y="453" on="1"/>
        <pt x="805" y="453" on="1"/>
        <pt x="805" y="326" on="1"/>
        <pt x="1098" y="326" on="1"/>
        <pt x="1098" y="213" on="1"/>
        <pt x="805" y="213" on="1"/>
        <pt x="805" y="0" on="1"/>
        <pt x="643" y="0" on="1"/>
      </contour>
      <contour>
        <pt x="1217" y="577" on="1"/>
        <pt x="1379" y="577" on="1"/>
        <pt x="1379" y="0" on="1"/>
        <pt x="1217" y="0" on="1"/>
      </contour>
    </TTGlyph>
    <TTGlyph name="F_F_J.sc" xMin="69" yMin="-167" xMax="1389" yMax="577">
      <contour>
        <pt x="69" y="577" on="1"/>
        <pt x="556" y="577" on="1"/>
        <pt x="556" y="453" on="1"/>
        <pt x="231" y="453" on="1"/>
        <pt x="231" y="326" on="1"/>
        <pt x="524" y="326" on="1"/>
        <pt x="524" y="213" on="1"/>
        <pt x="231" y="213" on="1"/>
        <pt x="231" y="0" on="1"/>
        <pt x="69" y="0" on="1"/>
      </contour>
      <contour>
        <pt x="643" y="577" on="1"/>
        <pt x="1130" y="577" on="1"/>
        <pt x="1130" y="453" on="1"/>
        <pt x="805" y="453" on="1"/>
        <pt x="805" y="326" on="1"/>
        <pt x="1098" y="326" on="1"/>
        <pt x="1098" y="213" on="1"/>
        <pt x="805" y="213" on="1"/>
        <pt x="805" y="0" on="1"/>
        <pt x="643" y="0" on="1"/>
      </contour>
      <contour>
        <pt x="1160" y="-123" on="1"/>
        <pt x="1179" y="-84" on="0"/>
        <pt x="1205" y="-17" on="0"/>
        <pt x="1221" y="47" on="0"/>
        <pt x="1227" y="114" on="0"/>
        <pt x="1227" y="155" on="1"/>
        <pt x="1227" y="577" on="1"/>
        <pt x="1389" y="577" on="1"/>
        <pt x="1389" y="143" on="1"/>
        <pt x="1389" y="102" on="0"/>
        <pt x="1376" y="29" on="0"/>
        <pt x="1347" y="-44" on="0"/>
        <pt x="1299" y="-122" on="0"/>
        <pt x="1264" y="-167" on="1"/>
      </contour>
    </TTGlyph>
    <TTGlyph name="F_F_K.sc" xMin="69" yMin="0" xMax="1820" yMax="577">
      <contour>
        <pt x="69" y="577" on="1"/>
        <pt x="556" y="577" on="1"/>
        <pt x="556" y="453" on="1"/>
        <pt x="231" y="453" on="1"/>
        <pt x="231" y="326" on="1"/>
        <pt x="524" y="326" on="1"/>
        <pt x="524" y="213" on="1"/>
        <pt x="231" y="213" on="1"/>
        <pt x="231" y="0" on="1"/>
        <pt x="69" y="0" on="1"/>
      </contour>
      <contour>
        <pt x="643" y="577" on="1"/>
        <pt x="1130" y="577" on="1"/>
        <pt x="1130" y="453" on="1"/>
        <pt x="805" y="453" on="1"/>
        <pt x="805" y="326" on="1"/>
        <pt x="1098" y="326" on="1"/>
        <pt x="1098" y="213" on="1"/>
        <pt x="805" y="213" on="1"/>
        <pt x="805" y="0" on="1"/>
        <pt x="643" y="0" on="1"/>
      </contour>
      <contour>
        <pt x="1217" y="577" on="1"/>
        <pt x="1379" y="577" on="1"/>
        <pt x="1379" y="352" on="1"/>
        <pt x="1471" y="352" on="1"/>
        <pt x="1624" y="577" on="1"/>
        <pt x="1805" y="577" on="1"/>
        <pt x="1625" y="326" on="1"/>
        <pt x="1578" y="305" on="1"/>
        <pt x="1578" y="298" on="1"/>
        <pt x="1627" y="277" on="1"/>
        <pt x="1820" y="0" on="1"/>
        <pt x="1639" y="0" on="1"/>
        <pt x="1482" y="228" on="1"/>
        <pt x="1379" y="228" on="1"/>
        <pt x="1379" y="0" on="1"/>
        <pt x="1217" y="0" on="1"/>
      </contour>
    </TTGlyph>
    <TTGlyph name="F_F_L.sc" xMin="69" yMin="0" xMax="1664" yMax="577">
      <contour>
        <pt x="1217" y="577" on="1"/>
        <pt x="1379" y="577" on="1"/>
        <pt x="1379" y="124" on="1"/>
        <pt x="1664" y="124" on="1"/>
        <pt x="1664" y="0" on="1"/>
        <pt x="1217" y="0" on="1"/>
      </contour>
      <contour>
        <pt x="69" y="577" on="1"/>
        <pt x="556" y="577" on="1"/>
        <pt x="556" y="453" on="1"/>
        <pt x="231" y="453" on="1"/>
        <pt x="231" y="326" on="1"/>
        <pt x="524" y="326" on="1"/>
        <pt x="524" y="213" on="1"/>
        <pt x="231" y="213" on="1"/>
        <pt x="231" y="0" on="1"/>
        <pt x="69" y="0" on="1"/>
      </contour>
      <contour>
        <pt x="643" y="577" on="1"/>
        <pt x="1130" y="577" on="1"/>
        <pt x="1130" y="453" on="1"/>
        <pt x="805" y="453" on="1"/>
        <pt x="805" y="326" on="1"/>
        <pt x="1098" y="326" on="1"/>
        <pt x="1098" y="213" on="1"/>
        <pt x="805" y="213" on="1"/>
        <pt x="805" y="0" on="1"/>
        <pt x="643" y="0" on="1"/>
      </contour>
    </TTGlyph>
    <TTGlyph name="F_F_T.sc" xMin="69" yMin="0" xMax="1694" yMax="577">
      <contour>
        <pt x="1340" y="452" on="1"/>
        <pt x="1148" y="452" on="1"/>
        <pt x="1148" y="577" on="1"/>
        <pt x="1694" y="577" on="1"/>
        <pt x="1694" y="452" on="1"/>
        <pt x="1502" y="452" on="1"/>
        <pt x="1502" y="0" on="1"/>
        <pt x="1340" y="0" on="1"/>
      </contour>
      <contour>
        <pt x="69" y="577" on="1"/>
        <pt x="556" y="577" on="1"/>
        <pt x="556" y="453" on="1"/>
        <pt x="231" y="453" on="1"/>
        <pt x="231" y="326" on="1"/>
        <pt x="524" y="326" on="1"/>
        <pt x="524" y="213" on="1"/>
        <pt x="231" y="213" on="1"/>
        <pt x="231" y="0" on="1"/>
        <pt x="69" y="0" on="1"/>
      </contour>
      <contour>
        <pt x="643" y="577" on="1"/>
        <pt x="1130" y="577" on="1"/>
        <pt x="1130" y="453" on="1"/>
        <pt x="805" y="453" on="1"/>
        <pt x="805" y="326" on="1"/>
        <pt x="1098" y="326" on="1"/>
        <pt x="1098" y="213" on="1"/>
        <pt x="805" y="213" on="1"/>
        <pt x="805" y="0" on="1"/>
        <pt x="643" y="0" on="1"/>
      </contour>
    </TTGlyph>
    <TTGlyph name="F_H.sc" xMin="69" yMin="0" xMax="1255" yMax="577">
      <contour>
        <pt x="69" y="577" on="1"/>
        <pt x="556" y="577" on="1"/>
        <pt x="556" y="453" on="1"/>
        <pt x="231" y="453" on="1"/>
        <pt x="231" y="326" on="1"/>
        <pt x="524" y="326" on="1"/>
        <pt x="524" y="213" on="1"/>
        <pt x="231" y="213" on="1"/>
        <pt x="231" y="0" on="1"/>
        <pt x="69" y="0" on="1"/>
      </contour>
      <contour>
        <pt x="643" y="577" on="1"/>
        <pt x="805" y="577" on="1"/>
        <pt x="805" y="358" on="1"/>
        <pt x="1093" y="358" on="1"/>
        <pt x="1093" y="577" on="1"/>
        <pt x="1255" y="577" on="1"/>
        <pt x="1255" y="0" on="1"/>
        <pt x="1093" y="0" on="1"/>
        <pt x="1093" y="234" on="1"/>
        <pt x="805" y="234" on="1"/>
        <pt x="805" y="0" on="1"/>
        <pt x="643" y="0" on="1"/>
      </contour>
    </TTGlyph>
    <TTGlyph name="F_I.sc" xMin="69" yMin="0" xMax="805" yMax="577">
      <contour>
        <pt x="69" y="577" on="1"/>
        <pt x="556" y="577" on="1"/>
        <pt x="556" y="453" on="1"/>
        <pt x="231" y="453" on="1"/>
        <pt x="231" y="326" on="1"/>
        <pt x="524" y="326" on="1"/>
        <pt x="524" y="213" on="1"/>
        <pt x="231" y="213" on="1"/>
        <pt x="231" y="0" on="1"/>
        <pt x="69" y="0" on="1"/>
      </contour>
      <contour>
        <pt x="643" y="577" on="1"/>
        <pt x="805" y="577" on="1"/>
        <pt x="805" y="0" on="1"/>
        <pt x="643" y="0" on="1"/>
      </contour>
    </TTGlyph>
    <TTGlyph name="F_J.sc" xMin="69" yMin="-167" xMax="815" yMax="577">
      <contour>
        <pt x="69" y="577" on="1"/>
        <pt x="556" y="577" on="1"/>
        <pt x="556" y="453" on="1"/>
        <pt x="231" y="453" on="1"/>
        <pt x="231" y="326" on="1"/>
        <pt x="524" y="326" on="1"/>
        <pt x="524" y="213" on="1"/>
        <pt x="231" y="213" on="1"/>
        <pt x="231" y="0" on="1"/>
        <pt x="69" y="0" on="1"/>
      </contour>
      <contour>
        <pt x="586" y="-123" on="1"/>
        <pt x="605" y="-84" on="0"/>
        <pt x="631" y="-17" on="0"/>
        <pt x="647" y="47" on="0"/>
        <pt x="653" y="114" on="0"/>
        <pt x="653" y="155" on="1"/>
        <pt x="653" y="577" on="1"/>
        <pt x="815" y="577" on="1"/>
        <pt x="815" y="143" on="1"/>
        <pt x="815" y="102" on="0"/>
        <pt x="802" y="29" on="0"/>
        <pt x="773" y="-44" on="0"/>
        <pt x="725" y="-122" on="0"/>
        <pt x="690" y="-167" on="1"/>
      </contour>
    </TTGlyph>
    <TTGlyph name="F_K.sc" xMin="69" yMin="0" xMax="1246" yMax="577">
      <contour>
        <pt x="69" y="577" on="1"/>
        <pt x="556" y="577" on="1"/>
        <pt x="556" y="453" on="1"/>
        <pt x="231" y="453" on="1"/>
        <pt x="231" y="326" on="1"/>
        <pt x="524" y="326" on="1"/>
        <pt x="524" y="213" on="1"/>
        <pt x="231" y="213" on="1"/>
        <pt x="231" y="0" on="1"/>
        <pt x="69" y="0" on="1"/>
      </contour>
      <contour>
        <pt x="643" y="577" on="1"/>
        <pt x="805" y="577" on="1"/>
        <pt x="805" y="352" on="1"/>
        <pt x="897" y="352" on="1"/>
        <pt x="1050" y="577" on="1"/>
        <pt x="1231" y="577" on="1"/>
        <pt x="1051" y="326" on="1"/>
        <pt x="1004" y="305" on="1"/>
        <pt x="1004" y="298" on="1"/>
        <pt x="1053" y="277" on="1"/>
        <pt x="1246" y="0" on="1"/>
        <pt x="1065" y="0" on="1"/>
        <pt x="908" y="228" on="1"/>
        <pt x="805" y="228" on="1"/>
        <pt x="805" y="0" on="1"/>
        <pt x="643" y="0" on="1"/>
      </contour>
    </TTGlyph>
    <TTGlyph name="F_L.sc" xMin="69" yMin="0" xMax="1090" yMax="577">
      <contour>
        <pt x="643" y="577" on="1"/>
        <pt x="805" y="577" on="1"/>
        <pt x="805" y="124" on="1"/>
        <pt x="1090" y="124" on="1"/>
        <pt x="1090" y="0" on="1"/>
        <pt x="643" y="0" on="1"/>
      </contour>
      <contour>
        <pt x="69" y="577" on="1"/>
        <pt x="556" y="577" on="1"/>
        <pt x="556" y="453" on="1"/>
        <pt x="231" y="453" on="1"/>
        <pt x="231" y="326" on="1"/>
        <pt x="524" y="326" on="1"/>
        <pt x="524" y="213" on="1"/>
        <pt x="231" y="213" on="1"/>
        <pt x="231" y="0" on="1"/>
        <pt x="69" y="0" on="1"/>
      </contour>
    </TTGlyph>
    <TTGlyph name="F_T.sc" xMin="69" yMin="0" xMax="1121" yMax="577">
      <contour>
        <pt x="767" y="452" on="1"/>
        <pt x="575" y="452" on="1"/>
        <pt x="575" y="577" on="1"/>
        <pt x="1121" y="577" on="1"/>
        <pt x="1121" y="452" on="1"/>
        <pt x="929" y="452" on="1"/>
        <pt x="929" y="0" on="1"/>
        <pt x="767" y="0" on="1"/>
      </contour>
      <contour>
        <pt x="69" y="577" on="1"/>
        <pt x="556" y="577" on="1"/>
        <pt x="556" y="453" on="1"/>
        <pt x="231" y="453" on="1"/>
        <pt x="231" y="326" on="1"/>
        <pt x="524" y="326" on="1"/>
        <pt x="524" y="213" on="1"/>
        <pt x="231" y="213" on="1"/>
        <pt x="231" y="0" on="1"/>
        <pt x="69" y="0" on="1"/>
      </contour>
    </TTGlyph>
    <TTGlyph name="G" xMin="39" yMin="-12" xMax="649" yMax="752">
      <contour>
        <pt x="412" y="-12" on="1"/>
        <pt x="222" y="-12" on="0"/>
        <pt x="39" y="176" on="0"/>
        <pt x="39" y="369" on="1"/>
        <pt x="39" y="562" on="0"/>
        <pt x="231" y="752" on="0"/>
        <pt x="429" y="752" on="1"/>
        <pt x="480" y="752" on="0"/>
        <pt x="594" y="739" on="0"/>
        <pt x="640" y="728" on="1"/>
        <pt x="640" y="591" on="1"/>
        <pt x="575" y="602" on="0"/>
        <pt x="479" y="613" on="0"/>
        <pt x="442" y="613" on="1"/>
        <pt x="377" y="613" on="0"/>
        <pt x="289" y="588" on="0"/>
        <pt x="236" y="531" on="0"/>
        <pt x="214" y="438" on="0"/>
        <pt x="214" y="369" on="1"/>
        <pt x="214" y="301" on="0"/>
        <pt x="234" y="209" on="0"/>
        <pt x="282" y="152" on="0"/>
        <pt x="360" y="128" on="0"/>
        <pt x="418" y="128" on="1"/>
        <pt x="433" y="128" on="0"/>
        <pt x="472" y="130" on="0"/>
        <pt x="492" y="132" on="1"/>
        <pt x="492" y="376" on="1"/>
        <pt x="649" y="376" on="1"/>
        <pt x="649" y="24" on="1"/>
        <pt x="589" y="8" on="0"/>
        <pt x="461" y="-12" on="0"/>
      </contour>
    </TTGlyph>
    <TTGlyph name="G.sc" xMin="39" yMin="-11" xMax="595" yMax="587">
      <contour>
        <pt x="378" y="-11" on="1"/>
        <pt x="205" y="-10" on="0"/>
        <pt x="39" y="137" on="0"/>
        <pt x="39" y="288" on="1"/>
        <pt x="39" y="587" on="0"/>
        <pt x="392" y="587" on="1"/>
        <pt x="439" y="587" on="0"/>
        <pt x="544" y="577" on="0"/>
        <pt x="586" y="569" on="1"/>
        <pt x="586" y="443" on="1"/>
        <pt x="526" y="450" on="0"/>
        <pt x="437" y="457" on="0"/>
        <pt x="405" y="457" on="1"/>
        <pt x="345" y="457" on="0"/>
        <pt x="267" y="441" on="0"/>
        <pt x="222" y="402" on="0"/>
        <pt x="205" y="337" on="0"/>
        <pt x="205" y="288" on="1"/>
        <pt x="205" y="240" on="0"/>
        <pt x="221" y="176" on="0"/>
        <pt x="262" y="138" on="0"/>
        <pt x="330" y="122" on="0"/>
        <pt x="383" y="122" on="1"/>
        <pt x="386" y="122" on="0"/>
        <pt x="404" y="122" on="0"/>
        <pt x="423" y="123" on="0"/>
        <pt x="441" y="125" on="0"/>
        <pt x="445" y="126" on="1"/>
        <pt x="445" y="293" on="1"/>
        <pt x="595" y="293" on="1"/>
        <pt x="595" y="21" on="1"/>
        <pt x="568" y="14" on="0"/>
        <pt x="510" y="2" on="0"/>
        <pt x="453" y="-6" on="0"/>
        <pt x="400" y="-11" on="0"/>
      </contour>
    </TTGlyph>
    <TTGlyph name="Gacute" xMin="39" yMin="-12" xMax="649" yMax="981">
      <contour>
        <pt x="306" y="810" on="1"/>
        <pt x="374" y="981" on="1"/>
        <pt x="545" y="981" on="1"/>
        <pt x="428" y="802" on="1"/>
      </contour>
      <contour>
        <pt x="412" y="-12" on="1"/>
        <pt x="222" y="-12" on="0"/>
        <pt x="39" y="176" on="0"/>
        <pt x="39" y="369" on="1"/>
        <pt x="39" y="562" on="0"/>
        <pt x="231" y="752" on="0"/>
        <pt x="429" y="752" on="1"/>
        <pt x="480" y="752" on="0"/>
        <pt x="594" y="739" on="0"/>
        <pt x="640" y="728" on="1"/>
        <pt x="640" y="591" on="1"/>
        <pt x="575" y="602" on="0"/>
        <pt x="479" y="613" on="0"/>
        <pt x="442" y="613" on="1"/>
        <pt x="377" y="613" on="0"/>
        <pt x="289" y="588" on="0"/>
        <pt x="236" y="531" on="0"/>
        <pt x="214" y="438" on="0"/>
        <pt x="214" y="369" on="1"/>
        <pt x="214" y="301" on="0"/>
        <pt x="234" y="209" on="0"/>
        <pt x="282" y="152" on="0"/>
        <pt x="360" y="128" on="0"/>
        <pt x="418" y="128" on="1"/>
        <pt x="433" y="128" on="0"/>
        <pt x="472" y="130" on="0"/>
        <pt x="492" y="132" on="1"/>
        <pt x="492" y="376" on="1"/>
        <pt x="649" y="376" on="1"/>
        <pt x="649" y="24" on="1"/>
        <pt x="589" y="8" on="0"/>
        <pt x="461" y="-12" on="0"/>
      </contour>
    </TTGlyph>
    <TTGlyph name="Gacute.sc" xMin="39" yMin="-11" xMax="595" yMax="777">
      <contour>
        <pt x="378" y="-11" on="1"/>
        <pt x="205" y="-10" on="0"/>
        <pt x="39" y="136" on="0"/>
        <pt x="39" y="288" on="1"/>
        <pt x="39" y="587" on="0"/>
        <pt x="392" y="587" on="1"/>
        <pt x="440" y="587" on="0"/>
        <pt x="545" y="577" on="0"/>
        <pt x="586" y="569" on="1"/>
        <pt x="586" y="440" on="1"/>
        <pt x="526" y="448" on="0"/>
        <pt x="437" y="457" on="0"/>
        <pt x="405" y="457" on="1"/>
        <pt x="347" y="457" on="0"/>
        <pt x="270" y="442" on="0"/>
        <pt x="224" y="404" on="0"/>
        <pt x="205" y="338" on="0"/>
        <pt x="205" y="288" on="1"/>
        <pt x="205" y="238" on="0"/>
        <pt x="222" y="174" on="0"/>
        <pt x="264" y="137" on="0"/>
        <pt x="332" y="122" on="0"/>
        <pt x="383" y="122" on="1"/>
        <pt x="386" y="122" on="0"/>
        <pt x="404" y="122" on="0"/>
        <pt x="423" y="123" on="0"/>
        <pt x="441" y="125" on="0"/>
        <pt x="445" y="126" on="1"/>
        <pt x="445" y="293" on="1"/>
        <pt x="595" y="293" on="1"/>
        <pt x="595" y="21" on="1"/>
        <pt x="541" y="7" on="0"/>
        <pt x="423" y="-11" on="0"/>
      </contour>
      <contour>
        <pt x="278" y="634" on="1"/>
        <pt x="336" y="777" on="1"/>
        <pt x="499" y="777" on="1"/>
        <pt x="393" y="627" on="1"/>
      </contour>
    </TTGlyph>
    <TTGlyph name="Gbreve" xMin="39" yMin="-12" xMax="649" yMax="984">
      <contour>
        <pt x="383" y="809" on="1"/>
        <pt x="324" y="809" on="0"/>
        <pt x="243" y="835" on="0"/>
        <pt x="191" y="882" on="0"/>
        <pt x="168" y="946" on="0"/>
        <pt x="168" y="984" on="1"/>
        <pt x="280" y="984" on="1"/>
        <pt x="280" y="938" on="0"/>
        <pt x="326" y="890" on="0"/>
        <pt x="383" y="890" on="1"/>
        <pt x="442" y="890" on="0"/>
        <pt x="487" y="938" on="0"/>
        <pt x="487" y="984" on="1"/>
        <pt x="600" y="984" on="1"/>
        <pt x="600" y="945" on="0"/>
        <pt x="576" y="881" on="0"/>
        <pt x="524" y="835" on="0"/>
        <pt x="441" y="809" on="0"/>
      </contour>
      <contour>
        <pt x="412" y="-12" on="1"/>
        <pt x="222" y="-12" on="0"/>
        <pt x="39" y="176" on="0"/>
        <pt x="39" y="369" on="1"/>
        <pt x="39" y="562" on="0"/>
        <pt x="231" y="752" on="0"/>
        <pt x="429" y="752" on="1"/>
        <pt x="480" y="752" on="0"/>
        <pt x="594" y="739" on="0"/>
        <pt x="640" y="728" on="1"/>
        <pt x="640" y="591" on="1"/>
        <pt x="575" y="602" on="0"/>
        <pt x="479" y="613" on="0"/>
        <pt x="442" y="613" on="1"/>
        <pt x="377" y="613" on="0"/>
        <pt x="289" y="588" on="0"/>
        <pt x="236" y="531" on="0"/>
        <pt x="214" y="438" on="0"/>
        <pt x="214" y="369" on="1"/>
        <pt x="214" y="301" on="0"/>
        <pt x="234" y="209" on="0"/>
        <pt x="282" y="152" on="0"/>
        <pt x="360" y="128" on="0"/>
        <pt x="418" y="128" on="1"/>
        <pt x="433" y="128" on="0"/>
        <pt x="472" y="130" on="0"/>
        <pt x="492" y="132" on="1"/>
        <pt x="492" y="376" on="1"/>
        <pt x="649" y="376" on="1"/>
        <pt x="649" y="24" on="1"/>
        <pt x="589" y="8" on="0"/>
        <pt x="461" y="-12" on="0"/>
      </contour>
    </TTGlyph>
    <TTGlyph name="Gbreve.sc" xMin="39" yMin="-11" xMax="595" yMax="776">
      <contour>
        <pt x="378" y="-11" on="1"/>
        <pt x="205" y="-10" on="0"/>
        <pt x="39" y="136" on="0"/>
        <pt x="39" y="288" on="1"/>
        <pt x="39" y="587" on="0"/>
        <pt x="392" y="587" on="1"/>
        <pt x="440" y="587" on="0"/>
        <pt x="545" y="577" on="0"/>
        <pt x="586" y="569" on="1"/>
        <pt x="586" y="440" on="1"/>
        <pt x="526" y="448" on="0"/>
        <pt x="437" y="457" on="0"/>
        <pt x="405" y="457" on="1"/>
        <pt x="347" y="457" on="0"/>
        <pt x="270" y="442" on="0"/>
        <pt x="224" y="404" on="0"/>
        <pt x="205" y="338" on="0"/>
        <pt x="205" y="288" on="1"/>
        <pt x="205" y="238" on="0"/>
        <pt x="222" y="174" on="0"/>
        <pt x="264" y="137" on="0"/>
        <pt x="332" y="122" on="0"/>
        <pt x="383" y="122" on="1"/>
        <pt x="386" y="122" on="0"/>
        <pt x="404" y="122" on="0"/>
        <pt x="423" y="123" on="0"/>
        <pt x="441" y="125" on="0"/>
        <pt x="445" y="126" on="1"/>
        <pt x="445" y="293" on="1"/>
        <pt x="595" y="293" on="1"/>
        <pt x="595" y="21" on="1"/>
        <pt x="541" y="7" on="0"/>
        <pt x="423" y="-11" on="0"/>
      </contour>
      <contour>
        <pt x="351" y="630" on="1"/>
        <pt x="296" y="630" on="0"/>
        <pt x="221" y="653" on="0"/>
        <pt x="174" y="692" on="0"/>
        <pt x="153" y="745" on="0"/>
        <pt x="153" y="776" on="1"/>
        <pt x="258" y="776" on="1"/>
        <pt x="258" y="741" on="0"/>
        <pt x="299" y="704" on="0"/>
        <pt x="351" y="704" on="1"/>
        <pt x="404" y="704" on="0"/>
        <pt x="444" y="741" on="0"/>
        <pt x="444" y="776" on="1"/>
        <pt x="550" y="776" on="1"/>
        <pt x="550" y="744" on="0"/>
        <pt x="529" y="691" on="0"/>
        <pt x="482" y="652" on="0"/>
        <pt x="406" y="630" on="0"/>
      </contour>
    </TTGlyph>
    <TTGlyph name="Gcircumflex" xMin="39" yMin="-12" xMax="649" yMax="992">
      <contour>
        <pt x="412" y="-12" on="1"/>
        <pt x="222" y="-12" on="0"/>
        <pt x="39" y="176" on="0"/>
        <pt x="39" y="369" on="1"/>
        <pt x="39" y="562" on="0"/>
        <pt x="231" y="752" on="0"/>
        <pt x="429" y="752" on="1"/>
        <pt x="480" y="752" on="0"/>
        <pt x="594" y="739" on="0"/>
        <pt x="640" y="728" on="1"/>
        <pt x="640" y="591" on="1"/>
        <pt x="575" y="602" on="0"/>
        <pt x="479" y="613" on="0"/>
        <pt x="442" y="613" on="1"/>
        <pt x="377" y="613" on="0"/>
        <pt x="289" y="588" on="0"/>
        <pt x="236" y="531" on="0"/>
        <pt x="214" y="438" on="0"/>
        <pt x="214" y="369" on="1"/>
        <pt x="214" y="301" on="0"/>
        <pt x="234" y="209" on="0"/>
        <pt x="282" y="152" on="0"/>
        <pt x="360" y="128" on="0"/>
        <pt x="418" y="128" on="1"/>
        <pt x="433" y="128" on="0"/>
        <pt x="472" y="130" on="0"/>
        <pt x="492" y="132" on="1"/>
        <pt x="492" y="376" on="1"/>
        <pt x="649" y="376" on="1"/>
        <pt x="649" y="24" on="1"/>
        <pt x="589" y="8" on="0"/>
        <pt x="461" y="-12" on="0"/>
      </contour>
      <contour>
        <pt x="178" y="915" on="1"/>
        <pt x="374" y="992" on="1"/>
        <pt x="573" y="915" on="1"/>
        <pt x="573" y="801" on="1"/>
        <pt x="375" y="878" on="1"/>
        <pt x="178" y="801" on="1"/>
      </contour>
    </TTGlyph>
    <TTGlyph name="Gcircumflex.sc" xMin="39" yMin="-11" xMax="595" yMax="788">
      <contour>
        <pt x="378" y="-11" on="1"/>
        <pt x="205" y="-10" on="0"/>
        <pt x="39" y="136" on="0"/>
        <pt x="39" y="288" on="1"/>
        <pt x="39" y="587" on="0"/>
        <pt x="392" y="587" on="1"/>
        <pt x="440" y="587" on="0"/>
        <pt x="545" y="577" on="0"/>
        <pt x="586" y="569" on="1"/>
        <pt x="586" y="440" on="1"/>
        <pt x="526" y="448" on="0"/>
        <pt x="437" y="457" on="0"/>
        <pt x="405" y="457" on="1"/>
        <pt x="347" y="457" on="0"/>
        <pt x="270" y="442" on="0"/>
        <pt x="224" y="404" on="0"/>
        <pt x="205" y="338" on="0"/>
        <pt x="205" y="288" on="1"/>
        <pt x="205" y="238" on="0"/>
        <pt x="222" y="174" on="0"/>
        <pt x="264" y="137" on="0"/>
        <pt x="332" y="122" on="0"/>
        <pt x="383" y="122" on="1"/>
        <pt x="386" y="122" on="0"/>
        <pt x="404" y="122" on="0"/>
        <pt x="423" y="123" on="0"/>
        <pt x="441" y="125" on="0"/>
        <pt x="445" y="126" on="1"/>
        <pt x="445" y="293" on="1"/>
        <pt x="595" y="293" on="1"/>
        <pt x="595" y="21" on="1"/>
        <pt x="541" y="7" on="0"/>
        <pt x="423" y="-11" on="0"/>
      </contour>
      <contour>
        <pt x="160" y="726" on="1"/>
        <pt x="340" y="788" on="1"/>
        <pt x="523" y="726" on="1"/>
        <pt x="523" y="622" on="1"/>
        <pt x="342" y="683" on="1"/>
        <pt x="160" y="622" on="1"/>
      </contour>
    </TTGlyph>
    <TTGlyph name="Gcommaaccent" xMin="39" yMin="-220" xMax="649" yMax="752">
      <contour>
        <pt x="298" y="-70" on="1"/>
        <pt x="470" y="-70" on="1"/>
        <pt x="382" y="-220" on="1"/>
        <pt x="255" y="-220" on="1"/>
      </contour>
      <contour>
        <pt x="412" y="-12" on="1"/>
        <pt x="222" y="-12" on="0"/>
        <pt x="39" y="176" on="0"/>
        <pt x="39" y="369" on="1"/>
        <pt x="39" y="562" on="0"/>
        <pt x="231" y="752" on="0"/>
        <pt x="429" y="752" on="1"/>
        <pt x="480" y="752" on="0"/>
        <pt x="594" y="739" on="0"/>
        <pt x="640" y="728" on="1"/>
        <pt x="640" y="591" on="1"/>
        <pt x="575" y="602" on="0"/>
        <pt x="479" y="613" on="0"/>
        <pt x="442" y="613" on="1"/>
        <pt x="377" y="613" on="0"/>
        <pt x="289" y="588" on="0"/>
        <pt x="236" y="531" on="0"/>
        <pt x="214" y="438" on="0"/>
        <pt x="214" y="369" on="1"/>
        <pt x="214" y="301" on="0"/>
        <pt x="234" y="209" on="0"/>
        <pt x="282" y="152" on="0"/>
        <pt x="360" y="128" on="0"/>
        <pt x="418" y="128" on="1"/>
        <pt x="433" y="128" on="0"/>
        <pt x="472" y="130" on="0"/>
        <pt x="492" y="132" on="1"/>
        <pt x="492" y="376" on="1"/>
        <pt x="649" y="376" on="1"/>
        <pt x="649" y="24" on="1"/>
        <pt x="589" y="8" on="0"/>
        <pt x="461" y="-12" on="0"/>
      </contour>
    </TTGlyph>
    <TTGlyph name="Gcommaaccent.sc" xMin="39" yMin="-172" xMax="595" yMax="587">
      <contour>
        <pt x="378" y="-11" on="1"/>
        <pt x="205" y="-10" on="0"/>
        <pt x="39" y="136" on="0"/>
        <pt x="39" y="288" on="1"/>
        <pt x="39" y="587" on="0"/>
        <pt x="392" y="587" on="1"/>
        <pt x="440" y="587" on="0"/>
        <pt x="545" y="577" on="0"/>
        <pt x="586" y="569" on="1"/>
        <pt x="586" y="440" on="1"/>
        <pt x="526" y="448" on="0"/>
        <pt x="437" y="457" on="0"/>
        <pt x="405" y="457" on="1"/>
        <pt x="347" y="457" on="0"/>
        <pt x="270" y="442" on="0"/>
        <pt x="224" y="404" on="0"/>
        <pt x="205" y="338" on="0"/>
        <pt x="205" y="288" on="1"/>
        <pt x="205" y="238" on="0"/>
        <pt x="222" y="174" on="0"/>
        <pt x="264" y="137" on="0"/>
        <pt x="332" y="122" on="0"/>
        <pt x="383" y="122" on="1"/>
        <pt x="386" y="122" on="0"/>
        <pt x="404" y="122" on="0"/>
        <pt x="423" y="123" on="0"/>
        <pt x="441" y="125" on="0"/>
        <pt x="445" y="126" on="1"/>
        <pt x="445" y="293" on="1"/>
        <pt x="595" y="293" on="1"/>
        <pt x="595" y="21" on="1"/>
        <pt x="541" y="7" on="0"/>
        <pt x="423" y="-11" on="0"/>
      </contour>
      <contour>
        <pt x="268" y="-55" on="1"/>
        <pt x="432" y="-55" on="1"/>
        <pt x="351" y="-172" on="1"/>
        <pt x="231" y="-172" on="1"/>
      </contour>
    </TTGlyph>
    <TTGlyph name="Gdotaccent" xMin="39" yMin="-12" xMax="649" yMax="983">
      <contour>
        <pt x="387" y="802" on="1"/>
        <pt x="337" y="802" on="0"/>
        <pt x="294" y="844" on="0"/>
        <pt x="294" y="892" on="1"/>
        <pt x="294" y="940" on="0"/>
        <pt x="337" y="983" on="0"/>
        <pt x="387" y="983" on="1"/>
        <pt x="437" y="983" on="0"/>
        <pt x="479" y="939" on="0"/>
        <pt x="479" y="892" on="1"/>
        <pt x="479" y="846" on="0"/>
        <pt x="437" y="802" on="0"/>
      </contour>
      <contour>
        <pt x="412" y="-12" on="1"/>
        <pt x="222" y="-12" on="0"/>
        <pt x="39" y="176" on="0"/>
        <pt x="39" y="369" on="1"/>
        <pt x="39" y="562" on="0"/>
        <pt x="231" y="752" on="0"/>
        <pt x="429" y="752" on="1"/>
        <pt x="480" y="752" on="0"/>
        <pt x="594" y="739" on="0"/>
        <pt x="640" y="728" on="1"/>
        <pt x="640" y="591" on="1"/>
        <pt x="575" y="602" on="0"/>
        <pt x="479" y="613" on="0"/>
        <pt x="442" y="613" on="1"/>
        <pt x="377" y="613" on="0"/>
        <pt x="289" y="588" on="0"/>
        <pt x="236" y="531" on="0"/>
        <pt x="214" y="438" on="0"/>
        <pt x="214" y="369" on="1"/>
        <pt x="214" y="301" on="0"/>
        <pt x="234" y="209" on="0"/>
        <pt x="282" y="152" on="0"/>
        <pt x="360" y="128" on="0"/>
        <pt x="418" y="128" on="1"/>
        <pt x="433" y="128" on="0"/>
        <pt x="472" y="130" on="0"/>
        <pt x="492" y="132" on="1"/>
        <pt x="492" y="376" on="1"/>
        <pt x="649" y="376" on="1"/>
        <pt x="649" y="24" on="1"/>
        <pt x="589" y="8" on="0"/>
        <pt x="461" y="-12" on="0"/>
      </contour>
    </TTGlyph>
    <TTGlyph name="Gdotaccent.sc" xMin="39" yMin="-11" xMax="595" yMax="788">
      <contour>
        <pt x="378" y="-11" on="1"/>
        <pt x="205" y="-10" on="0"/>
        <pt x="39" y="136" on="0"/>
        <pt x="39" y="288" on="1"/>
        <pt x="39" y="587" on="0"/>
        <pt x="392" y="587" on="1"/>
        <pt x="440" y="587" on="0"/>
        <pt x="545" y="577" on="0"/>
        <pt x="586" y="569" on="1"/>
        <pt x="586" y="440" on="1"/>
        <pt x="526" y="448" on="0"/>
        <pt x="437" y="457" on="0"/>
        <pt x="405" y="457" on="1"/>
        <pt x="347" y="457" on="0"/>
        <pt x="270" y="442" on="0"/>
        <pt x="224" y="404" on="0"/>
        <pt x="205" y="338" on="0"/>
        <pt x="205" y="288" on="1"/>
        <pt x="205" y="238" on="0"/>
        <pt x="222" y="174" on="0"/>
        <pt x="264" y="137" on="0"/>
        <pt x="332" y="122" on="0"/>
        <pt x="383" y="122" on="1"/>
        <pt x="386" y="122" on="0"/>
        <pt x="404" y="122" on="0"/>
        <pt x="423" y="123" on="0"/>
        <pt x="441" y="125" on="0"/>
        <pt x="445" y="126" on="1"/>
        <pt x="445" y="293" on="1"/>
        <pt x="595" y="293" on="1"/>
        <pt x="595" y="21" on="1"/>
        <pt x="541" y="7" on="0"/>
        <pt x="423" y="-11" on="0"/>
      </contour>
      <contour>
        <pt x="354" y="622" on="1"/>
        <pt x="308" y="622" on="0"/>
        <pt x="267" y="661" on="0"/>
        <pt x="267" y="705" on="1"/>
        <pt x="267" y="749" on="0"/>
        <pt x="308" y="788" on="0"/>
        <pt x="354" y="788" on="1"/>
        <pt x="402" y="788" on="0"/>
        <pt x="441" y="747" on="0"/>
        <pt x="441" y="705" on="1"/>
        <pt x="441" y="663" on="0"/>
        <pt x="402" y="622" on="0"/>
      </contour>
    </TTGlyph>
    <TTGlyph name="H" xMin="72" yMin="0" xMax="742" yMax="740">
      <contour>
        <pt x="72" y="740" on="1"/>
        <pt x="243" y="740" on="1"/>
        <pt x="243" y="446" on="1"/>
        <pt x="572" y="446" on="1"/>
        <pt x="572" y="740" on="1"/>
        <pt x="742" y="740" on="1"/>
        <pt x="742" y="0" on="1"/>
        <pt x="572" y="0" on="1"/>
        <pt x="572" y="313" on="1"/>
        <pt x="243" y="313" on="1"/>
        <pt x="243" y="0" on="1"/>
        <pt x="72" y="0" on="1"/>
      </contour>
    </TTGlyph>
    <TTGlyph name="H.sc" xMin="69" yMin="0" xMax="681" yMax="577">
      <contour>
        <pt x="69" y="577" on="1"/>
        <pt x="231" y="577" on="1"/>
        <pt x="231" y="358" on="1"/>
        <pt x="519" y="358" on="1"/>
        <pt x="519" y="577" on="1"/>
        <pt x="681" y="577" on="1"/>
        <pt x="681" y="0" on="1"/>
        <pt x="519" y="0" on="1"/>
        <pt x="519" y="234" on="1"/>
        <pt x="231" y="234" on="1"/>
        <pt x="231" y="0" on="1"/>
        <pt x="69" y="0" on="1"/>
      </contour>
    </TTGlyph>
    <TTGlyph name="Hbar" xMin="6" yMin="0" xMax="828" yMax="740">
      <contour>
        <pt x="6" y="619" on="1"/>
        <pt x="80" y="619" on="1"/>
        <pt x="80" y="740" on="1"/>
        <pt x="251" y="740" on="1"/>
        <pt x="251" y="619" on="1"/>
        <pt x="580" y="619" on="1"/>
        <pt x="580" y="740" on="1"/>
        <pt x="750" y="740" on="1"/>
        <pt x="750" y="619" on="1"/>
        <pt x="828" y="619" on="1"/>
        <pt x="828" y="539" on="1"/>
        <pt x="750" y="539" on="1"/>
        <pt x="750" y="0" on="1"/>
        <pt x="580" y="0" on="1"/>
        <pt x="580" y="313" on="1"/>
        <pt x="251" y="313" on="1"/>
        <pt x="251" y="0" on="1"/>
        <pt x="80" y="0" on="1"/>
        <pt x="80" y="539" on="1"/>
        <pt x="6" y="539" on="1"/>
      </contour>
      <contour>
        <pt x="580" y="446" on="1"/>
        <pt x="580" y="539" on="1"/>
        <pt x="251" y="539" on="1"/>
        <pt x="251" y="446" on="1"/>
      </contour>
    </TTGlyph>
    <TTGlyph name="Hbar.sc" xMin="12" yMin="0" xMax="755" yMax="577">
      <contour>
        <pt x="12" y="491" on="1"/>
        <pt x="76" y="491" on="1"/>
        <pt x="76" y="577" on="1"/>
        <pt x="238" y="577" on="1"/>
        <pt x="238" y="491" on="1"/>
        <pt x="526" y="491" on="1"/>
        <pt x="526" y="577" on="1"/>
        <pt x="687" y="577" on="1"/>
        <pt x="687" y="491" on="1"/>
        <pt x="755" y="491" on="1"/>
        <pt x="755" y="418" on="1"/>
        <pt x="687" y="418" on="1"/>
        <pt x="687" y="0" on="1"/>
        <pt x="526" y="0" on="1"/>
        <pt x="526" y="223" on="1"/>
        <pt x="238" y="223" on="1"/>
        <pt x="238" y="0" on="1"/>
        <pt x="76" y="0" on="1"/>
        <pt x="76" y="418" on="1"/>
        <pt x="12" y="418" on="1"/>
      </contour>
      <contour>
        <pt x="526" y="347" on="1"/>
        <pt x="526" y="418" on="1"/>
        <pt x="238" y="418" on="1"/>
        <pt x="238" y="347" on="1"/>
      </contour>
    </TTGlyph>
    <TTGlyph name="Hcircumflex" xMin="72" yMin="0" xMax="742" yMax="992">
      <contour>
        <pt x="72" y="740" on="1"/>
        <pt x="243" y="740" on="1"/>
        <pt x="243" y="446" on="1"/>
        <pt x="572" y="446" on="1"/>
        <pt x="572" y="740" on="1"/>
        <pt x="742" y="740" on="1"/>
        <pt x="742" y="0" on="1"/>
        <pt x="572" y="0" on="1"/>
        <pt x="572" y="313" on="1"/>
        <pt x="243" y="313" on="1"/>
        <pt x="243" y="0" on="1"/>
        <pt x="72" y="0" on="1"/>
      </contour>
      <contour>
        <pt x="208" y="915" on="1"/>
        <pt x="404" y="992" on="1"/>
        <pt x="603" y="915" on="1"/>
        <pt x="603" y="801" on="1"/>
        <pt x="405" y="878" on="1"/>
        <pt x="208" y="801" on="1"/>
      </contour>
    </TTGlyph>
    <TTGlyph name="Hcircumflex.sc" xMin="69" yMin="0" xMax="681" yMax="788">
      <contour>
        <pt x="69" y="577" on="1"/>
        <pt x="231" y="577" on="1"/>
        <pt x="231" y="358" on="1"/>
        <pt x="519" y="358" on="1"/>
        <pt x="519" y="577" on="1"/>
        <pt x="681" y="577" on="1"/>
        <pt x="681" y="0" on="1"/>
        <pt x="519" y="0" on="1"/>
        <pt x="519" y="234" on="1"/>
        <pt x="231" y="234" on="1"/>
        <pt x="231" y="0" on="1"/>
        <pt x="69" y="0" on="1"/>
      </contour>
      <contour>
        <pt x="193" y="726" on="1"/>
        <pt x="373" y="788" on="1"/>
        <pt x="556" y="726" on="1"/>
        <pt x="556" y="622" on="1"/>
        <pt x="374" y="683" on="1"/>
        <pt x="193" y="622" on="1"/>
      </contour>
    </TTGlyph>
    <TTGlyph name="Hdotbelow" xMin="72" yMin="-205" xMax="742" yMax="740">
      <contour>
        <pt x="72" y="740" on="1"/>
        <pt x="243" y="740" on="1"/>
        <pt x="243" y="446" on="1"/>
        <pt x="572" y="446" on="1"/>
        <pt x="572" y="740" on="1"/>
        <pt x="742" y="740" on="1"/>
        <pt x="742" y="0" on="1"/>
        <pt x="572" y="0" on="1"/>
        <pt x="572" y="313" on="1"/>
        <pt x="243" y="313" on="1"/>
        <pt x="243" y="0" on="1"/>
        <pt x="72" y="0" on="1"/>
      </contour>
      <contour>
        <pt x="408" y="-205" on="1"/>
        <pt x="369" y="-205" on="0"/>
        <pt x="335" y="-172" on="0"/>
        <pt x="335" y="-134" on="1"/>
        <pt x="335" y="-96" on="0"/>
        <pt x="369" y="-63" on="0"/>
        <pt x="408" y="-63" on="1"/>
        <pt x="448" y="-63" on="0"/>
        <pt x="482" y="-97" on="0"/>
        <pt x="482" y="-134" on="1"/>
        <pt x="482" y="-171" on="0"/>
        <pt x="448" y="-205" on="0"/>
      </contour>
    </TTGlyph>
    <TTGlyph name="Hdotbelow.sc" xMin="69" yMin="-168" xMax="681" yMax="577">
      <contour>
        <pt x="69" y="577" on="1"/>
        <pt x="231" y="577" on="1"/>
        <pt x="231" y="358" on="1"/>
        <pt x="519" y="358" on="1"/>
        <pt x="519" y="577" on="1"/>
        <pt x="681" y="577" on="1"/>
        <pt x="681" y="0" on="1"/>
        <pt x="519" y="0" on="1"/>
        <pt x="519" y="234" on="1"/>
        <pt x="231" y="234" on="1"/>
        <pt x="231" y="0" on="1"/>
        <pt x="69" y="0" on="1"/>
      </contour>
      <contour>
        <pt x="375" y="-168" on="1"/>
        <pt x="339" y="-168" on="0"/>
        <pt x="308" y="-138" on="0"/>
        <pt x="308" y="-105" on="1"/>
        <pt x="308" y="-72" on="0"/>
        <pt x="339" y="-42" on="0"/>
        <pt x="375" y="-42" on="1"/>
        <pt x="413" y="-42" on="0"/>
        <pt x="443" y="-73" on="0"/>
        <pt x="443" y="-105" on="1"/>
        <pt x="443" y="-137" on="0"/>
        <pt x="413" y="-168" on="0"/>
      </contour>
    </TTGlyph>
    <TTGlyph name="I" xMin="72" yMin="0" xMax="243" yMax="740">
      <contour>
        <pt x="72" y="740" on="1"/>
        <pt x="243" y="740" on="1"/>
        <pt x="243" y="0" on="1"/>
        <pt x="72" y="0" on="1"/>
      </contour>
    </TTGlyph>
    <TTGlyph name="I.sc" xMin="69" yMin="0" xMax="231" yMax="577">
      <contour>
        <pt x="69" y="577" on="1"/>
        <pt x="231" y="577" on="1"/>
        <pt x="231" y="0" on="1"/>
        <pt x="69" y="0" on="1"/>
      </contour>
    </TTGlyph>
    <TTGlyph name="IJ" xMin="72" yMin="-207" xMax="560" yMax="740">
      <contour>
        <pt x="72" y="740" on="1"/>
        <pt x="243" y="740" on="1"/>
        <pt x="243" y="0" on="1"/>
        <pt x="72" y="0" on="1"/>
      </contour>
      <contour>
        <pt x="313" y="-158" on="1"/>
        <pt x="335" y="-109" on="0"/>
        <pt x="364" y="-25" on="0"/>
        <pt x="382" y="57" on="0"/>
        <pt x="389" y="143" on="0"/>
        <pt x="389" y="195" on="1"/>
        <pt x="389" y="740" on="1"/>
        <pt x="560" y="740" on="1"/>
        <pt x="560" y="182" on="1"/>
        <pt x="560" y="130" on="0"/>
        <pt x="546" y="39" on="0"/>
        <pt x="513" y="-53" on="0"/>
        <pt x="461" y="-150" on="0"/>
        <pt x="422" y="-207" on="1"/>
      </contour>
    </TTGlyph>
    <TTGlyph name="Iacute" xMin="72" yMin="0" xMax="331" yMax="981">
      <contour>
        <pt x="72" y="740" on="1"/>
        <pt x="243" y="740" on="1"/>
        <pt x="243" y="0" on="1"/>
        <pt x="72" y="0" on="1"/>
      </contour>
      <contour>
        <pt x="92" y="810" on="1"/>
        <pt x="160" y="981" on="1"/>
        <pt x="331" y="981" on="1"/>
        <pt x="214" y="802" on="1"/>
      </contour>
    </TTGlyph>
    <TTGlyph name="Iacute.sc" xMin="69" yMin="0" xMax="310" yMax="777">
      <contour>
        <pt x="69" y="577" on="1"/>
        <pt x="231" y="577" on="1"/>
        <pt x="231" y="0" on="1"/>
        <pt x="69" y="0" on="1"/>
      </contour>
      <contour>
        <pt x="88" y="634" on="1"/>
        <pt x="147" y="777" on="1"/>
        <pt x="310" y="777" on="1"/>
        <pt x="204" y="627" on="1"/>
      </contour>
    </TTGlyph>
    <TTGlyph name="Ibreve" xMin="-58" yMin="0" xMax="374" yMax="984">
      <contour>
        <pt x="72" y="740" on="1"/>
        <pt x="243" y="740" on="1"/>
        <pt x="243" y="0" on="1"/>
        <pt x="72" y="0" on="1"/>
      </contour>
      <contour>
        <pt x="157" y="809" on="1"/>
        <pt x="98" y="809" on="0"/>
        <pt x="17" y="835" on="0"/>
        <pt x="-35" y="882" on="0"/>
        <pt x="-58" y="946" on="0"/>
        <pt x="-58" y="984" on="1"/>
        <pt x="54" y="984" on="1"/>
        <pt x="54" y="938" on="0"/>
        <pt x="100" y="890" on="0"/>
        <pt x="157" y="890" on="1"/>
        <pt x="216" y="890" on="0"/>
        <pt x="261" y="938" on="0"/>
        <pt x="261" y="984" on="1"/>
        <pt x="374" y="984" on="1"/>
        <pt x="374" y="945" on="0"/>
        <pt x="350" y="881" on="0"/>
        <pt x="298" y="835" on="0"/>
        <pt x="215" y="809" on="0"/>
      </contour>
    </TTGlyph>
    <TTGlyph name="Ibreve.sc" xMin="-48" yMin="0" xMax="348" yMax="776">
      <contour>
        <pt x="69" y="577" on="1"/>
        <pt x="231" y="577" on="1"/>
        <pt x="231" y="0" on="1"/>
        <pt x="69" y="0" on="1"/>
      </contour>
      <contour>
        <pt x="150" y="630" on="1"/>
        <pt x="95" y="630" on="0"/>
        <pt x="20" y="653" on="0"/>
        <pt x="-27" y="692" on="0"/>
        <pt x="-48" y="745" on="0"/>
        <pt x="-48" y="776" on="1"/>
        <pt x="57" y="776" on="1"/>
        <pt x="57" y="741" on="0"/>
        <pt x="97" y="704" on="0"/>
        <pt x="150" y="704" on="1"/>
        <pt x="203" y="704" on="0"/>
        <pt x="243" y="741" on="0"/>
        <pt x="243" y="776" on="1"/>
        <pt x="348" y="776" on="1"/>
        <pt x="348" y="744" on="0"/>
        <pt x="327" y="691" on="0"/>
        <pt x="280" y="652" on="0"/>
        <pt x="204" y="630" on="0"/>
      </contour>
    </TTGlyph>
    <TTGlyph name="Icircumflex" xMin="-37" yMin="0" xMax="358" yMax="992">
      <contour>
        <pt x="72" y="740" on="1"/>
        <pt x="243" y="740" on="1"/>
        <pt x="243" y="0" on="1"/>
        <pt x="72" y="0" on="1"/>
      </contour>
      <contour>
        <pt x="-37" y="915" on="1"/>
        <pt x="159" y="992" on="1"/>
        <pt x="358" y="915" on="1"/>
        <pt x="358" y="801" on="1"/>
        <pt x="160" y="878" on="1"/>
        <pt x="-37" y="801" on="1"/>
      </contour>
    </TTGlyph>
    <TTGlyph name="Icircumflex.sc" xMin="-29" yMin="0" xMax="334" yMax="788">
      <contour>
        <pt x="69" y="577" on="1"/>
        <pt x="231" y="577" on="1"/>
        <pt x="231" y="0" on="1"/>
        <pt x="69" y="0" on="1"/>
      </contour>
      <contour>
        <pt x="-29" y="726" on="1"/>
        <pt x="151" y="788" on="1"/>
        <pt x="334" y="726" on="1"/>
        <pt x="334" y="622" on="1"/>
        <pt x="153" y="683" on="1"/>
        <pt x="-29" y="622" on="1"/>
      </contour>
    </TTGlyph>
    <TTGlyph name="Idblgrave" xMin="-107" yMin="0" xMax="330" yMax="978">
      <contour>
        <pt x="72" y="740" on="1"/>
        <pt x="243" y="740" on="1"/>
        <pt x="243" y="0" on="1"/>
        <pt x="72" y="0" on="1"/>
      </contour>
      <contour>
        <pt x="11" y="800" on="1"/>
        <pt x="-107" y="978" on="1"/>
        <pt x="56" y="978" on="1"/>
        <pt x="123" y="811" on="1"/>
      </contour>
      <contour>
        <pt x="218" y="800" on="1"/>
        <pt x="100" y="978" on="1"/>
        <pt x="263" y="978" on="1"/>
        <pt x="330" y="811" on="1"/>
      </contour>
    </TTGlyph>
    <TTGlyph name="Idblgrave.sc" xMin="-94" yMin="0" xMax="312" yMax="777">
      <contour>
        <pt x="69" y="577" on="1"/>
        <pt x="231" y="577" on="1"/>
        <pt x="231" y="0" on="1"/>
        <pt x="69" y="0" on="1"/>
      </contour>
      <contour>
        <pt x="13" y="626" on="1"/>
        <pt x="-94" y="777" on="1"/>
        <pt x="62" y="777" on="1"/>
        <pt x="120" y="634" on="1"/>
      </contour>
      <contour>
        <pt x="204" y="626" on="1"/>
        <pt x="97" y="777" on="1"/>
        <pt x="253" y="777" on="1"/>
        <pt x="312" y="634" on="1"/>
      </contour>
    </TTGlyph>
    <TTGlyph name="Idieresis" xMin="-77" yMin="0" xMax="397" yMax="985">
      <contour>
        <pt x="72" y="740" on="1"/>
        <pt x="243" y="740" on="1"/>
        <pt x="243" y="0" on="1"/>
        <pt x="72" y="0" on="1"/>
      </contour>
      <contour>
        <pt x="16" y="805" on="1"/>
        <pt x="-33" y="805" on="0"/>
        <pt x="-77" y="847" on="0"/>
        <pt x="-77" y="895" on="1"/>
        <pt x="-77" y="943" on="0"/>
        <pt x="-33" y="985" on="0"/>
        <pt x="16" y="985" on="1"/>
        <pt x="66" y="985" on="0"/>
        <pt x="108" y="941" on="0"/>
        <pt x="108" y="895" on="1"/>
        <pt x="108" y="848" on="0"/>
        <pt x="66" y="805" on="0"/>
      </contour>
      <contour>
        <pt x="304" y="805" on="1"/>
        <pt x="254" y="805" on="0"/>
        <pt x="212" y="847" on="0"/>
        <pt x="212" y="895" on="1"/>
        <pt x="212" y="943" on="0"/>
        <pt x="254" y="985" on="0"/>
        <pt x="304" y="985" on="1"/>
        <pt x="354" y="985" on="0"/>
        <pt x="397" y="941" on="0"/>
        <pt x="397" y="895" on="1"/>
        <pt x="397" y="848" on="0"/>
        <pt x="354" y="805" on="0"/>
      </contour>
    </TTGlyph>
    <TTGlyph name="Idieresis.sc" xMin="-65" yMin="0" xMax="371" yMax="789">
      <contour>
        <pt x="69" y="577" on="1"/>
        <pt x="231" y="577" on="1"/>
        <pt x="231" y="0" on="1"/>
        <pt x="69" y="0" on="1"/>
      </contour>
      <contour>
        <pt x="22" y="623" on="1"/>
        <pt x="-24" y="623" on="0"/>
        <pt x="-65" y="662" on="0"/>
        <pt x="-65" y="706" on="1"/>
        <pt x="-65" y="749" on="0"/>
        <pt x="-24" y="789" on="0"/>
        <pt x="22" y="789" on="1"/>
        <pt x="70" y="789" on="0"/>
        <pt x="109" y="748" on="0"/>
        <pt x="109" y="706" on="1"/>
        <pt x="109" y="663" on="0"/>
        <pt x="70" y="623" on="0"/>
      </contour>
      <contour>
        <pt x="284" y="623" on="1"/>
        <pt x="237" y="623" on="0"/>
        <pt x="197" y="662" on="0"/>
        <pt x="197" y="706" on="1"/>
        <pt x="197" y="749" on="0"/>
        <pt x="237" y="789" on="0"/>
        <pt x="284" y="789" on="1"/>
        <pt x="331" y="789" on="0"/>
        <pt x="371" y="748" on="0"/>
        <pt x="371" y="706" on="1"/>
        <pt x="371" y="663" on="0"/>
        <pt x="331" y="623" on="0"/>
      </contour>
    </TTGlyph>
    <TTGlyph name="Idotaccent" xMin="66" yMin="0" xMax="251" yMax="983">
      <contour>
        <pt x="72" y="740" on="1"/>
        <pt x="243" y="740" on="1"/>
        <pt x="243" y="0" on="1"/>
        <pt x="72" y="0" on="1"/>
      </contour>
      <contour>
        <pt x="159" y="802" on="1"/>
        <pt x="109" y="802" on="0"/>
        <pt x="66" y="844" on="0"/>
        <pt x="66" y="892" on="1"/>
        <pt x="66" y="940" on="0"/>
        <pt x="109" y="983" on="0"/>
        <pt x="159" y="983" on="1"/>
        <pt x="209" y="983" on="0"/>
        <pt x="251" y="939" on="0"/>
        <pt x="251" y="892" on="1"/>
        <pt x="251" y="846" on="0"/>
        <pt x="209" y="802" on="0"/>
      </contour>
    </TTGlyph>
    <TTGlyph name="Idotaccent.sc" xMin="64" yMin="0" xMax="238" yMax="788">
      <contour>
        <pt x="69" y="577" on="1"/>
        <pt x="231" y="577" on="1"/>
        <pt x="231" y="0" on="1"/>
        <pt x="69" y="0" on="1"/>
      </contour>
      <contour>
        <pt x="151" y="622" on="1"/>
        <pt x="105" y="622" on="0"/>
        <pt x="64" y="661" on="0"/>
        <pt x="64" y="705" on="1"/>
        <pt x="64" y="749" on="0"/>
        <pt x="105" y="788" on="0"/>
        <pt x="151" y="788" on="1"/>
        <pt x="199" y="788" on="0"/>
        <pt x="238" y="747" on="0"/>
        <pt x="238" y="705" on="1"/>
        <pt x="238" y="663" on="0"/>
        <pt x="199" y="622" on="0"/>
      </contour>
    </TTGlyph>
    <TTGlyph name="Idotbelow" xMin="72" yMin="-205" xMax="243" yMax="740">
      <contour>
        <pt x="72" y="740" on="1"/>
        <pt x="243" y="740" on="1"/>
        <pt x="243" y="0" on="1"/>
        <pt x="72" y="0" on="1"/>
      </contour>
      <contour>
        <pt x="158" y="-205" on="1"/>
        <pt x="119" y="-205" on="0"/>
        <pt x="85" y="-172" on="0"/>
        <pt x="85" y="-134" on="1"/>
        <pt x="85" y="-96" on="0"/>
        <pt x="119" y="-63" on="0"/>
        <pt x="158" y="-63" on="1"/>
        <pt x="198" y="-63" on="0"/>
        <pt x="232" y="-97" on="0"/>
        <pt x="232" y="-134" on="1"/>
        <pt x="232" y="-171" on="0"/>
        <pt x="198" y="-205" on="0"/>
      </contour>
    </TTGlyph>
    <TTGlyph name="Idotbelow.sc" xMin="69" yMin="-168" xMax="231" yMax="577">
      <contour>
        <pt x="69" y="577" on="1"/>
        <pt x="231" y="577" on="1"/>
        <pt x="231" y="0" on="1"/>
        <pt x="69" y="0" on="1"/>
      </contour>
      <contour>
        <pt x="151" y="-168" on="1"/>
        <pt x="115" y="-168" on="0"/>
        <pt x="83" y="-138" on="0"/>
        <pt x="83" y="-105" on="1"/>
        <pt x="83" y="-72" on="0"/>
        <pt x="115" y="-42" on="0"/>
        <pt x="151" y="-42" on="1"/>
        <pt x="188" y="-42" on="0"/>
        <pt x="219" y="-73" on="0"/>
        <pt x="219" y="-105" on="1"/>
        <pt x="219" y="-137" on="0"/>
        <pt x="188" y="-168" on="0"/>
      </contour>
    </TTGlyph>
    <TTGlyph name="Igrave" xMin="-9" yMin="0" xMax="243" yMax="981">
      <contour>
        <pt x="72" y="740" on="1"/>
        <pt x="243" y="740" on="1"/>
        <pt x="243" y="0" on="1"/>
        <pt x="72" y="0" on="1"/>
      </contour>
      <contour>
        <pt x="109" y="802" on="1"/>
        <pt x="-9" y="981" on="1"/>
        <pt x="163" y="981" on="1"/>
        <pt x="230" y="813" on="1"/>
      </contour>
    </TTGlyph>
    <TTGlyph name="Igrave.sc" xMin="-1" yMin="0" xMax="231" yMax="777">
      <contour>
        <pt x="69" y="577" on="1"/>
        <pt x="231" y="577" on="1"/>
        <pt x="231" y="0" on="1"/>
        <pt x="69" y="0" on="1"/>
      </contour>
      <contour>
        <pt x="105" y="627" on="1"/>
        <pt x="-1" y="777" on="1"/>
        <pt x="162" y="777" on="1"/>
        <pt x="220" y="635" on="1"/>
      </contour>
    </TTGlyph>
    <TTGlyph name="Iinvertedbreve" xMin="-56" yMin="0" xMax="377" yMax="992">
      <contour>
        <pt x="72" y="740" on="1"/>
        <pt x="243" y="740" on="1"/>
        <pt x="243" y="0" on="1"/>
        <pt x="72" y="0" on="1"/>
      </contour>
      <contour>
        <pt x="264" y="817" on="1"/>
        <pt x="264" y="863" on="0"/>
        <pt x="218" y="910" on="0"/>
        <pt x="160" y="910" on="1"/>
        <pt x="103" y="910" on="0"/>
        <pt x="57" y="863" on="0"/>
        <pt x="57" y="817" on="1"/>
        <pt x="-56" y="817" on="1"/>
        <pt x="-56" y="855" on="0"/>
        <pt x="-32" y="919" on="0"/>
        <pt x="19" y="966" on="0"/>
        <pt x="101" y="992" on="0"/>
        <pt x="160" y="992" on="1"/>
        <pt x="218" y="992" on="0"/>
        <pt x="301" y="966" on="0"/>
        <pt x="353" y="920" on="0"/>
        <pt x="377" y="856" on="0"/>
        <pt x="377" y="817" on="1"/>
      </contour>
    </TTGlyph>
    <TTGlyph name="Iinvertedbreve.sc" xMin="-46" yMin="0" xMax="351" yMax="783">
      <contour>
        <pt x="69" y="577" on="1"/>
        <pt x="231" y="577" on="1"/>
        <pt x="231" y="0" on="1"/>
        <pt x="69" y="0" on="1"/>
      </contour>
      <contour>
        <pt x="246" y="638" on="1"/>
        <pt x="246" y="673" on="0"/>
        <pt x="206" y="709" on="0"/>
        <pt x="153" y="709" on="1"/>
        <pt x="100" y="709" on="0"/>
        <pt x="60" y="673" on="0"/>
        <pt x="60" y="638" on="1"/>
        <pt x="-46" y="638" on="1"/>
        <pt x="-46" y="668" on="0"/>
        <pt x="-25" y="721" on="0"/>
        <pt x="22" y="760" on="0"/>
        <pt x="98" y="783" on="0"/>
        <pt x="153" y="783" on="1"/>
        <pt x="207" y="783" on="0"/>
        <pt x="283" y="761" on="0"/>
        <pt x="330" y="723" on="0"/>
        <pt x="351" y="669" on="0"/>
        <pt x="351" y="638" on="1"/>
      </contour>
    </TTGlyph>
    <TTGlyph name="Imacron" xMin="-33" yMin="0" xMax="356" yMax="953">
      <contour>
        <pt x="72" y="740" on="1"/>
        <pt x="243" y="740" on="1"/>
        <pt x="243" y="0" on="1"/>
        <pt x="72" y="0" on="1"/>
      </contour>
      <contour>
        <pt x="-33" y="953" on="1"/>
        <pt x="356" y="953" on="1"/>
        <pt x="356" y="841" on="1"/>
        <pt x="-33" y="841" on="1"/>
      </contour>
    </TTGlyph>
    <TTGlyph name="Imacron.sc" xMin="-25" yMin="0" xMax="334" yMax="760">
      <contour>
        <pt x="69" y="577" on="1"/>
        <pt x="231" y="577" on="1"/>
        <pt x="231" y="0" on="1"/>
        <pt x="69" y="0" on="1"/>
      </contour>
      <contour>
        <pt x="-25" y="760" on="1"/>
        <pt x="334" y="760" on="1"/>
        <pt x="334" y="656" on="1"/>
        <pt x="-25" y="656" on="1"/>
      </contour>
    </TTGlyph>
    <TTGlyph name="Iogonek" xMin="15" yMin="-220" xMax="244" yMax="740">
      <contour>
        <pt x="72" y="740" on="1"/>
        <pt x="243" y="740" on="1"/>
        <pt x="243" y="-10" on="1"/>
        <pt x="177" y="-38" on="0"/>
        <pt x="123" y="-83" on="0"/>
        <pt x="123" y="-105" on="1"/>
        <pt x="123" y="-130" on="0"/>
        <pt x="158" y="-130" on="1"/>
        <pt x="172" y="-130" on="0"/>
        <pt x="222" y="-122" on="0"/>
        <pt x="244" y="-116" on="1"/>
        <pt x="244" y="-208" on="1"/>
        <pt x="205" y="-220" on="0"/>
        <pt x="156" y="-220" on="1"/>
        <pt x="87" y="-220" on="0"/>
        <pt x="15" y="-173" on="0"/>
        <pt x="15" y="-128" on="1"/>
        <pt x="15" y="-93" on="0"/>
        <pt x="61" y="-28" on="0"/>
        <pt x="106" y="0" on="1"/>
        <pt x="72" y="0" on="1"/>
      </contour>
    </TTGlyph>
    <TTGlyph name="Iogonek.sc" xMin="21" yMin="-172" xMax="232" yMax="577">
      <contour>
        <pt x="69" y="577" on="1"/>
        <pt x="231" y="577" on="1"/>
        <pt x="231" y="-5" on="1"/>
        <pt x="197" y="-17" on="0"/>
        <pt x="155" y="-36" on="0"/>
        <pt x="132" y="-53" on="0"/>
        <pt x="124" y="-66" on="0"/>
        <pt x="124" y="-72" on="1"/>
        <pt x="124" y="-81" on="0"/>
        <pt x="138" y="-87" on="0"/>
        <pt x="152" y="-87" on="1"/>
        <pt x="167" y="-87" on="0"/>
        <pt x="216" y="-82" on="0"/>
        <pt x="232" y="-78" on="1"/>
        <pt x="232" y="-162" on="1"/>
        <pt x="212" y="-167" on="0"/>
        <pt x="172" y="-172" on="0"/>
        <pt x="152" y="-172" on="1"/>
        <pt x="89" y="-172" on="0"/>
        <pt x="21" y="-131" on="0"/>
        <pt x="21" y="-96" on="1"/>
        <pt x="21" y="-67" on="0"/>
        <pt x="60" y="-19" on="0"/>
        <pt x="96" y="0" on="1"/>
        <pt x="69" y="0" on="1"/>
      </contour>
    </TTGlyph>
    <TTGlyph name="Itilde" xMin="-69" yMin="0" xMax="400" yMax="974">
      <contour>
        <pt x="72" y="740" on="1"/>
        <pt x="243" y="740" on="1"/>
        <pt x="243" y="0" on="1"/>
        <pt x="72" y="0" on="1"/>
      </contour>
      <contour>
        <pt x="-69" y="857" on="1"/>
        <pt x="-36" y="916" on="0"/>
        <pt x="48" y="974" on="0"/>
        <pt x="87" y="974" on="1"/>
        <pt x="112" y="974" on="0"/>
        <pt x="161" y="962" on="0"/>
        <pt x="209" y="948" on="0"/>
        <pt x="257" y="936" on="0"/>
        <pt x="282" y="936" on="1"/>
        <pt x="305" y="936" on="0"/>
        <pt x="349" y="951" on="0"/>
        <pt x="377" y="973" on="1"/>
        <pt x="400" y="942" on="1"/>
        <pt x="367" y="883" on="0"/>
        <pt x="282" y="824" on="0"/>
        <pt x="242" y="824" on="1"/>
        <pt x="217" y="824" on="0"/>
        <pt x="169" y="836" on="0"/>
        <pt x="121" y="850" on="0"/>
        <pt x="72" y="862" on="0"/>
        <pt x="48" y="862" on="1"/>
        <pt x="25" y="862" on="0"/>
        <pt x="-20" y="847" on="0"/>
        <pt x="-46" y="826" on="1"/>
      </contour>
    </TTGlyph>
    <TTGlyph name="Itilde.sc" xMin="-59" yMin="0" xMax="371" yMax="775">
      <contour>
        <pt x="69" y="577" on="1"/>
        <pt x="231" y="577" on="1"/>
        <pt x="231" y="0" on="1"/>
        <pt x="69" y="0" on="1"/>
      </contour>
      <contour>
        <pt x="-59" y="668" on="1"/>
        <pt x="-29" y="722" on="0"/>
        <pt x="49" y="775" on="0"/>
        <pt x="85" y="775" on="1"/>
        <pt x="108" y="775" on="0"/>
        <pt x="153" y="766" on="0"/>
        <pt x="197" y="755" on="0"/>
        <pt x="241" y="746" on="0"/>
        <pt x="264" y="746" on="1"/>
        <pt x="285" y="746" on="0"/>
        <pt x="324" y="757" on="0"/>
        <pt x="350" y="774" on="1"/>
        <pt x="371" y="748" on="1"/>
        <pt x="340" y="694" on="0"/>
        <pt x="262" y="642" on="0"/>
        <pt x="226" y="642" on="1"/>
        <pt x="203" y="642" on="0"/>
        <pt x="158" y="651" on="0"/>
        <pt x="114" y="662" on="0"/>
        <pt x="69" y="671" on="0"/>
        <pt x="47" y="671" on="1"/>
        <pt x="26" y="671" on="0"/>
        <pt x="-14" y="659" on="0"/>
        <pt x="-38" y="642" on="1"/>
      </contour>
    </TTGlyph>
    <TTGlyph name="J" xMin="-2" yMin="-207" xMax="245" yMax="740">
      <contour>
        <pt x="-2" y="-158" on="1"/>
        <pt x="20" y="-109" on="0"/>
        <pt x="49" y="-25" on="0"/>
        <pt x="67" y="57" on="0"/>
        <pt x="74" y="143" on="0"/>
        <pt x="74" y="195" on="1"/>
        <pt x="74" y="740" on="1"/>
        <pt x="245" y="740" on="1"/>
        <pt x="245" y="182" on="1"/>
        <pt x="245" y="130" on="0"/>
        <pt x="231" y="39" on="0"/>
        <pt x="198" y="-53" on="0"/>
        <pt x="146" y="-150" on="0"/>
        <pt x="107" y="-207" on="1"/>
      </contour>
    </TTGlyph>
    <TTGlyph name="J.sc" xMin="4" yMin="-167" xMax="233" yMax="577">
      <contour>
        <pt x="4" y="-123" on="1"/>
        <pt x="23" y="-84" on="0"/>
        <pt x="49" y="-17" on="0"/>
        <pt x="65" y="47" on="0"/>
        <pt x="71" y="114" on="0"/>
        <pt x="71" y="155" on="1"/>
        <pt x="71" y="577" on="1"/>
        <pt x="233" y="577" on="1"/>
        <pt x="233" y="143" on="1"/>
        <pt x="233" y="102" on="0"/>
        <pt x="220" y="29" on="0"/>
        <pt x="191" y="-44" on="0"/>
        <pt x="143" y="-122" on="0"/>
        <pt x="108" y="-167" on="1"/>
      </contour>
    </TTGlyph>
    <TTGlyph name="Jcircumflex" xMin="-35" yMin="-207" xMax="360" yMax="992">
      <contour>
        <pt x="-2" y="-158" on="1"/>
        <pt x="20" y="-109" on="0"/>
        <pt x="49" y="-25" on="0"/>
        <pt x="67" y="57" on="0"/>
        <pt x="74" y="143" on="0"/>
        <pt x="74" y="195" on="1"/>
        <pt x="74" y="740" on="1"/>
        <pt x="245" y="740" on="1"/>
        <pt x="245" y="182" on="1"/>
        <pt x="245" y="130" on="0"/>
        <pt x="231" y="39" on="0"/>
        <pt x="198" y="-53" on="0"/>
        <pt x="146" y="-150" on="0"/>
        <pt x="107" y="-207" on="1"/>
      </contour>
      <contour>
        <pt x="-35" y="915" on="1"/>
        <pt x="161" y="992" on="1"/>
        <pt x="360" y="915" on="1"/>
        <pt x="360" y="801" on="1"/>
        <pt x="162" y="878" on="1"/>
        <pt x="-35" y="801" on="1"/>
      </contour>
    </TTGlyph>
    <TTGlyph name="Jcircumflex.sc" xMin="-28" yMin="-167" xMax="335" yMax="788">
      <contour>
        <pt x="3" y="-123" on="1"/>
        <pt x="22" y="-84" on="0"/>
        <pt x="49" y="-17" on="0"/>
        <pt x="64" y="47" on="0"/>
        <pt x="71" y="114" on="0"/>
        <pt x="71" y="155" on="1"/>
        <pt x="71" y="577" on="1"/>
        <pt x="233" y="577" on="1"/>
        <pt x="233" y="143" on="1"/>
        <pt x="233" y="102" on="0"/>
        <pt x="220" y="29" on="0"/>
        <pt x="190" y="-44" on="0"/>
        <pt x="142" y="-122" on="0"/>
        <pt x="107" y="-167" on="1"/>
      </contour>
      <contour>
        <pt x="-28" y="726" on="1"/>
        <pt x="153" y="788" on="1"/>
        <pt x="335" y="726" on="1"/>
        <pt x="335" y="622" on="1"/>
        <pt x="154" y="683" on="1"/>
        <pt x="-28" y="622" on="1"/>
      </contour>
    </TTGlyph>
    <TTGlyph name="K" xMin="72" yMin="0" xMax="733" yMax="740">
      <contour>
        <pt x="72" y="740" on="1"/>
        <pt x="243" y="740" on="1"/>
        <pt x="243" y="440" on="1"/>
        <pt x="349" y="440" on="1"/>
        <pt x="525" y="740" on="1"/>
        <pt x="715" y="740" on="1"/>
        <pt x="511" y="414" on="1"/>
        <pt x="464" y="388" on="1"/>
        <pt x="464" y="380" on="1"/>
        <pt x="514" y="354" on="1"/>
        <pt x="733" y="0" on="1"/>
        <pt x="543" y="0" on="1"/>
        <pt x="360" y="307" on="1"/>
        <pt x="243" y="307" on="1"/>
        <pt x="243" y="0" on="1"/>
        <pt x="72" y="0" on="1"/>
      </contour>
    </TTGlyph>
    <TTGlyph name="K.sc" xMin="69" yMin="0" xMax="672" yMax="577">
      <contour>
        <pt x="69" y="577" on="1"/>
        <pt x="231" y="577" on="1"/>
        <pt x="231" y="352" on="1"/>
        <pt x="323" y="352" on="1"/>
        <pt x="476" y="577" on="1"/>
        <pt x="657" y="577" on="1"/>
        <pt x="477" y="326" on="1"/>
        <pt x="430" y="305" on="1"/>
        <pt x="430" y="298" on="1"/>
        <pt x="479" y="277" on="1"/>
        <pt x="672" y="0" on="1"/>
        <pt x="491" y="0" on="1"/>
        <pt x="334" y="228" on="1"/>
        <pt x="231" y="228" on="1"/>
        <pt x="231" y="0" on="1"/>
        <pt x="69" y="0" on="1"/>
      </contour>
    </TTGlyph>
    <TTGlyph name="Kcommaaccent" xMin="72" yMin="-220" xMax="733" yMax="740">
      <contour>
        <pt x="269" y="-70" on="1"/>
        <pt x="441" y="-70" on="1"/>
        <pt x="353" y="-220" on="1"/>
        <pt x="226" y="-220" on="1"/>
      </contour>
      <contour>
        <pt x="72" y="740" on="1"/>
        <pt x="243" y="740" on="1"/>
        <pt x="243" y="440" on="1"/>
        <pt x="349" y="440" on="1"/>
        <pt x="525" y="740" on="1"/>
        <pt x="715" y="740" on="1"/>
        <pt x="511" y="414" on="1"/>
        <pt x="464" y="388" on="1"/>
        <pt x="464" y="380" on="1"/>
        <pt x="514" y="354" on="1"/>
        <pt x="733" y="0" on="1"/>
        <pt x="543" y="0" on="1"/>
        <pt x="360" y="307" on="1"/>
        <pt x="243" y="307" on="1"/>
        <pt x="243" y="0" on="1"/>
        <pt x="72" y="0" on="1"/>
      </contour>
    </TTGlyph>
    <TTGlyph name="Kcommaaccent.sc" xMin="69" yMin="-172" xMax="672" yMax="577">
      <contour>
        <pt x="69" y="577" on="1"/>
        <pt x="231" y="577" on="1"/>
        <pt x="231" y="352" on="1"/>
        <pt x="323" y="352" on="1"/>
        <pt x="476" y="577" on="1"/>
        <pt x="657" y="577" on="1"/>
        <pt x="477" y="326" on="1"/>
        <pt x="430" y="305" on="1"/>
        <pt x="430" y="298" on="1"/>
        <pt x="479" y="277" on="1"/>
        <pt x="672" y="0" on="1"/>
        <pt x="491" y="0" on="1"/>
        <pt x="334" y="228" on="1"/>
        <pt x="231" y="228" on="1"/>
        <pt x="231" y="0" on="1"/>
        <pt x="69" y="0" on="1"/>
      </contour>
      <contour>
        <pt x="268" y="-55" on="1"/>
        <pt x="432" y="-55" on="1"/>
        <pt x="352" y="-172" on="1"/>
        <pt x="232" y="-172" on="1"/>
      </contour>
    </TTGlyph>
    <TTGlyph name="L" xMin="72" yMin="0" xMax="560" yMax="740">
      <contour>
        <pt x="72" y="740" on="1"/>
        <pt x="243" y="740" on="1"/>
        <pt x="243" y="132" on="1"/>
        <pt x="560" y="132" on="1"/>
        <pt x="560" y="0" on="1"/>
        <pt x="72" y="0" on="1"/>
      </contour>
    </TTGlyph>
    <TTGlyph name="L.sc" xMin="69" yMin="0" xMax="516" yMax="577">
      <contour>
        <pt x="69" y="577" on="1"/>
        <pt x="231" y="577" on="1"/>
        <pt x="231" y="124" on="1"/>
        <pt x="516" y="124" on="1"/>
        <pt x="516" y="0" on="1"/>
        <pt x="69" y="0" on="1"/>
      </contour>
    </TTGlyph>
    <TTGlyph name="Lacute" xMin="72" yMin="0" xMax="560" yMax="981">
      <contour>
        <pt x="98" y="810" on="1"/>
        <pt x="166" y="981" on="1"/>
        <pt x="337" y="981" on="1"/>
        <pt x="220" y="802" on="1"/>
      </contour>
      <contour>
        <pt x="72" y="740" on="1"/>
        <pt x="243" y="740" on="1"/>
        <pt x="243" y="132" on="1"/>
        <pt x="560" y="132" on="1"/>
        <pt x="560" y="0" on="1"/>
        <pt x="72" y="0" on="1"/>
      </contour>
    </TTGlyph>
    <TTGlyph name="Lacute.sc" xMin="69" yMin="0" xMax="516" yMax="777">
      <contour>
        <pt x="69" y="577" on="1"/>
        <pt x="231" y="577" on="1"/>
        <pt x="231" y="124" on="1"/>
        <pt x="516" y="124" on="1"/>
        <pt x="516" y="0" on="1"/>
        <pt x="69" y="0" on="1"/>
      </contour>
      <contour>
        <pt x="95" y="634" on="1"/>
        <pt x="153" y="777" on="1"/>
        <pt x="316" y="777" on="1"/>
        <pt x="209" y="627" on="1"/>
      </contour>
    </TTGlyph>
    <TTGlyph name="Lcaron" xMin="72" yMin="0" xMax="560" yMax="788">
      <contour>
        <pt x="409" y="788" on="1"/>
        <pt x="540" y="788" on="1"/>
        <pt x="498" y="560" on="1"/>
        <pt x="409" y="560" on="1"/>
      </contour>
      <contour>
        <pt x="72" y="740" on="1"/>
        <pt x="243" y="740" on="1"/>
        <pt x="243" y="132" on="1"/>
        <pt x="560" y="132" on="1"/>
        <pt x="560" y="0" on="1"/>
        <pt x="72" y="0" on="1"/>
      </contour>
    </TTGlyph>
    <TTGlyph name="Lcaron.sc" xMin="69" yMin="0" xMax="516" yMax="625">
      <contour>
        <pt x="69" y="577" on="1"/>
        <pt x="231" y="577" on="1"/>
        <pt x="231" y="124" on="1"/>
        <pt x="516" y="124" on="1"/>
        <pt x="516" y="0" on="1"/>
        <pt x="69" y="0" on="1"/>
      </contour>
      <contour>
        <pt x="373" y="625" on="1"/>
        <pt x="498" y="625" on="1"/>
        <pt x="458" y="447" on="1"/>
        <pt x="373" y="447" on="1"/>
      </contour>
    </TTGlyph>
    <TTGlyph name="Lcommaaccent" xMin="72" yMin="-220" xMax="560" yMax="740">
      <contour>
        <pt x="217" y="-70" on="1"/>
        <pt x="389" y="-70" on="1"/>
        <pt x="301" y="-220" on="1"/>
        <pt x="174" y="-220" on="1"/>
      </contour>
      <contour>
        <pt x="72" y="740" on="1"/>
        <pt x="243" y="740" on="1"/>
        <pt x="243" y="132" on="1"/>
        <pt x="560" y="132" on="1"/>
        <pt x="560" y="0" on="1"/>
        <pt x="72" y="0" on="1"/>
      </contour>
    </TTGlyph>
    <TTGlyph name="Lcommaaccent.sc" xMin="69" yMin="-172" xMax="516" yMax="577">
      <contour>
        <pt x="69" y="577" on="1"/>
        <pt x="231" y="577" on="1"/>
        <pt x="231" y="124" on="1"/>
        <pt x="516" y="124" on="1"/>
        <pt x="516" y="0" on="1"/>
        <pt x="69" y="0" on="1"/>
      </contour>
      <contour>
        <pt x="196" y="-55" on="1"/>
        <pt x="359" y="-55" on="1"/>
        <pt x="279" y="-172" on="1"/>
        <pt x="159" y="-172" on="1"/>
      </contour>
    </TTGlyph>
    <TTGlyph name="Ldot" xMin="72" yMin="0" xMax="564" yMax="740">
      <contour>
        <pt x="72" y="740" on="1"/>
        <pt x="243" y="740" on="1"/>
        <pt x="243" y="132" on="1"/>
        <pt x="560" y="132" on="1"/>
        <pt x="560" y="0" on="1"/>
        <pt x="72" y="0" on="1"/>
      </contour>
      <contour>
        <pt x="472" y="298" on="1"/>
        <pt x="422" y="298" on="0"/>
        <pt x="379" y="340" on="0"/>
        <pt x="379" y="388" on="1"/>
        <pt x="379" y="436" on="0"/>
        <pt x="422" y="478" on="0"/>
        <pt x="472" y="478" on="1"/>
        <pt x="521" y="478" on="0"/>
        <pt x="564" y="435" on="0"/>
        <pt x="564" y="388" on="1"/>
        <pt x="564" y="342" on="0"/>
        <pt x="521" y="298" on="0"/>
      </contour>
    </TTGlyph>
    <TTGlyph name="Ldot.sc" xMin="69" yMin="0" xMax="524" yMax="577">
      <contour>
        <pt x="69" y="577" on="1"/>
        <pt x="231" y="577" on="1"/>
        <pt x="231" y="124" on="1"/>
        <pt x="516" y="124" on="1"/>
        <pt x="516" y="0" on="1"/>
        <pt x="69" y="0" on="1"/>
      </contour>
      <contour>
        <pt x="437" y="225" on="1"/>
        <pt x="390" y="225" on="0"/>
        <pt x="349" y="264" on="0"/>
        <pt x="349" y="308" on="1"/>
        <pt x="349" y="352" on="0"/>
        <pt x="390" y="391" on="0"/>
        <pt x="437" y="391" on="1"/>
        <pt x="484" y="391" on="0"/>
        <pt x="524" y="350" on="0"/>
        <pt x="524" y="308" on="1"/>
        <pt x="524" y="266" on="0"/>
        <pt x="484" y="225" on="0"/>
      </contour>
    </TTGlyph>
    <TTGlyph name="Lslash" xMin="12" yMin="0" xMax="579" yMax="740">
      <contour>
        <pt x="12" y="350" on="1"/>
        <pt x="91" y="390" on="1"/>
        <pt x="91" y="740" on="1"/>
        <pt x="262" y="740" on="1"/>
        <pt x="262" y="477" on="1"/>
        <pt x="399" y="547" on="1"/>
        <pt x="399" y="423" on="1"/>
        <pt x="262" y="353" on="1"/>
        <pt x="262" y="132" on="1"/>
        <pt x="579" y="132" on="1"/>
        <pt x="579" y="0" on="1"/>
        <pt x="91" y="0" on="1"/>
        <pt x="91" y="265" on="1"/>
        <pt x="12" y="225" on="1"/>
      </contour>
    </TTGlyph>
    <TTGlyph name="Lslash.sc" xMin="16" yMin="0" xMax="532" yMax="577">
      <contour>
        <pt x="16" y="291" on="1"/>
        <pt x="86" y="323" on="1"/>
        <pt x="86" y="577" on="1"/>
        <pt x="247" y="577" on="1"/>
        <pt x="247" y="384" on="1"/>
        <pt x="369" y="439" on="1"/>
        <pt x="369" y="325" on="1"/>
        <pt x="247" y="270" on="1"/>
        <pt x="247" y="124" on="1"/>
        <pt x="532" y="124" on="1"/>
        <pt x="532" y="0" on="1"/>
        <pt x="86" y="0" on="1"/>
        <pt x="86" y="208" on="1"/>
        <pt x="16" y="176" on="1"/>
      </contour>
    </TTGlyph>
    <TTGlyph name="M" xMin="72" yMin="0" xMax="923" yMax="740">
      <contour>
        <pt x="72" y="740" on="1"/>
        <pt x="305" y="740" on="1"/>
        <pt x="446" y="378" on="1"/>
        <pt x="494" y="225" on="1"/>
        <pt x="501" y="225" on="1"/>
        <pt x="548" y="378" on="1"/>
        <pt x="690" y="740" on="1"/>
        <pt x="923" y="740" on="1"/>
        <pt x="923" y="0" on="1"/>
        <pt x="771" y="0" on="1"/>
        <pt x="771" y="549" on="1"/>
        <pt x="763" y="549" on="1"/>
        <pt x="694" y="345" on="1"/>
        <pt x="567" y="30" on="1"/>
        <pt x="427" y="30" on="1"/>
        <pt x="301" y="345" on="1"/>
        <pt x="231" y="549" on="1"/>
        <pt x="223" y="549" on="1"/>
        <pt x="223" y="0" on="1"/>
        <pt x="72" y="0" on="1"/>
      </contour>
    </TTGlyph>
    <TTGlyph name="M.sc" xMin="69" yMin="0" xMax="842" yMax="577">
      <contour>
        <pt x="69" y="577" on="1"/>
        <pt x="282" y="577" on="1"/>
        <pt x="405" y="320" on="1"/>
        <pt x="451" y="207" on="1"/>
        <pt x="459" y="207" on="1"/>
        <pt x="505" y="320" on="1"/>
        <pt x="629" y="577" on="1"/>
        <pt x="842" y="577" on="1"/>
        <pt x="842" y="0" on="1"/>
        <pt x="697" y="0" on="1"/>
        <pt x="697" y="405" on="1"/>
        <pt x="689" y="405" on="1"/>
        <pt x="620" y="239" on="1"/>
        <pt x="519" y="23" on="1"/>
        <pt x="392" y="23" on="1"/>
        <pt x="291" y="239" on="1"/>
        <pt x="221" y="405" on="1"/>
        <pt x="214" y="405" on="1"/>
        <pt x="214" y="0" on="1"/>
        <pt x="69" y="0" on="1"/>
      </contour>
    </TTGlyph>
    <TTGlyph name="N" xMin="72" yMin="0" xMax="740" yMax="740">
      <contour>
        <pt x="72" y="740" on="1"/>
        <pt x="209" y="740" on="1"/>
        <pt x="523" y="338" on="1"/>
        <pt x="582" y="253" on="1"/>
        <pt x="591" y="253" on="1"/>
        <pt x="591" y="740" on="1"/>
        <pt x="740" y="740" on="1"/>
        <pt x="740" y="0" on="1"/>
        <pt x="603" y="0" on="1"/>
        <pt x="295" y="396" on="1"/>
        <pt x="230" y="487" on="1"/>
        <pt x="222" y="487" on="1"/>
        <pt x="222" y="0" on="1"/>
        <pt x="72" y="0" on="1"/>
      </contour>
    </TTGlyph>
    <TTGlyph name="N.sc" xMin="69" yMin="0" xMax="660" yMax="577">
      <contour>
        <pt x="69" y="577" on="1"/>
        <pt x="194" y="577" on="1"/>
        <pt x="453" y="292" on="1"/>
        <pt x="509" y="226" on="1"/>
        <pt x="516" y="226" on="1"/>
        <pt x="516" y="577" on="1"/>
        <pt x="660" y="577" on="1"/>
        <pt x="660" y="0" on="1"/>
        <pt x="535" y="0" on="1"/>
        <pt x="283" y="277" on="1"/>
        <pt x="221" y="351" on="1"/>
        <pt x="213" y="351" on="1"/>
        <pt x="213" y="0" on="1"/>
        <pt x="69" y="0" on="1"/>
      </contour>
    </TTGlyph>
    <TTGlyph name="Nacute" xMin="72" yMin="0" xMax="740" yMax="981">
      <contour>
        <pt x="320" y="810" on="1"/>
        <pt x="388" y="981" on="1"/>
        <pt x="559" y="981" on="1"/>
        <pt x="442" y="802" on="1"/>
      </contour>
      <contour>
        <pt x="72" y="740" on="1"/>
        <pt x="209" y="740" on="1"/>
        <pt x="523" y="338" on="1"/>
        <pt x="582" y="253" on="1"/>
        <pt x="591" y="253" on="1"/>
        <pt x="591" y="740" on="1"/>
        <pt x="740" y="740" on="1"/>
        <pt x="740" y="0" on="1"/>
        <pt x="603" y="0" on="1"/>
        <pt x="295" y="396" on="1"/>
        <pt x="230" y="487" on="1"/>
        <pt x="222" y="487" on="1"/>
        <pt x="222" y="0" on="1"/>
        <pt x="72" y="0" on="1"/>
      </contour>
    </TTGlyph>
    <TTGlyph name="Nacute.sc" xMin="69" yMin="0" xMax="660" yMax="777">
      <contour>
        <pt x="69" y="577" on="1"/>
        <pt x="194" y="577" on="1"/>
        <pt x="453" y="292" on="1"/>
        <pt x="509" y="226" on="1"/>
        <pt x="516" y="226" on="1"/>
        <pt x="516" y="577" on="1"/>
        <pt x="660" y="577" on="1"/>
        <pt x="660" y="0" on="1"/>
        <pt x="535" y="0" on="1"/>
        <pt x="283" y="277" on="1"/>
        <pt x="221" y="351" on="1"/>
        <pt x="213" y="351" on="1"/>
        <pt x="213" y="0" on="1"/>
        <pt x="69" y="0" on="1"/>
      </contour>
      <contour>
        <pt x="286" y="634" on="1"/>
        <pt x="344" y="777" on="1"/>
        <pt x="507" y="777" on="1"/>
        <pt x="400" y="627" on="1"/>
      </contour>
    </TTGlyph>
    <TTGlyph name="Ncaron" xMin="72" yMin="0" xMax="740" yMax="990">
      <contour>
        <pt x="210" y="990" on="1"/>
        <pt x="408" y="913" on="1"/>
        <pt x="605" y="990" on="1"/>
        <pt x="605" y="877" on="1"/>
        <pt x="406" y="800" on="1"/>
        <pt x="210" y="877" on="1"/>
      </contour>
      <contour>
        <pt x="72" y="740" on="1"/>
        <pt x="209" y="740" on="1"/>
        <pt x="523" y="338" on="1"/>
        <pt x="582" y="253" on="1"/>
        <pt x="591" y="253" on="1"/>
        <pt x="591" y="740" on="1"/>
        <pt x="740" y="740" on="1"/>
        <pt x="740" y="0" on="1"/>
        <pt x="603" y="0" on="1"/>
        <pt x="295" y="396" on="1"/>
        <pt x="230" y="487" on="1"/>
        <pt x="222" y="487" on="1"/>
        <pt x="222" y="0" on="1"/>
        <pt x="72" y="0" on="1"/>
      </contour>
    </TTGlyph>
    <TTGlyph name="Ncaron.sc" xMin="69" yMin="0" xMax="660" yMax="787">
      <contour>
        <pt x="69" y="577" on="1"/>
        <pt x="194" y="577" on="1"/>
        <pt x="453" y="292" on="1"/>
        <pt x="509" y="226" on="1"/>
        <pt x="516" y="226" on="1"/>
        <pt x="516" y="577" on="1"/>
        <pt x="660" y="577" on="1"/>
        <pt x="660" y="0" on="1"/>
        <pt x="535" y="0" on="1"/>
        <pt x="283" y="277" on="1"/>
        <pt x="221" y="351" on="1"/>
        <pt x="213" y="351" on="1"/>
        <pt x="213" y="0" on="1"/>
        <pt x="69" y="0" on="1"/>
      </contour>
      <contour>
        <pt x="185" y="683" on="1"/>
        <pt x="185" y="787" on="1"/>
        <pt x="366" y="726" on="1"/>
        <pt x="548" y="787" on="1"/>
        <pt x="548" y="683" on="1"/>
        <pt x="365" y="622" on="1"/>
      </contour>
    </TTGlyph>
    <TTGlyph name="Ncommaaccent" xMin="72" yMin="-220" xMax="740" yMax="740">
      <contour>
        <pt x="331" y="-70" on="1"/>
        <pt x="503" y="-70" on="1"/>
        <pt x="415" y="-220" on="1"/>
        <pt x="288" y="-220" on="1"/>
      </contour>
      <contour>
        <pt x="72" y="740" on="1"/>
        <pt x="209" y="740" on="1"/>
        <pt x="523" y="338" on="1"/>
        <pt x="582" y="253" on="1"/>
        <pt x="591" y="253" on="1"/>
        <pt x="591" y="740" on="1"/>
        <pt x="740" y="740" on="1"/>
        <pt x="740" y="0" on="1"/>
        <pt x="603" y="0" on="1"/>
        <pt x="295" y="396" on="1"/>
        <pt x="230" y="487" on="1"/>
        <pt x="222" y="487" on="1"/>
        <pt x="222" y="0" on="1"/>
        <pt x="72" y="0" on="1"/>
      </contour>
    </TTGlyph>
    <TTGlyph name="Ncommaaccent.sc" xMin="69" yMin="-172" xMax="660" yMax="577">
      <contour>
        <pt x="69" y="577" on="1"/>
        <pt x="194" y="577" on="1"/>
        <pt x="453" y="292" on="1"/>
        <pt x="509" y="226" on="1"/>
        <pt x="516" y="226" on="1"/>
        <pt x="516" y="577" on="1"/>
        <pt x="660" y="577" on="1"/>
        <pt x="660" y="0" on="1"/>
        <pt x="535" y="0" on="1"/>
        <pt x="283" y="277" on="1"/>
        <pt x="221" y="351" on="1"/>
        <pt x="213" y="351" on="1"/>
        <pt x="213" y="0" on="1"/>
        <pt x="69" y="0" on="1"/>
      </contour>
      <contour>
        <pt x="292" y="-55" on="1"/>
        <pt x="455" y="-55" on="1"/>
        <pt x="374" y="-172" on="1"/>
        <pt x="254" y="-172" on="1"/>
      </contour>
    </TTGlyph>
    <TTGlyph name="Ndotaccent" xMin="72" yMin="0" xMax="740" yMax="983">
      <contour>
        <pt x="406" y="802" on="1"/>
        <pt x="356" y="802" on="0"/>
        <pt x="313" y="844" on="0"/>
        <pt x="313" y="892" on="1"/>
        <pt x="313" y="940" on="0"/>
        <pt x="356" y="983" on="0"/>
        <pt x="406" y="983" on="1"/>
        <pt x="456" y="983" on="0"/>
        <pt x="498" y="939" on="0"/>
        <pt x="498" y="892" on="1"/>
        <pt x="498" y="846" on="0"/>
        <pt x="456" y="802" on="0"/>
      </contour>
      <contour>
        <pt x="72" y="740" on="1"/>
        <pt x="209" y="740" on="1"/>
        <pt x="523" y="338" on="1"/>
        <pt x="582" y="253" on="1"/>
        <pt x="591" y="253" on="1"/>
        <pt x="591" y="740" on="1"/>
        <pt x="740" y="740" on="1"/>
        <pt x="740" y="0" on="1"/>
        <pt x="603" y="0" on="1"/>
        <pt x="295" y="396" on="1"/>
        <pt x="230" y="487" on="1"/>
        <pt x="222" y="487" on="1"/>
        <pt x="222" y="0" on="1"/>
        <pt x="72" y="0" on="1"/>
      </contour>
    </TTGlyph>
</ttFont>
